<?xml version="1.0" standalone="no"?>
<!DOCTYPE svg PUBLIC "-//W3C//DTD SVG 1.1//EN" "http://www.w3.org/Graphics/SVG/1.1/DTD/svg11.dtd" >
<svg xmlns="http://www.w3.org/2000/svg" xmlns:xlink="http://www.w3.org/1999/xlink" version="1.1">
<metadata>
Created by FontForge 20170731 at Wed Apr  4 09:37:29 2012
 By Aleksey,,,
Copyright (c) 2011, Johan Aakerlund (aajohan@gmail.com), with Reserved Font Name "Comfortaa"
</metadata>
<defs>
<font id="Comfortaa-Regular" horiz-adv-x="1280" >
  <font-face 
    font-family="Comfortaa"
    font-weight="400"
    font-stretch="normal"
    units-per-em="2048"
    panose-1="2 15 6 3 7 2 0 6 0 3"
    ascent="1638"
    descent="-410"
    x-height="1120"
    cap-height="1600"
    bbox="-400 -480 2560 2080"
    underline-thickness="150"
    underline-position="-442"
    unicode-range="U+0020-F002"
  />
<missing-glyph 
d="M400 1040q0 -25 -17.5 -42.5t-42.5 -17.5t-42.5 17.5t-17.5 42.5q0 149 105.5 254.5t254.5 105.5t254.5 -105.5t105.5 -254.5t-106 -255l-123 -115q-71 -70 -71 -170q0 -25 -17.5 -42.5t-42.5 -17.5t-42.5 17.5t-17.5 42.5q0 149 106 255l124 115q70 70 70 170t-70 170
t-170 70t-170 -70t-70 -170zM730 290q0 -37 -26 -63.5t-64 -26.5q-37 0 -63.5 26.5t-26.5 63.5q0 38 26.5 64t63.5 26q38 0 64 -26t26 -64zM200 120h880v1360h-880v-1360zM140 0q-25 0 -42.5 17.5t-17.5 42.5v1480q0 25 17.5 42.5t42.5 17.5h1000q25 0 42.5 -17.5
t17.5 -42.5v-1480q0 -25 -17.5 -42.5t-42.5 -17.5h-1000z" />
    <glyph glyph-name=".notdef" 
d="M400 1040q0 -25 -17.5 -42.5t-42.5 -17.5t-42.5 17.5t-17.5 42.5q0 149 105.5 254.5t254.5 105.5t254.5 -105.5t105.5 -254.5t-106 -255l-123 -115q-71 -70 -71 -170q0 -25 -17.5 -42.5t-42.5 -17.5t-42.5 17.5t-17.5 42.5q0 149 106 255l124 115q70 70 70 170t-70 170
t-170 70t-170 -70t-70 -170zM730 290q0 -37 -26 -63.5t-64 -26.5q-37 0 -63.5 26.5t-26.5 63.5q0 38 26.5 64t63.5 26q38 0 64 -26t26 -64zM200 120h880v1360h-880v-1360zM140 0q-25 0 -42.5 17.5t-17.5 42.5v1480q0 25 17.5 42.5t42.5 17.5h1000q25 0 42.5 -17.5
t17.5 -42.5v-1480q0 -25 -17.5 -42.5t-42.5 -17.5h-1000z" />
    <glyph glyph-name=".null" horiz-adv-x="0" 
 />
    <glyph glyph-name="nonmarkingreturn" horiz-adv-x="560" 
 />
    <glyph glyph-name="space" unicode=" " horiz-adv-x="560" 
 />
    <glyph glyph-name="space" unicode="&#xa0;" horiz-adv-x="560" 
 />
    <glyph glyph-name="exclam" unicode="!" horiz-adv-x="400" 
d="M320 120q0 -50 -35 -85t-85 -35t-85 35t-35 85t35 85t85 35t85 -35t35 -85zM120 1520q0 33 23.5 56.5t56.5 23.5t56.5 -23.5t23.5 -56.5v-1121q0 -32 -23 -55q-24 -24 -57 -24t-56 24q-24 23 -24 55v1121z" />
    <glyph glyph-name="quotedbl" unicode="&#x22;" horiz-adv-x="560" 
d="M220 1220q0 -25 -17.5 -42.5t-42.5 -17.5t-42.5 17.5t-17.5 42.5l-20 292v8q0 33 23.5 56.5t56.5 23.5t56.5 -23.5t23.5 -56.5v-8zM460 1220q0 -25 -17.5 -42.5t-42.5 -17.5t-42.5 17.5t-17.5 42.5l-20 292v8q0 33 23.5 56.5t56.5 23.5t56.5 -23.5t23.5 -56.5v-8z" />
    <glyph glyph-name="numbersign" unicode="#" 
d="M389 80q-6 -33 -33.5 -56.5t-60.5 -23.5t-52.5 23.5t-13.5 56.5l71 400h-160q-33 0 -52 24q-15 17 -15 41q0 7 1 15q6 33 33.5 56.5t60.5 23.5h160l56 320h-160q-33 0 -52 23.5t-14 56.5q6 33 34 56.5t61 23.5h160l70 400q6 33 33.5 56.5t60.5 23.5t52.5 -23.5
t13.5 -56.5l-70 -400h240l70 400q6 33 33.5 56.5t60.5 23.5t52.5 -23.5t13.5 -56.5l-70 -400h160q33 0 52 -23q14 -18 14 -42q0 -7 -1 -15q-5 -33 -33 -56.5t-61 -23.5h-160l-56 -320h160q33 0 52.5 -23.5t13.5 -56.5t-33.5 -56.5t-60.5 -23.5h-160l-71 -400
q-6 -33 -33.5 -56.5t-60.5 -23.5t-52.5 23.5t-13.5 56.5l71 400h-240zM544 960l-56 -320h240l56 320h-240z" />
    <glyph glyph-name="dollar" unicode="$" horiz-adv-x="1060" 
d="M480 1q-10 0 -20 1q-198 16 -326 168q-21 23 -38 49q-16 21 -16 48q0 33 23.5 56.5t56.5 23.5q43 0 68 -37q12 -19 28 -36q85 -102 224 -113v644q-134 26 -226 134q-107 126 -94 292q14 165 140 272q82 69 180 88v89q0 33 23.5 56.5t56.5 23.5t56.5 -23.5t23.5 -56.5v-90
q133 -26 224 -133q22 -26 39 -54q12 -19 12 -43q0 -33 -23.5 -56.5t-56.5 -23.5t-56 24q-9 8 -14 17q-10 16 -23 32q-44 51 -102 71v-484q132 -38 227 -149q113 -134 113 -304q0 -23 -2 -46q-16 -198 -167 -326q-79 -67 -171 -95v-100q0 -33 -23.5 -56.5t-56.5 -23.5
t-56.5 23.5t-23.5 56.5v81zM480 1425q-41 -14 -76 -44q-76 -65 -84 -163q-8 -99 57 -175q43 -52 103 -72v454zM640 192q35 17 67 45q101 85 112 217q11 133 -74 234q-46 53 -105 81v-577z" />
    <glyph glyph-name="percent" unicode="%" horiz-adv-x="1760" 
d="M880 1200q0 -166 -117 -283t-283 -117t-283 117t-117 283t117 283t283 117t283 -117t117 -283zM880 400q0 166 117 283t283 117t283 -117t117 -283t-117 -283t-283 -117t-283 117t-117 283zM480 1440q-99 0 -169.5 -70.5t-70.5 -169.5t70.5 -169.5t169.5 -70.5
t169.5 70.5t70.5 169.5t-70.5 169.5t-169.5 70.5zM1280 640q-99 0 -169.5 -70.5t-70.5 -169.5t70.5 -169.5t169.5 -70.5t169.5 70.5t70.5 169.5t-70.5 169.5t-169.5 70.5zM320 0q-33 0 -56.5 23.5t-23.5 56.5q0 31 20 54l1115 1433q28 33 65 33q33 0 56.5 -23.5t23.5 -56.5
q0 -27 -16 -48l-1123 -1445q-28 -27 -61 -27z" />
    <glyph glyph-name="ampersand" unicode="&#x26;" horiz-adv-x="1440" 
d="M378 1099l124 -125l119 94q99 79 99 172q0 83 -58.5 141.5t-141.5 58.5t-141.5 -58.5t-58.5 -141.5t58 -141zM857 391l-372 373l-113 -86q-132 -102 -132 -218q0 -136 82 -218t198 -82t198 82zM613 863l354 -355l177 189q23 23 56 23t56.5 -23.5t23.5 -56.5
q0 -31 -20 -54l-180 -191l258 -261q22 -22 22 -54q0 -33 -23.5 -56.5t-56.5 -23.5q-32 0 -56 22l-254 255l-139 -148q-129 -129 -311 -129t-311 129t-129 331q0 182 189 331l106 83l-110 111q-105 106 -105 255t105.5 254.5t254.5 105.5t254.5 -105.5t105.5 -254.5
q0 -159 -146 -285z" />
    <glyph glyph-name="quotesingle" unicode="'" horiz-adv-x="320" 
d="M220 1220q0 -25 -17.5 -42.5t-42.5 -17.5t-42.5 17.5t-17.5 42.5l-20 292v8q0 33 23.5 56.5t56.5 23.5t56.5 -23.5t23.5 -56.5v-8z" />
    <glyph glyph-name="parenleft" unicode="(" horiz-adv-x="560" 
d="M323 1547q6 16 19 30q24 23 57 23t56.5 -23.5t23.5 -56.5q-2 -24 -13 -43q-228 -458 -228 -916q0 -460 230 -920q11 -18 11 -41q0 -33 -23.5 -56.5t-56.5 -23.5t-57 24q-12 14 -19 30q-243 495 -243 988t243 985z" />
    <glyph glyph-name="parenright" unicode=")" horiz-adv-x="560" 
d="M236 1547q244 -492 244 -985t-244 -988q-8 -16 -19 -30q-24 -24 -57 -24t-56.5 23.5t-23.5 56.5q0 23 11 41q230 460 230 920q0 458 -228 916q-11 19 -13 43q0 33 23.5 56.5t56.5 23.5t57 -23q13 -14 19 -30z" />
    <glyph glyph-name="asterisk" unicode="*" horiz-adv-x="780" 
d="M361 1271l-195 8q-14 1 -27 5q-31 11 -45 41q-9 17 -9 35q0 13 5 26q11 32 41 46t61 3q14 -5 24 -13l157 -117l-58 188q-4 13 -4 27q0 33 23.5 56.5t56.5 23.5t56.5 -23.5t23.5 -56.5q0 -14 -4 -27l-58 -189l158 118q11 8 24 13q31 11 61 -3t41 -46q5 -14 5 -27
q0 -17 -8 -34q-14 -30 -45 -41q-14 -4 -27 -5l-196 -8l161 -112q11 -7 20 -19q20 -26 16 -59t-30 -53q-22 -17 -59 -16q-33 4 -53 30q-9 11 -13 24l-72 181l-73 -181q-4 -13 -13 -24q-20 -31 -64 -31q-26 0 -48 17q-26 20 -30 53t16 59q9 12 20 19z" />
    <glyph glyph-name="plus" unicode="+" horiz-adv-x="1120" 
d="M480 1200q0 33 23.5 56.5t56.5 23.5t56.5 -23.5t23.5 -56.5v-320h320q33 0 56.5 -23.5t23.5 -56.5t-23.5 -56.5t-56.5 -23.5h-320v-320q0 -33 -23.5 -56.5t-56.5 -23.5t-56.5 23.5t-23.5 56.5v320h-320q-33 0 -56.5 23.5t-23.5 56.5t23.5 56.5t56.5 23.5h320v320z" />
    <glyph glyph-name="comma" unicode="," horiz-adv-x="400" 
d="M115 35q-35 35 -35 85t35 85t85 35t85 -35t35 -85q0 -196 -87 -328q-18 -32 -53 -32q-25 0 -42.5 17.5t-17.5 42.5t17 42q70 78 -22 173z" />
    <glyph glyph-name="hyphen" unicode="-" horiz-adv-x="800" 
d="M160 480q-33 0 -56.5 23.5t-23.5 56.5t23.5 56.5t56.5 23.5h480q33 0 56.5 -23.5t23.5 -56.5t-23.5 -56.5t-56.5 -23.5h-480z" />
    <glyph glyph-name="hyphen" unicode="&#xad;" horiz-adv-x="800" 
d="M160 480q-33 0 -56.5 23.5t-23.5 56.5t23.5 56.5t56.5 23.5h480q33 0 56.5 -23.5t23.5 -56.5t-23.5 -56.5t-56.5 -23.5h-480z" />
    <glyph glyph-name="period" unicode="." horiz-adv-x="400" 
d="M320 120q0 -50 -35 -85t-85 -35t-85 35t-35 85t35 85t85 35t85 -35t35 -85z" />
    <glyph glyph-name="slash" unicode="/" horiz-adv-x="960" 
d="M744 1577q23 23 56 23t56.5 -23.5t23.5 -56.5q0 -18 -7 -34l-640 -1600q-6 -12 -16 -22q-24 -24 -57 -24t-56.5 23.5t-23.5 56.5q0 18 7 34l640 1600q6 12 17 23z" />
    <glyph glyph-name="zero" unicode="0" horiz-adv-x="1120" 
d="M80 800q0 480 197 683q117 117 283 117t283 -117q197 -203 197 -683t-197 -683q-117 -117 -283 -117t-283 117q-197 203 -197 683zM560 1440q-99 0 -170 -71q-150 -169 -150 -569t150 -569q71 -71 170 -71t170 71q150 169 150 569t-150 569q-71 71 -170 71z" />
    <glyph glyph-name="one" unicode="1" horiz-adv-x="560" 
d="M480 80q0 -33 -23.5 -56.5t-56.5 -23.5t-56.5 23.5t-23.5 56.5v1329l-129 -43q-15 -6 -31 -6q-33 0 -56.5 23.5t-23.5 56.5t24 57q12 12 27 18l240 80q13 5 29 5q33 0 56.5 -23.5t23.5 -56.5v-1440z" />
    <glyph glyph-name="two" unicode="2" horiz-adv-x="1120" 
d="M960 160q33 0 56.5 -23.5t23.5 -56.5t-23.5 -56.5t-56.5 -23.5h-800q-33 0 -56.5 23.5t-23.5 56.5t23 57l683 756q94 94 94 227t-93.5 226.5t-226.5 93.5t-226.5 -93.5t-93.5 -226.5q0 -33 -23.5 -56.5t-56.5 -23.5t-56.5 23.5t-23.5 56.5q0 199 140.5 339.5t339.5 140.5
t339.5 -140.5t140.5 -339.5t-141 -340l-558 -620h619z" />
    <glyph glyph-name="three" unicode="3" horiz-adv-x="1120" 
d="M560 800q-33 0 -56.5 23.5t-23.5 56.5t23.5 56.5t56.5 23.5q99 0 169.5 70.5t70.5 169.5t-70.5 169.5t-169.5 70.5t-169.5 -70.5t-70.5 -169.5q0 -33 -23.5 -56.5t-56.5 -23.5t-56.5 23.5t-23.5 56.5q0 166 117 283t283 117t283 -117t117 -283q0 -176 -147 -311
q46 -29 87 -69q140 -141 140 -340t-140.5 -339.5t-339.5 -140.5t-339.5 140.5t-140.5 339.5q0 33 23.5 56.5t56.5 23.5t56.5 -23.5t23.5 -56.5q0 -133 93.5 -226.5t226.5 -93.5t226.5 93.5t93.5 226.5t-93.5 226.5t-226.5 93.5z" />
    <glyph glyph-name="four" unicode="4" 
d="M800 560v704l-487 -704h487zM160 400q-33 0 -56.5 23.5t-23.5 56.5q0 26 15 47l720 1040q22 33 65 33q33 0 56.5 -23.5t23.5 -56.5v-960h160q33 0 56.5 -23.5t23.5 -56.5t-23.5 -56.5t-56.5 -23.5h-160v-320q0 -33 -23.5 -56.5t-56.5 -23.5t-56.5 23.5t-23.5 56.5v320
h-640z" />
    <glyph glyph-name="five" unicode="5" horiz-adv-x="1200" 
d="M960 1600q33 0 56.5 -23.5t23.5 -56.5t-23.5 -56.5t-56.5 -23.5h-640v-400h280q215 0 367.5 -152.5t152.5 -367.5t-152.5 -367.5t-367.5 -152.5t-367.5 152.5t-152.5 367.5q0 33 23.5 56.5t56.5 23.5t56.5 -23.5t23.5 -56.5q0 -149 105.5 -254.5t254.5 -105.5
t254.5 105.5t105.5 254.5t-105.5 254.5t-254.5 105.5h-360q-33 0 -56.5 23.5t-23.5 56.5v560q0 33 23.5 56.5t56.5 23.5h720z" />
    <glyph glyph-name="six" unicode="6" horiz-adv-x="1120" 
d="M471 952q43 8 89 8q199 0 339.5 -140.5t140.5 -339.5t-140.5 -339.5t-339.5 -140.5t-339.5 140.5t-140.5 339.5q0 147 77 262l491 814q6 11 16 21q23 23 56 23t56.5 -23.5t23.5 -56.5q0 -23 -11 -41zM880 480q0 133 -93.5 226.5t-226.5 93.5t-226.5 -93.5t-93.5 -226.5
t93.5 -226.5t226.5 -93.5t226.5 93.5t93.5 226.5z" />
    <glyph glyph-name="seven" unicode="7" horiz-adv-x="1120" 
d="M217 24q-24 -24 -57 -24t-56.5 23.5t-23.5 56.5q0 24 16 48l729 1312h-665q-33 0 -56.5 23.5t-23.5 56.5t23.5 56.5t56.5 23.5h800q33 0 56.5 -23.5t23.5 -56.5q0 -24 -12 -43l-796 -1432q-7 -13 -15 -21z" />
    <glyph glyph-name="eight" unicode="8" horiz-adv-x="1120" 
d="M560 1440q-99 0 -169.5 -70.5t-70.5 -169.5t70.5 -169.5t169.5 -70.5t169.5 70.5t70.5 169.5t-70.5 169.5t-169.5 70.5zM560 800q-133 0 -226.5 -93.5t-93.5 -226.5t93.5 -226.5t226.5 -93.5t226.5 93.5t93.5 226.5t-93.5 226.5t-226.5 93.5zM307 889q-15 13 -30 28
q-117 117 -117 283t117 283t283 117t283 -117t117 -283t-117 -283q-15 -15 -30 -28q46 -29 87 -69q140 -141 140 -340t-140.5 -339.5t-339.5 -140.5t-339.5 140.5t-140.5 339.5t141 340q40 40 86 69z" />
    <glyph glyph-name="nine" unicode="9" horiz-adv-x="1120" 
d="M649 648q-43 -8 -89 -8q-199 0 -339.5 140.5t-140.5 339.5t140.5 339.5t339.5 140.5t339.5 -140.5t140.5 -339.5q0 -147 -77 -262l-491 -814q-6 -11 -15 -20q-24 -24 -57 -24t-56.5 23.5t-23.5 56.5q0 23 11 41zM240 1120q0 -133 93.5 -226.5t226.5 -93.5t226.5 93.5
t93.5 226.5t-93.5 226.5t-226.5 93.5t-226.5 -93.5t-93.5 -226.5z" />
    <glyph glyph-name="colon" unicode=":" horiz-adv-x="400" 
d="M320 120q0 -50 -35 -85t-85 -35t-85 35t-35 85t35 85t85 35t85 -35t35 -85zM320 1001q0 -50 -35 -85t-85 -35t-85 35t-35 85t35 85t85 35t85 -35t35 -85z" />
    <glyph glyph-name="semicolon" unicode=";" horiz-adv-x="400" 
d="M320 1001q0 -50 -35 -85t-85 -35t-85 35t-35 85t35 85t85 35t85 -35t35 -85zM115 35q-35 35 -35 85t35 85t85 35t85 -35t35 -85q0 -196 -87 -328q-22 -32 -53 -32q-25 0 -42.5 17.5t-17.5 42.5t17 42q70 78 -22 173z" />
    <glyph glyph-name="semicolon" unicode="&#x37e;" horiz-adv-x="400" 
d="M320 1001q0 -50 -35 -85t-85 -35t-85 35t-35 85t35 85t85 35t85 -35t35 -85zM115 35q-35 35 -35 85t35 85t85 35t85 -35t35 -85q0 -196 -87 -328q-22 -32 -53 -32q-25 0 -42.5 17.5t-17.5 42.5t17 42q70 78 -22 173z" />
    <glyph glyph-name="less" unicode="&#x3c;" horiz-adv-x="1120" 
d="M124 792l796 478q18 10 40 10q33 0 56.5 -23.5t23.5 -56.5q0 -43 -41 -70l-684 -410l684 -410q41 -27 41 -70q0 -33 -23.5 -56.5t-56.5 -23.5q-22 0 -40 10l-796 478q-44 28 -44 72t44 72z" />
    <glyph glyph-name="equal" unicode="=" horiz-adv-x="1040" 
d="M160 880q-33 0 -56.5 23.5t-23.5 56.5t23.5 56.5t56.5 23.5h720q33 0 56.5 -23.5t23.5 -56.5t-23.5 -56.5t-56.5 -23.5h-720zM880 560q33 0 56.5 -23.5t23.5 -56.5t-23.5 -56.5t-56.5 -24.5h-720q-33 1 -56.5 24.5t-23.5 56.5t23.5 56.5t56.5 23.5h720z" />
    <glyph glyph-name="greater" unicode="&#x3e;" horiz-adv-x="1120" 
d="M1040 720q0 -44 -44 -72l-796 -478q-18 -10 -40 -10q-33 0 -56.5 23.5t-23.5 56.5q0 43 41 70l684 410l-684 410q-41 27 -41 70q0 33 23.5 56.5t56.5 23.5q22 0 40 -10l796 -478q44 -28 44 -72z" />
    <glyph glyph-name="question" unicode="?" horiz-adv-x="1120" 
d="M240 1120q0 -33 -23.5 -56.5t-56.5 -23.5t-56.5 23.5t-23.5 56.5q0 199 140.5 339.5t339.5 140.5t339.5 -140.5t140.5 -339.5t-141 -340l-165 -153q-94 -94 -94 -227q0 -33 -23.5 -56.5t-56.5 -23.5t-56.5 23.5t-23.5 56.5q0 199 141 340l165 153q94 94 94 227
t-93.5 226.5t-226.5 93.5t-226.5 -93.5t-93.5 -226.5zM680 120q0 -50 -35 -85t-85 -35t-85 35t-35 85t35 85t85 35t85 -35t35 -85z" />
    <glyph glyph-name="at" unicode="@" horiz-adv-x="2240" 
d="M1120 960q-166 0 -283 -117t-117 -283t117 -283t283 -117t283 117t117 283t-117 283t-283 117zM1520 167q-168 -167 -400 -167t-396 164t-164 396t164 396t396 164t396 -164t164 -396v-400q0 -80 80 -80q240 0 240 480q0 365 -257.5 622.5t-622.5 257.5t-622.5 -257.5
t-257.5 -622.5t257.5 -622.5t622.5 -257.5q196 0 362 74q18 11 40 11q33 0 56.5 -23.5t23.5 -56.5t-23 -56q-13 -13 -28 -19q-197 -90 -431 -90q-431 0 -735.5 304.5t-304.5 735.5t304.5 735.5t735.5 304.5t735.5 -304.5t304.5 -735.5q0 -640 -400 -640q-240 0 -240 247z
" />
    <glyph glyph-name="A" unicode="A" horiz-adv-x="1440" 
d="M433 560l-199 -511q-6 -14 -17 -26q-24 -23 -57 -23t-56.5 23.5t-23.5 56.5q0 19 7 34l556 1430q6 18 21 33q23 23 56 23t57 -23q14 -15 20 -33l556 -1430q7 -15 7 -34q0 -33 -23.5 -56.5t-56.5 -23.5t-56 23q-12 12 -18 26l-199 511h-574zM945 720l-225 579l-225 -579
h450z" />
    <glyph glyph-name="B" unicode="B" horiz-adv-x="1120" 
d="M240 1440v-480h240q99 0 169.5 70.5t70.5 169.5t-70.5 169.5t-169.5 70.5h-240zM240 800v-640h320q133 0 226.5 93.5t93.5 226.5t-93.5 226.5t-226.5 93.5h-320zM160 1600h320q166 0 283 -117t117 -283t-117 -283q74 -35 137 -97q140 -141 140 -340t-140.5 -339.5
t-339.5 -140.5h-400q-33 0 -56.5 23.5t-23.5 56.5v1440q0 33 23.5 56.5t56.5 23.5z" />
    <glyph glyph-name="C" unicode="C" horiz-adv-x="1480" 
d="M1326 314q33 0 56.5 -23.5t23.5 -56.5t-23 -56q-223 -178 -503 -178q-331 0 -565.5 234.5t-234.5 565.5t234.5 565.5t565.5 234.5q286 0 509 -183q23 -24 23 -57t-23.5 -56.5t-56.5 -23.5t-57 24q-169 136 -395 136q-265 0 -452.5 -187.5t-187.5 -452.5t187.5 -452.5
t452.5 -187.5q229 0 400 140q20 14 46 14z" />
    <glyph glyph-name="D" unicode="D" horiz-adv-x="1360" 
d="M480 160q265 0 452.5 187.5t187.5 452.5t-187.5 452.5t-452.5 187.5h-240v-1280h240zM480 1600q331 0 565.5 -234.5t234.5 -565.5t-234.5 -565.5t-565.5 -234.5h-320q-33 0 -56.5 23.5t-23.5 56.5v1440q0 33 23.5 56.5t56.5 23.5h320z" />
    <glyph glyph-name="E" unicode="E" 
d="M160 1600h960q33 0 56.5 -23.5t23.5 -56.5t-23.5 -56.5t-56.5 -23.5h-880v-560h640q33 0 56.5 -23.5t23.5 -56.5t-23.5 -56.5t-56.5 -23.5h-640v-560h880q33 0 56.5 -23.5t23.5 -56.5t-23.5 -56.5t-56.5 -23.5h-960q-33 0 -56.5 23.5t-23.5 56.5v1440q0 33 23.5 56.5
t56.5 23.5z" />
    <glyph glyph-name="F" unicode="F" 
d="M160 1600h960q33 0 56.5 -23.5t23.5 -56.5t-23.5 -56.5t-56.5 -23.5h-880v-560h640q33 0 56.5 -23.5t23.5 -56.5t-23.5 -56.5t-56.5 -23.5h-640v-640q0 -33 -23.5 -56.5t-56.5 -23.5t-56.5 23.5t-23.5 56.5v1440q0 33 23.5 56.5t56.5 23.5z" />
    <glyph glyph-name="G" unicode="G" horiz-adv-x="1500" 
d="M1406 234q0 -33 -23 -56q-223 -178 -503 -178q-331 0 -565.5 234.5t-234.5 565.5t234.5 565.5t565.5 234.5q286 0 509 -183q23 -24 23 -57t-23.5 -56.5t-56.5 -23.5t-57 24q-169 136 -395 136q-265 0 -452.5 -187.5t-187.5 -452.5t187.5 -452.5t452.5 -187.5
q207 0 366 114v366h-316q-33 0 -56.5 23.5t-23.5 56.5t23.5 56.5t56.5 23.5h397q32 0 56 -23q23 -24 23 -57v-486z" />
    <glyph glyph-name="H" unicode="H" 
d="M80 1520q0 33 23.5 56.5t56.5 23.5t56.5 -23.5t23.5 -56.5v-640h800v640q0 33 23.5 56.5t56.5 23.5t56.5 -23.5t23.5 -56.5v-1440q0 -33 -23.5 -56.5t-56.5 -23.5t-56.5 23.5t-23.5 56.5v640h-800v-640q0 -33 -23.5 -56.5t-56.5 -23.5t-56.5 23.5t-23.5 56.5v1440z" />
    <glyph glyph-name="I" unicode="I" horiz-adv-x="480" 
d="M160 1520q0 33 23.5 56.5t56.5 23.5t56.5 -23.5t23.5 -56.5v-1440q0 -33 -23.5 -56.5t-56.5 -23.5t-56.5 23.5t-23.5 56.5v1440z" />
    <glyph glyph-name="J" unicode="J" horiz-adv-x="1120" 
d="M80 480q0 33 23.5 56.5t56.5 23.5t56.5 -23.5t23.5 -56.5q0 -133 93.5 -226.5t226.5 -93.5t226.5 93.5t93.5 226.5v1040q0 33 23.5 56.5t56.5 23.5t56.5 -23.5t23.5 -56.5v-1040q0 -199 -140.5 -339.5t-339.5 -140.5t-339.5 140.5t-140.5 339.5z" />
    <glyph glyph-name="K" unicode="K" horiz-adv-x="1200" 
d="M80 1520q0 33 23.5 56.5t56.5 23.5t56.5 -23.5t23.5 -56.5v-686l741 741q26 25 59 25t56.5 -23.5t23.5 -56.5t-23 -57l-562 -562l570 -773q15 -21 15 -45q0 -42 -32 -67q-22 -16 -46 -16q-44 0 -68 34l-554 752l-180 -180v-526q0 -33 -23.5 -56.5t-56.5 -23.5t-56.5 23.5
t-23.5 56.5v1440z" />
    <glyph glyph-name="L" unicode="L" horiz-adv-x="1200" 
d="M80 1520q0 33 23.5 56.5t56.5 23.5t56.5 -23.5t23.5 -56.5v-1360h800q33 0 56.5 -23.5t23.5 -56.5t-23.5 -56.5t-56.5 -23.5h-880q-33 0 -56.5 23.5t-23.5 56.5v1440z" />
    <glyph glyph-name="M" unicode="M" horiz-adv-x="1760" 
d="M806 49l-566 1132v-1101q0 -33 -23.5 -56.5t-56.5 -23.5t-56.5 23.5t-23.5 56.5v1440q0 33 23.5 56.5t56.5 23.5q48 0 71 -42l649 -1299l649 1299q23 42 71 42q33 0 56.5 -23.5t23.5 -56.5v-1440q0 -33 -23.5 -56.5t-56.5 -23.5t-56.5 23.5t-23.5 56.5v1101l-571 -1142
q-21 -39 -69 -39q-50 0 -74 49z" />
    <glyph glyph-name="N" unicode="N" horiz-adv-x="1440" 
d="M240 80q0 -33 -23.5 -56.5t-56.5 -23.5t-56.5 23.5t-23.5 56.5v1440q0 33 23.5 56.5t56.5 23.5q36 0 62 -29l978 -1258v1207q0 33 23.5 56.5t56.5 23.5t56.5 -23.5t23.5 -56.5v-1440q0 -33 -23.5 -56.5t-56.5 -23.5q-35 0 -60 26l-980 1260v-1206z" />
    <glyph glyph-name="O" unicode="O" horiz-adv-x="1760" 
d="M880 1440q-265 0 -452.5 -187.5t-187.5 -452.5t187.5 -452.5t452.5 -187.5t452.5 187.5t187.5 452.5t-187.5 452.5t-452.5 187.5zM1680 800q0 -331 -234.5 -565.5t-565.5 -234.5t-565.5 234.5t-234.5 565.5t234.5 565.5t565.5 234.5t565.5 -234.5t234.5 -565.5z" />
    <glyph glyph-name="P" unicode="P" horiz-adv-x="1080" 
d="M240 1440v-720h240q149 0 254.5 105.5t105.5 254.5t-105.5 254.5t-254.5 105.5h-240zM160 1600h320q215 0 367.5 -152.5t152.5 -367.5t-152.5 -367.5t-367.5 -152.5h-240v-480q0 -33 -23.5 -56.5t-56.5 -23.5t-56.5 23.5t-23.5 56.5v1440q0 33 23.5 56.5t56.5 23.5z" />
    <glyph glyph-name="Q" unicode="Q" horiz-adv-x="1760" 
d="M1386 180q-216 -180 -506 -180q-331 0 -565.5 234.5t-234.5 565.5t234.5 565.5t565.5 234.5t565.5 -234.5t234.5 -565.5q0 -290 -180 -506l158 -158q22 -24 22 -56q0 -33 -23.5 -56.5t-56.5 -23.5t-58 24zM1272 294l-169 169q-23 24 -23 57t23.5 56.5t56.5 23.5t57 -23
l169 -169q134 168 134 392q0 265 -187.5 452.5t-452.5 187.5t-452.5 -187.5t-187.5 -452.5t187.5 -452.5t452.5 -187.5q224 0 392 134z" />
    <glyph glyph-name="R" unicode="R" horiz-adv-x="1200" 
d="M240 1440v-640h320q133 0 226.5 93.5t93.5 226.5t-93.5 226.5t-226.5 93.5h-320zM160 1600h400q199 0 339.5 -140.5t140.5 -339.5t-140 -339q-65 -65 -141 -99l348 -558q13 -19 13 -44q0 -33 -23.5 -56.5t-56.5 -23.5q-43 0 -70 41l-375 600q-17 -1 -35 -1h-320v-560
q0 -33 -23.5 -56.5t-56.5 -23.5t-56.5 23.5t-23.5 56.5v1440q0 33 23.5 56.5t56.5 23.5z" />
    <glyph glyph-name="S" unicode="S" horiz-adv-x="1060" 
d="M96 219q-16 21 -16 48q0 33 23.5 56.5t56.5 23.5q43 0 68 -37q12 -19 28 -36q85 -102 218 -113q132 -10 233 75.5t112 217.5q11 133 -74.5 233.5t-218.5 111.5q-165 14 -272 140t-94 292q14 165 140 272q113 97 260 97q174 0 304 -143q22 -26 39 -54q12 -19 12 -43
q0 -33 -23.5 -56.5t-56.5 -23.5q-38 0 -56 24t-37 49q-65 76 -163 84q-99 8 -175 -56.5t-84 -162.5q-8 -99 56.5 -175t162.5 -84q199 -17 328 -168q113 -134 113 -304q0 -23 -2 -46q-16 -198 -167 -326q-135 -115 -307 -115q-215 0 -370 170q-21 23 -38 49z" />
    <glyph glyph-name="T" unicode="T" horiz-adv-x="1360" 
d="M160 1440q-33 0 -56.5 23.5t-23.5 56.5t23.5 56.5t56.5 23.5h1040q33 0 56.5 -23.5t23.5 -56.5t-23.5 -56.5t-56.5 -23.5h-440v-1360q0 -33 -23.5 -56.5t-56.5 -23.5t-56.5 23.5t-23.5 56.5v1360h-440z" />
    <glyph glyph-name="U" unicode="U" 
d="M80 1520q0 33 23.5 56.5t56.5 23.5t56.5 -23.5t23.5 -56.5v-960q0 -166 117 -283t283 -117t283 117t117 283v960q0 33 23.5 56.5t56.5 23.5t56.5 -23.5t23.5 -56.5v-960q0 -232 -164 -396t-396 -164t-396 164t-164 396v960z" />
    <glyph glyph-name="V" unicode="V" horiz-adv-x="1440" 
d="M777 24q-24 -24 -57 -24t-56 24q-11 10 -17 26l-557 1425q-10 23 -10 45q0 33 23.5 56.5t56.5 23.5q53 0 73 -46l487 -1253l487 1253q20 46 73 46q33 0 56.5 -23.5t23.5 -56.5q0 -22 -10 -45l-557 -1425q-6 -16 -16 -26z" />
    <glyph glyph-name="W" unicode="W" horiz-adv-x="1920" 
d="M904 1577q23 23 56 23t57 -23q13 -14 19 -30l324 -1168l324 1168q6 16 20 30q23 23 56 23t56.5 -23.5t23.5 -56.5q0 -17 -6 -35l-392 -1418q-8 -25 -25 -43q-24 -24 -57 -24t-56 24q-18 18 -25 42l-319 1152l-318 -1151q-8 -25 -25 -43q-24 -24 -57 -24t-56 24
q-18 18 -25 42l-393 1419q-6 18 -6 35q0 33 23.5 56.5t56.5 23.5t57 -23q13 -14 19 -30l324 -1168l324 1168q4 15 20 30z" />
    <glyph glyph-name="X" unicode="X" horiz-adv-x="1440" 
d="M720 931l494 635q28 34 66 34q33 0 56.5 -23.5t23.5 -56.5q0 -26 -14 -46l-524 -674l521 -670q17 -22 17 -50q0 -33 -23.5 -56.5t-56.5 -23.5q-38 0 -61 28l-499 641l-499 -641q-23 -28 -61 -28q-33 0 -56.5 23.5t-23.5 56.5q0 28 17 50l521 670l-524 674q-14 20 -14 46
q0 33 23.5 56.5t56.5 23.5q38 0 66 -34z" />
    <glyph glyph-name="Y" unicode="Y" 
d="M720 80q0 -33 -23.5 -56.5t-56.5 -23.5t-56.5 23.5t-23.5 56.5v696l-467 699q-13 20 -13 45q0 33 23.5 56.5t56.5 23.5q41 0 65 -33l415 -622l415 622q24 33 65 33q33 0 56.5 -23.5t23.5 -56.5q0 -25 -13 -45l-467 -699v-696z" />
    <glyph glyph-name="Z" unicode="Z" horiz-adv-x="1440" 
d="M160 1440q-33 0 -56.5 23.5t-23.5 56.5t23.5 56.5t56.5 23.5h1120q33 0 56.5 -23.5t23.5 -56.5q0 -26 -14 -46l-1022 -1314h956q33 0 56.5 -23.5t23.5 -56.5t-23.5 -56.5t-56.5 -23.5h-1120q-33 0 -56.5 23.5t-23.5 56.5q0 28 17 50l1019 1310h-956z" />
    <glyph glyph-name="bracketleft" unicode="[" horiz-adv-x="640" 
d="M160 1600h320q33 0 56.5 -23.5t23.5 -56.5t-23.5 -56.5t-56.5 -23.5h-240v-1760h240q33 0 56.5 -23.5t23.5 -56.5t-23.5 -56.5t-56.5 -23.5h-320q-33 0 -56.5 23.5t-23.5 56.5v1920q0 33 23.5 56.5t56.5 23.5z" />
    <glyph glyph-name="backslash" unicode="\" horiz-adv-x="960" 
d="M233 1554l640 -1600q7 -16 7 -34q0 -33 -23.5 -56.5t-56.5 -23.5t-57 24q-10 10 -16 22l-640 1600q-7 16 -7 34q0 33 23.5 56.5t56.5 23.5t57 -23q10 -11 16 -23z" />
    <glyph glyph-name="bracketright" unicode="]" horiz-adv-x="640" 
d="M560 1520v-1920q0 -33 -23.5 -56.5t-56.5 -23.5h-320q-33 0 -56.5 23.5t-23.5 56.5t23.5 56.5t56.5 23.5h240v1760h-240q-33 0 -56.5 23.5t-23.5 56.5t23.5 56.5t56.5 23.5h320q33 0 56.5 -23.5t23.5 -56.5z" />
    <glyph glyph-name="asciicircum" unicode="^" horiz-adv-x="960" 
d="M480 1375l-256 -384q-24 -31 -64 -31q-33 0 -56.5 23.5t-23.5 56.5q0 23 11 41l324 486q22 33 65 33t65 -33l324 -486q11 -18 11 -41q0 -33 -23.5 -56.5t-56.5 -23.5q-40 0 -64 31z" />
    <glyph glyph-name="underscore" unicode="_" horiz-adv-x="960" 
d="M0 -160q-33 0 -56.5 23.5t-23.5 56.5t23.5 56.5t56.5 23.5h960q33 0 56.5 -23.5t23.5 -56.5t-23.5 -56.5t-56.5 -23.5h-960z" />
    <glyph glyph-name="grave" unicode="`" horiz-adv-x="560" 
d="M80 1520q0 33 23.5 56.5t56.5 23.5t57 -23l243 -243q20 -23 20 -54q0 -33 -23.5 -56.5t-56.5 -23.5q-32 0 -55 21l-243 243q-22 24 -22 56z" />
    <glyph glyph-name="a" unicode="a" 
d="M640 960q-166 0 -283 -117t-117 -283t117 -283t283 -117t283 117t117 283t-117 283t-283 117zM1040 168q-168 -168 -400 -168t-396 164t-164 396t164 396t396 164t396 -164t164 -396v-480q0 -33 -23.5 -56.5t-56.5 -23.5t-56.5 23.5t-23.5 56.5v88z" />
    <glyph glyph-name="b" unicode="b" 
d="M640 160q166 0 283 117t117 283t-117 283t-283 117t-283 -117t-117 -283t117 -283t283 -117zM240 952l4 4q164 164 396 164t396 -164t164 -396t-164 -396t-396 -164t-396 164t-164 396v962q0 33 23.5 56.5t56.5 23.5t56.5 -23.5t23.5 -56.5v-570z" />
    <glyph glyph-name="c" unicode="c" horiz-adv-x="1120" 
d="M950 274q33 0 56.5 -23.5t23.5 -56.5t-25 -59q-155 -135 -365 -135q-232 0 -396 164t-164 396t164 396t396 164q210 0 365 -135q28 -25 28 -62q0 -33 -23.5 -56.5t-56.5 -23.5q-29 0 -51 18q-112 99 -262 99q-166 0 -283 -117t-117 -283t117 -283t283 -117q150 0 261 98
q21 16 49 16z" />
    <glyph glyph-name="d" unicode="d" 
d="M1040 560q0 166 -117 283t-283 117t-283 -117t-117 -283t117 -283t283 -117t283 117t117 283zM1040 1522q0 33 23.5 56.5t56.5 23.5t56.5 -23.5t23.5 -56.5v-962q0 -232 -164 -396t-396 -164t-396 164t-164 396t164 396t396 164t396 -164l4 -4v570z" />
    <glyph glyph-name="e" unicode="e" 
d="M1033 640q-22 115 -110 203q-117 117 -283 117t-283 -117q-88 -88 -110 -203h786zM948 272q33 0 56.5 -23.5t23.5 -56.5t-23 -57q-155 -135 -365 -135q-232 0 -396 164t-164 396t164 396t396 164t396 -164t164 -396q0 -33 -23.5 -56.5t-56.5 -23.5h-873q22 -115 110 -203
q117 -117 283 -117q150 0 258 95q22 17 50 17z" />
    <glyph glyph-name="f" unicode="f" horiz-adv-x="800" 
d="M720 1600q33 0 56.5 -23.5t23.5 -56.5t-23.5 -56.5t-56.5 -23.5q-320 0 -320 -320v-60h241q33 0 56.5 -23.5t23.5 -56.5t-23.5 -56.5t-56.5 -23.5h-241v-820q0 -33 -23.5 -56.5t-56.5 -23.5t-56.5 23.5t-23.5 56.5v820h-80q-33 0 -56.5 23.5t-23.5 56.5t23.5 56.5
t56.5 23.5h80v60q0 480 480 480z" />
    <glyph glyph-name="g" unicode="g" 
d="M640 960q-166 0 -283 -117t-117 -283t117 -283t283 -117t283 117t117 283t-117 283t-283 117zM1040 168l-4 -4q-164 -164 -396 -164t-396 164t-164 396t164 396t396 164t396 -164t164 -396v-560q0 -175 -126 -304q-176 -176 -425 -176t-424 176q-65 64 -106 139
q-12 18 -12 42q0 33 23.5 56.5t56.5 23.5t57 -23q10 -11 17 -24q30 -54 77 -101q129 -129 311 -129t311 129q80 96 80 191v168z" />
    <glyph glyph-name="h" unicode="h" horiz-adv-x="1200" 
d="M80 1520q0 33 23.5 56.5t56.5 23.5t56.5 -23.5t23.5 -56.5v-545q150 145 360 145q215 0 367.5 -152.5t152.5 -367.5v-520q0 -33 -23.5 -56.5t-56.5 -23.5t-56.5 23.5t-23.5 56.5v520q0 149 -105.5 254.5t-254.5 105.5t-254.5 -105.5t-105.5 -254.5v-520
q0 -33 -23.5 -56.5t-56.5 -23.5t-56.5 23.5t-23.5 56.5v1440z" />
    <glyph glyph-name="i" unicode="i" horiz-adv-x="480" 
d="M340 1360q0 -41 -29.5 -70.5t-70.5 -29.5t-70.5 29.5t-29.5 70.5t29.5 70.5t70.5 29.5t70.5 -29.5t29.5 -70.5zM160 1040q0 33 23.5 56.5t56.5 23.5t56.5 -23.5t23.5 -56.5v-960q0 -33 -23.5 -56.5t-56.5 -23.5t-56.5 23.5t-23.5 56.5v960z" />
    <glyph glyph-name="j" unicode="j" horiz-adv-x="656" 
d="M580 1360q0 -41 -29.5 -70.5t-70.5 -29.5t-70.5 29.5t-29.5 70.5t29.5 70.5t70.5 29.5t70.5 -29.5t29.5 -70.5zM400 0v1040q0 33 23.5 56.5t56.5 23.5t56.5 -23.5t23.5 -56.5v-1040q0 -199 -140.5 -339.5t-339.5 -140.5q-33 0 -56.5 23.5t-23.5 56.5t23.5 56.5t56.5 23.5
q133 0 226.5 93.5t93.5 226.5z" />
    <glyph glyph-name="k" unicode="k" horiz-adv-x="1120" 
d="M240 668l677 440q19 12 43 12q33 0 56.5 -23.5t23.5 -56.5t-23 -56q-6 -6 -11 -10l-464 -302l476 -536q22 -24 22 -56q0 -33 -23.5 -56.5t-56.5 -23.5t-58 24l-497 560l-165 -107v-397q0 -33 -23.5 -56.5t-56.5 -23.5t-56.5 23.5t-23.5 56.5v1440q0 33 23.5 56.5
t56.5 23.5t56.5 -23.5t23.5 -56.5v-852z" />
    <glyph glyph-name="l" unicode="l" horiz-adv-x="480" 
d="M80 1520q0 33 23.5 56.5t56.5 23.5t56.5 -23.5t23.5 -56.5v-1360h80q33 0 56.5 -23.5t23.5 -56.5t-23.5 -56.5t-56.5 -23.5h-160q-33 0 -56.5 23.5t-23.5 56.5v1440z" />
    <glyph glyph-name="m" unicode="m" horiz-adv-x="1760" 
d="M240 80q0 -33 -23.5 -56.5t-56.5 -23.5t-56.5 23.5t-23.5 56.5v960q0 33 23.5 56.5t56.5 23.5t56.5 -23.5t23.5 -56.5v-21q119 101 280 101q182 0 311 -129q27 -27 49 -57q22 30 49 57q129 129 311 129t311 -129t129 -311v-600q0 -33 -23.5 -56.5t-56.5 -23.5t-56.5 23.5
t-23.5 56.5v600q0 116 -82 198t-198 82t-198 -82t-82 -198v-600q0 -33 -23.5 -56.5t-56.5 -23.5t-56.5 23.5t-23.5 56.5v600q0 116 -82 198t-198 82t-198 -82t-82 -198v-600z" />
    <glyph glyph-name="n" unicode="n" horiz-adv-x="1200" 
d="M80 1040q0 33 23.5 56.5t56.5 23.5t56.5 -23.5t23.5 -56.5v-65q150 145 360 145q215 0 367.5 -152.5t152.5 -367.5v-520q0 -33 -23.5 -56.5t-56.5 -23.5t-56.5 23.5t-23.5 56.5v520q0 149 -105.5 254.5t-254.5 105.5t-254.5 -105.5t-105.5 -254.5v-520q0 -33 -23.5 -56.5
t-56.5 -23.5t-56.5 23.5t-23.5 56.5v960z" />
    <glyph glyph-name="o" unicode="o" 
d="M1200 560q0 -232 -164 -396t-396 -164t-396 164t-164 396t164 396t396 164t396 -164t164 -396zM640 960q-166 0 -283 -117t-117 -283t117 -283t283 -117t283 117t117 283t-117 283t-283 117z" />
    <glyph glyph-name="p" unicode="p" 
d="M240 560q0 -166 117 -283t283 -117t283 117t117 283t-117 283t-283 117t-283 -117t-117 -283zM240 -400q0 -33 -23.5 -56.5t-56.5 -23.5t-56.5 23.5t-23.5 56.5v960q0 232 164 396t396 164t396 -164t164 -396t-164 -396t-396 -164t-396 164l-4 4v-568z" />
    <glyph glyph-name="q" unicode="q" 
d="M640 960q-166 0 -283 -117t-117 -283t117 -283t283 -117t283 117t117 283t-117 283t-283 117zM1040 168l-4 -4q-164 -164 -396 -164t-396 164t-164 396t164 396t396 164t396 -164t164 -396v-960q0 -33 -23.5 -56.5t-56.5 -23.5t-56.5 23.5t-23.5 56.5v568z" />
    <glyph glyph-name="r" unicode="r" horiz-adv-x="960" 
d="M80 1040q0 33 23.5 56.5t56.5 23.5t56.5 -23.5t23.5 -56.5v-88q168 168 400 168q117 0 215 -40q18 -7 33 -21q23 -24 23 -57t-23.5 -56.5t-56.5 -23.5q-19 0 -35 8q-71 30 -156 30q-166 0 -283 -117t-117 -283v-480q0 -33 -23.5 -56.5t-56.5 -23.5t-56.5 23.5t-23.5 56.5
v960z" />
    <glyph glyph-name="s" unicode="s" horiz-adv-x="1060" 
d="M278 560q-91 34 -127 71q-71 70 -71 169t74 173q144 147 376 147q251 0 430 -201q16 -19 15 -47q0 -33 -23.5 -56.5t-56.5 -23.5t-53 21t-29 30q-117 117 -283 117t-265 -104q-24 -29 -24 -69q3 -47 49 -64l492 -163q91 -34 127 -71q71 -70 71 -169t-74 -173
q-144 -147 -376 -147q-252 0 -430 201q-15 21 -15 47q0 33 23.5 56.5t56.5 23.5t53 -21t29 -30q117 -117 283 -117t265 104q24 29 24 69q-3 47 -49 64z" />
    <glyph glyph-name="t" unicode="t" horiz-adv-x="800" 
d="M640 160q33 0 56.5 -23.5t23.5 -56.5t-23.5 -56.5t-56.5 -23.5q-400 0 -400 400v560h-80q-33 0 -56.5 23.5t-23.5 56.5t23.5 56.5t56.5 23.5h80v400q0 33 23.5 56.5t56.5 23.5t56.5 -23.5t23.5 -56.5v-400h161q33 0 56.5 -23.5t23.5 -56.5t-23.5 -56.5t-56.5 -23.5h-161
v-560q0 -240 240 -240z" />
    <glyph glyph-name="u" unicode="u" horiz-adv-x="1200" 
d="M1120 80q0 -33 -23.5 -56.5t-56.5 -23.5t-56.5 23.5t-23.5 56.5v65q-150 -145 -360 -145q-215 0 -367.5 152.5t-152.5 367.5v520q0 33 23.5 56.5t56.5 23.5t56.5 -23.5t23.5 -56.5v-520q0 -149 105.5 -254.5t254.5 -105.5t254.5 105.5t105.5 254.5v520q0 33 23.5 56.5
t56.5 23.5t56.5 -23.5t23.5 -56.5v-960z" />
    <glyph glyph-name="v" unicode="v" horiz-adv-x="1200" 
d="M657 22q-22 -22 -57 -22t-57 23q-7 6 -13 19l-444 967q-6 14 -6 31q0 33 23.5 56.5t56.5 23.5t57 -23q8 -8 15 -21l368 -804l368 804q7 13 16 21q23 23 56 23t56.5 -23.5t23.5 -56.5q0 -17 -6 -31l-444 -967q-6 -13 -13 -20z" />
    <glyph glyph-name="w" unicode="w" horiz-adv-x="1600" 
d="M744 1097q23 23 56 23t57 -23q15 -16 21 -37l242 -727l247 741q6 12 17 23q23 23 56 23t56.5 -23.5t23.5 -56.5q0 -16 -6 -31l-319 -958q-6 -15 -18 -29q-24 -22 -57 -22t-56 22q-13 14 -19 29l-245 736l-245 -736q-6 -15 -18 -29q-24 -22 -57 -22t-56 22q-13 14 -19 29
l-319 958q-6 15 -6 31q0 33 23.5 56.5t56.5 23.5t57 -23q10 -11 16 -23l247 -741l242 727q7 21 22 37z" />
    <glyph glyph-name="x" unicode="x" horiz-adv-x="1120" 
d="M456 561l-357 427q-19 22 -19 52q0 33 23.5 56.5t56.5 23.5t59 -25l341 -409l341 409q26 25 59 25t56.5 -23.5t23.5 -56.5q0 -30 -19 -52l-357 -427l360 -432q16 -21 16 -49q0 -33 -23.5 -56.5t-56.5 -23.5t-56 24l-344 412l-344 -412q-23 -24 -56 -24t-56.5 23.5
t-23.5 56.5q0 28 16 49z" />
    <glyph glyph-name="y" unicode="y" horiz-adv-x="1120" 
d="M473 81l-384 922q-9 17 -9 37q0 33 23.5 56.5t56.5 23.5t57 -23q13 -14 19 -30l324 -777l324 777q6 16 20 30q23 23 56 23t56.5 -23.5t23.5 -56.5q0 -20 -9 -37l-596 -1430q-6 -16 -19 -29q-24 -24 -57 -24t-56.5 23.5t-23.5 56.5q0 20 9 37z" />
    <glyph glyph-name="z" unicode="z" horiz-adv-x="1120" 
d="M960 160q33 0 56.5 -23.5t23.5 -56.5t-23.5 -56.5t-56.5 -23.5h-800q-33 0 -56.5 23.5t-23.5 56.5q0 28 16 49l693 831h-629q-33 0 -56.5 23.5t-23.5 56.5t23.5 56.5t56.5 23.5h800q33 0 56.5 -23.5t23.5 -56.5q0 -30 -19 -52l-691 -828h630z" />
    <glyph glyph-name="braceleft" unicode="{" horiz-adv-x="800" 
d="M640 1600q33 0 56.5 -23.5t23.5 -56.5t-23.5 -56.5t-56.5 -23.5q-160 0 -160 -160v-480q0 -160 -80 -240q80 -80 80 -240v-480q0 -160 160 -160q33 0 56.5 -23.5t23.5 -56.5t-23.5 -56.5t-56.5 -23.5q-320 0 -320 320v480q0 160 -160 160q-33 0 -56.5 23.5t-23.5 56.5
t23.5 56.5t56.5 23.5q160 0 160 160v480q0 320 320 320z" />
    <glyph glyph-name="bar" unicode="|" horiz-adv-x="800" 
d="M320 1520q0 33 23.5 56.5t56.5 23.5t56.5 -23.5t23.5 -56.5v-1920q0 -33 -23.5 -56.5t-56.5 -23.5t-56.5 23.5t-23.5 56.5v1920z" />
    <glyph glyph-name="braceright" unicode="}" horiz-adv-x="800" 
d="M480 1280v-480q0 -160 160 -160q33 0 56.5 -23.5t23.5 -56.5t-23.5 -56.5t-56.5 -23.5q-160 0 -160 -160v-480q0 -320 -320 -320q-33 0 -56.5 23.5t-23.5 56.5t23.5 56.5t56.5 23.5q160 0 160 160v480q0 160 80 240q-80 80 -80 240v480q0 160 -160 160q-33 0 -56.5 23.5
t-23.5 56.5t23.5 56.5t56.5 23.5q320 0 320 -320z" />
    <glyph glyph-name="asciitilde" unicode="~" horiz-adv-x="960" 
d="M532 687q-90 -80 -212 -80q-133 0 -227 94q-22 24 -22 56q0 33 23.5 56.5t56.5 23.5q32 0 56 -22q47 -48 113 -48q56 0 100 35q89 80 212 80q133 0 227 -94q22 -24 22 -56q0 -33 -23.5 -56.5t-56.5 -23.5q-32 0 -56 22q-47 48 -113 48q-57 0 -100 -35z" />
    <glyph glyph-name="exclamdown" unicode="&#xa1;" horiz-adv-x="400" 
d="M200 879q-50 0 -85 35t-35 85t35 85t85 35t85 -35t35 -85t-35 -85t-85 -35zM120 720q0 32 24 55q23 24 56 24t57 -24q23 -23 23 -55v-1120q0 -33 -23.5 -56.5t-56.5 -23.5t-56.5 23.5t-23.5 56.5v1120z" />
    <glyph glyph-name="cent" unicode="&#xa2;" horiz-adv-x="1120" 
d="M361 280l272 680q-157 -5 -269 -117q-117 -117 -117 -283q0 -164 114 -280zM497 188q69 -28 150 -28q150 0 261 98q21 16 49 16q33 0 56.5 -23.5t23.5 -56.5t-25 -59q-155 -135 -365 -135q-113 0 -209 39l-123 -308q-12 -31 -42 -44q-16 -7 -32 -7q-15 0 -30 6
q-31 12 -44 42.5t-1 61.5l132 331q-24 20 -47 43q-164 164 -164 396t164 396t396 164q25 0 49 -2l109 272q13 31 44 44q13 6 31 6q15 0 29 -5q31 -12 44 -42.5t1 -61.5l-99 -249q84 -34 157 -97q28 -25 28 -62q0 -33 -23.5 -56.5t-56.5 -23.5q-29 0 -51 18q-53 47 -114 71z
" />
    <glyph glyph-name="sterling" unicode="&#xa3;" horiz-adv-x="1040" 
d="M240 0q-33 0 -56.5 23.5t-23.5 56.5q0 17 6 32q117 273 113 528h-119q-33 0 -56.5 23.5t-23.5 56.5t23.5 56.5t56.5 23.5h105q-22 127 -75 250h1q-31 75 -31 150q0 166 117 283t283 117t283 -117q29 -29 51 -61q16 -22 16 -50q0 -33 -23.5 -56.5t-56.5 -23.5
q-37 0 -56 24q-17 25 -44 54q-71 70 -170 70t-169.5 -70.5t-70.5 -169.5q0 -45 19 -90q65 -151 88 -310h293q33 0 56.5 -23.5t23.5 -56.5t-23.5 -56.5t-56.5 -23.5h-281q2 -232 -83 -480h394l60 120q21 40 70 40q33 0 56.5 -23.5t23.5 -56.5q0 -21 -9 -38l-77 -154
q-6 -13 -17 -24q-24 -24 -57 -24h-560z" />
    <glyph glyph-name="currency" unicode="&#xa4;" horiz-adv-x="960" 
d="M480 910q-66 0 -113 -47t-47 -113t47 -113t113 -47t113 47t47 113t-47 113t-113 47zM714 1097q23 23 56 23t56.5 -23.5t23.5 -56.5t-24 -58l-71 -66q45 -74 45 -166q0 -89 -42 -161l69 -72q23 -24 23 -57t-23.5 -56.5t-56.5 -23.5q-32 0 -54 22l-1 -1l-69 74
q-74 -45 -166 -45q-89 0 -160 42l-77 -72q-22 -20 -53 -20q-33 0 -56.5 23.5t-23.5 56.5t24 57l72 67q-46 73 -46 166q0 89 42 161l-68 73q-24 23 -24 56t23.5 56.5t56.5 23.5q32 0 55 -21l69 -74q74 45 166 45q89 0 161 -42z" />
    <glyph glyph-name="yen" unicode="&#xa5;" 
d="M160 880q-33 0 -56.5 23.5t-23.5 56.5t23.5 56.5t56.5 23.5h224l-291 435q-13 20 -13 45q0 33 23.5 56.5t56.5 23.5q41 0 65 -33l415 -622l415 622q24 33 65 33q33 0 56.5 -23.5t23.5 -56.5q0 -25 -13 -45l-291 -435h225q32 0 56 -23q23 -24 23 -57t-23 -56
q-24 -24 -56 -24h-332l-69 -104v-136h400q33 0 56.5 -23.5t23.5 -56.5t-23.5 -56.5t-56.5 -23.5h-400v-400q0 -33 -23.5 -56.5t-56.5 -23.5t-56.5 23.5t-23.5 56.5v400h-400q-33 0 -56.5 23.5t-23.5 56.5t23.5 56.5t56.5 23.5h400v136l-69 104h-331z" />
    <glyph glyph-name="brokenbar" unicode="&#xa6;" horiz-adv-x="480" 
d="M160 1680q0 33 23.5 56.5t56.5 23.5t56.5 -23.5t23.5 -56.5v-720q0 -33 -23.5 -56.5t-56.5 -23.5t-56.5 23.5t-23.5 56.5v720zM320 -400q0 -33 -23.5 -56.5t-56.5 -23.5t-56.5 23.5t-23.5 56.5v720q0 33 23.5 56.5t56.5 23.5t56.5 -23.5t23.5 -56.5v-720z" />
    <glyph glyph-name="section" unicode="&#xa7;" horiz-adv-x="960" 
d="M480 160q-166 0 -283 117t-117 283t117 283q20 20 42 37q-22 17 -42 37q-117 117 -117 283t117 283t283 117t283 -117t117 -283q0 -33 -23.5 -56.5t-56.5 -23.5t-56.5 23.5t-23.5 56.5q0 99 -70.5 169.5t-169.5 70.5t-169.5 -70.5t-70.5 -169.5t70.5 -169.5t169.5 -70.5
q166 0 283 -117t117 -283t-117 -283q-20 -20 -42 -37q22 -17 42 -37q117 -117 117 -283t-117 -283t-283 -117t-283 117t-117 283q0 33 23.5 56.5t56.5 23.5t56.5 -23.5t23.5 -56.5q0 -99 70.5 -169.5t169.5 -70.5t169.5 70.5t70.5 169.5t-70.5 169.5t-169.5 70.5zM480 800
q-99 0 -169.5 -70.5t-70.5 -169.5t70.5 -169.5t169.5 -70.5t169.5 70.5t70.5 169.5t-70.5 169.5t-169.5 70.5z" />
    <glyph glyph-name="dieresis" unicode="&#xa8;" horiz-adv-x="960" 
d="M339 1360q0 -41 -29.5 -70.5t-70.5 -29.5t-70.5 29.5t-29.5 70.5t29.5 70.5t70.5 29.5t70.5 -29.5t29.5 -70.5zM819 1360q0 -41 -29.5 -70.5t-70.5 -29.5t-70.5 29.5t-29.5 70.5t29.5 70.5t70.5 29.5t70.5 -29.5t29.5 -70.5z" />
    <glyph glyph-name="copyright" unicode="&#xa9;" horiz-adv-x="1760" 
d="M1190 514q33 0 56.5 -23.5t23.5 -56.5t-25 -59q-155 -135 -365 -135q-232 0 -396 164t-164 396t164 396t396 164q210 0 365 -135q28 -25 28 -62q0 -33 -23.5 -56.5t-56.5 -23.5q-29 0 -51 18q-112 99 -262 99q-166 0 -283 -117t-117 -283t117 -283t283 -117q150 0 261 98
q21 16 49 16zM1675 798q0 -331 -233.5 -564.5t-563.5 -233.5q-331 0 -564.5 233.5t-233.5 564.5q0 330 233.5 563.5t564.5 233.5q330 0 563.5 -233.5t233.5 -563.5zM878 1472q-280 0 -477.5 -197.5t-197.5 -476.5q0 -280 197.5 -477.5t477.5 -197.5q279 0 476.5 197.5
t197.5 477.5q0 279 -197.5 476.5t-476.5 197.5z" />
    <glyph glyph-name="ordfeminine" unicode="&#xaa;" horiz-adv-x="960" 
d="M480 1440q-99 0 -169.5 -70.5t-70.5 -169.5t70.5 -169.5t169.5 -70.5t169.5 70.5t70.5 169.5t-70.5 169.5t-169.5 70.5zM720 879q-103 -79 -240 -79q-166 0 -283 117t-117 283t117 283t283 117t283 -117t117 -283v-320q0 -33 -23.5 -56.5t-56.5 -23.5t-56 24
q-24 23 -24 55z" />
    <glyph glyph-name="guillemotleft" unicode="&#xab;" horiz-adv-x="960" 
d="M90 598l236 472q6 14 18 26q23 23 56 23t56.5 -23.5t23.5 -56.5q0 -18 -7 -34l-223 -445l223 -446q7 -16 7 -34q0 -33 -23.5 -56.5t-56.5 -23.5t-56 24q-12 11 -18 25l-234 467q-12 22 -12 43q0 20 10 39zM490 598l236 472q6 14 18 26q23 23 56 23t56.5 -23.5t23.5 -56.5
q0 -18 -7 -34l-223 -445l223 -446q7 -16 7 -34q0 -33 -23.5 -56.5t-56.5 -23.5t-56 24q-12 11 -18 25l-234 467q-12 22 -12 43q0 20 10 39z" />
    <glyph glyph-name="logicalnot" unicode="&#xac;" horiz-adv-x="1120" 
d="M160 960q-33 0 -56.5 23.5t-23.5 56.5t23.5 56.5t56.5 23.5h800q33 0 56.5 -23.5t23.5 -56.5v-320q0 -33 -23.5 -56.5t-56.5 -23.5t-56.5 23.5t-23.5 56.5v240h-720z" />
    <glyph glyph-name="registered" unicode="&#xae;" horiz-adv-x="1760" 
d="M1675 798q0 -331 -233.5 -564.5t-563.5 -233.5q-331 0 -564.5 233.5t-233.5 564.5q0 330 233.5 563.5t564.5 233.5q330 0 563.5 -233.5t233.5 -563.5zM878 1472q-280 0 -477.5 -197.5t-197.5 -476.5q0 -280 197.5 -477.5t477.5 -197.5q279 0 476.5 197.5t197.5 477.5
q0 279 -197.5 476.5t-476.5 197.5zM665 1217v-419h210q87 0 148.5 61t61.5 149q0 87 -61.5 148t-148.5 61h-210zM612 1322h263q130 0 222.5 -92t92.5 -222q0 -131 -93 -223q-42 -42 -92 -65l228 -366q9 -12 9 -28q0 -22 -15.5 -37.5t-36.5 -15.5q-29 0 -46 27l-246 394
q-12 -1 -23 -1h-210v-367q0 -22 -15.5 -37.5t-37.5 -15.5q-21 0 -36.5 15.5t-15.5 37.5v944q0 22 15.5 37t36.5 15z" />
    <glyph glyph-name="macron" unicode="&#xaf;" horiz-adv-x="1120" 
d="M160 1760q-33 0 -56.5 23.5t-23.5 56.5t23.5 56.5t56.5 23.5h800q33 0 56.5 -23.5t23.5 -56.5t-23.5 -56.5t-56.5 -23.5h-800z" />
    <glyph glyph-name="degree" unicode="&#xb0;" horiz-adv-x="960" 
d="M880 1200q0 -166 -117 -283t-283 -117t-283 117t-117 283t117 283t283 117t283 -117t117 -283zM480 1440q-99 0 -169.5 -70.5t-70.5 -169.5t70.5 -169.5t169.5 -70.5t169.5 70.5t70.5 169.5t-70.5 169.5t-169.5 70.5z" />
    <glyph glyph-name="plusminus" unicode="&#xb1;" horiz-adv-x="1120" 
d="M480 1200q0 33 23.5 56.5t56.5 23.5t56.5 -23.5t23.5 -56.5v-320h320q33 0 56.5 -23.5t23.5 -56.5t-23.5 -56.5t-56.5 -23.5h-320v-320q0 -33 -23.5 -56.5t-56.5 -23.5t-56.5 23.5t-23.5 56.5v320h-320q-33 0 -56.5 23.5t-23.5 56.5t23.5 56.5t56.5 23.5h320v320zM160 0
q-33 0 -56.5 23.5t-23.5 56.5t23.5 56.5t56.5 23.5h800q33 0 56.5 -23.5t23.5 -56.5t-23.5 -56.5t-56.5 -23.5h-800z" />
    <glyph glyph-name="uni00B2" unicode="&#xb2;" horiz-adv-x="640" 
d="M516 887q16 0 27.5 -11.5t11.5 -27.5q0 -17 -11.5 -28.5t-27.5 -11.5h-396q-17 0 -28.5 11.5t-11.5 28.5q0 16 11 28l338 374q47 47 47 112q0 66 -46.5 112.5t-111.5 46.5q-66 0 -112.5 -46.5t-46.5 -112.5q0 -16 -11.5 -27.5t-27.5 -11.5q-17 0 -28.5 11.5t-11.5 27.5
q0 99 69.5 168.5t168.5 69.5q98 0 167.5 -69.5t69.5 -168.5q0 -98 -70 -168l-276 -307h307z" />
    <glyph glyph-name="uni00B3" unicode="&#xb3;" horiz-adv-x="640" 
d="M320 1201q-17 0 -28.5 11.5t-11.5 28.5q0 16 11.5 28t28.5 12q49 0 84 35t35 84q0 50 -35 85t-84 35q-50 0 -85 -35t-35 -85q0 -16 -12 -27.5t-28 -11.5q-17 0 -28.5 11.5t-11.5 27.5q0 83 58.5 141.5t141.5 58.5q82 0 140.5 -58.5t58.5 -141.5q0 -92 -73 -155
q23 -14 43 -34q70 -71 70 -170t-70 -169t-169 -70q-100 0 -170 70t-70 169q0 17 11.5 28.5t28.5 11.5q16 0 28 -11.5t12 -28.5q0 -66 46.5 -112.5t113.5 -46.5q66 0 112.5 46.5t46.5 112.5q0 67 -46.5 113.5t-112.5 46.5z" />
    <glyph glyph-name="acute" unicode="&#xb4;" horiz-adv-x="560" 
d="M458 1464l-243 -243q-23 -21 -55 -21q-33 0 -56.5 23.5t-23.5 56.5q0 31 20 54l243 243q24 23 57 23t56.5 -23.5t23.5 -56.5q0 -32 -22 -56z" />
    <glyph glyph-name="mu" unicode="&#xb5;" horiz-adv-x="1200" 
d="M240 520q0 -149 105.5 -254.5t254.5 -105.5t254.5 105.5t105.5 254.5v520q0 33 23.5 56.5t56.5 23.5t56.5 -23.5t23.5 -56.5v-960q0 -33 -23.5 -56.5t-56.5 -23.5t-56.5 23.5t-23.5 56.5v65q-150 -145 -360 -145t-360 145v-545q0 -33 -23.5 -56.5t-56.5 -23.5t-56.5 23.5
t-23.5 56.5v1440q0 33 23.5 56.5t56.5 23.5t56.5 -23.5t23.5 -56.5v-520z" />
    <glyph glyph-name="paragraph" unicode="&#xb6;" horiz-adv-x="1120" 
d="M960 80q0 -33 -23.5 -56.5t-56.5 -23.5t-56.5 23.5t-23.5 56.5v1360h-160v-1360q0 -33 -23.5 -56.5t-56.5 -23.5t-56.5 23.5t-23.5 56.5v720q-166 0 -283 117t-117 283t117 283t283 117h480q33 0 56.5 -23.5t23.5 -56.5t-23.5 -56.5t-56.5 -23.5v-1360z" />
    <glyph glyph-name="periodcentered" unicode="&#xb7;" horiz-adv-x="400" 
d="M320 760q0 -50 -35 -85t-85 -35t-85 35t-35 85t35 85t85 35t85 -35t35 -85z" />
    <glyph glyph-name="periodcentered" unicode="&#x2219;" horiz-adv-x="400" 
d="M320 760q0 -50 -35 -85t-85 -35t-85 35t-35 85t35 85t85 35t85 -35t35 -85z" />
    <glyph glyph-name="cedilla" unicode="&#xb8;" horiz-adv-x="640" 
d="M304 57q23 23 56 23t56.5 -23.5t23.5 -56.5q0 -10 -2 -19l-17 -60q37 -15 69 -41q70 -61 70 -150t-70.5 -149.5t-169.5 -60.5q-59 0 -114 29l-91 54q-35 29 -35 67q0 33 23.5 56.5t56.5 23.5q24 0 43 -12l78 -48q19 -10 39 -10q33 0 56.5 13.5t23.5 36.5t-23.5 36.5
t-56.5 13.5t-56.5 23.5t-23.5 56.5q0 14 4 26l39 137q6 19 21 34z" />
    <glyph glyph-name="uni00B9" unicode="&#xb9;" horiz-adv-x="480" 
d="M319 845q0 -17 -12 -28.5t-28 -11.5t-28 11.5t-12 28.5v660l-64 -21q-7 -3 -15 -3q-17 0 -28.5 11.5t-11.5 28.5q0 16 12 28q6 6 13 9l120 40q6 2 14 2q16 0 28 -11.5t12 -28.5v-715z" />
    <glyph glyph-name="ordmasculine" unicode="&#xba;" horiz-adv-x="640" 
d="M80 1203q0 238 98 339q58 58 141 58q82 0 140 -58q98 -101 98 -339q0 -239 -98 -340q-58 -58 -140 -58q-83 0 -141 58q-98 101 -98 340zM319 1521q-50 0 -85 -36q-74 -84 -74 -282q0 -199 74 -283q35 -35 85 -35q49 0 84 35q75 84 75 283q0 198 -75 282q-35 36 -84 36z
" />
    <glyph glyph-name="guillemotright" unicode="&#xbb;" horiz-adv-x="960" 
d="M880 559q0 -21 -12 -43l-234 -467q-6 -14 -18 -25q-23 -24 -56 -24t-56.5 23.5t-23.5 56.5q0 18 7 34l223 446l-223 445q-7 16 -7 34q0 33 23.5 56.5t56.5 23.5t56 -23q12 -12 18 -26l236 -472q10 -19 10 -39zM480 559q0 -21 -12 -43l-234 -467q-6 -14 -18 -25
q-23 -24 -56 -24t-56.5 23.5t-23.5 56.5q0 18 7 34l223 446l-223 445q-7 16 -7 34q0 33 23.5 56.5t56.5 23.5t56 -23q12 -12 18 -26l236 -472q10 -19 10 -39z" />
    <glyph glyph-name="onequarter" unicode="&#xbc;" horiz-adv-x="1440" 
d="M1200 1600q33 0 56.5 -23.5t23.5 -56.5q0 -24 -12 -43l-958 -1436q-27 -41 -70 -41q-33 0 -56.5 23.5t-23.5 56.5q0 24 12 43l964 1446q21 31 64 31zM320 688q0 -20 -14 -34t-34 -14t-34 14t-14 34v798l-77 -26q-9 -3 -19 -3q-20 0 -34 14t-14 34t14 34q8 7 17 11l144 48
q8 3 17 3q20 0 34 -14t14 -34v-865zM1120 336v422l-292 -422h292zM736 240q-20 0 -34 14t-14 34q0 16 9 28l432 624q2 3 5 6q14 14 34 14t34 -14t14 -34v-576h96q20 0 34 -14t14 -34t-14 -34t-34 -14h-96v-192q0 -20 -14 -34t-34 -14t-34 14t-14 34v192h-384z" />
    <glyph glyph-name="onehalf" unicode="&#xbd;" horiz-adv-x="1600" 
d="M1200 1600q33 0 56.5 -23.5t23.5 -56.5q0 -24 -12 -43l-958 -1436q-27 -41 -70 -41q-33 0 -56.5 23.5t-23.5 56.5q0 24 12 43l964 1446q21 31 64 31zM320 688q0 -20 -14 -34t-34 -14t-34 14t-14 34v798l-77 -26q-9 -3 -19 -3q-20 0 -34 14t-14 34t14 34q8 7 17 11l144 48
q8 3 17 3q20 0 34 -14t14 -34v-865zM1472 96q19 0 33.5 -14t14.5 -34t-14.5 -34t-33.5 -14h-481q-20 0 -34 14t-14 34t14 34l410 454q57 57 57 137t-56.5 136t-136.5 56t-136 -56t-56 -136q0 -20 -14 -34t-34 -14t-34 14t-14 34q0 119 84.5 203.5t203.5 84.5
q120 0 204.5 -84.5t84.5 -203.5q0 -120 -85 -205l-335 -372h372z" />
    <glyph glyph-name="threequarters" unicode="&#xbe;" horiz-adv-x="1600" 
d="M1360 1600q33 0 56.5 -23.5t23.5 -56.5q0 -24 -12 -43l-958 -1436q-27 -41 -70 -41q-33 0 -56.5 23.5t-23.5 56.5q0 24 12 43l964 1446q21 31 64 31zM1280 336v422l-292 -422h292zM896 240q-20 0 -34 14t-14 34q0 16 9 28l432 624q2 3 5 6q14 14 34 14t34 -14t14 -34
v-576h96q20 0 34 -14t14 -34t-14 -34t-34 -14h-96v-192q0 -20 -14 -34t-34 -14t-34 14t-14 34v192h-384zM367 1119q-20 0 -34 14t-14 34q0 19 14 33t34 14q59 0 101.5 42.5t42.5 101.5t-42.5 101t-101.5 42t-101 -42t-42 -101q0 -20 -14.5 -34t-33.5 -14q-20 0 -34 14
t-14 34q0 99 70 169t169 70t169 -70t70 -169t-70 -169q-9 -9 -18 -17q28 -17 52 -41q84 -85 84 -204t-84 -203t-203 -84t-203 84t-84 203q0 20 14 34t34 14t34 -14t14 -34q0 -79 55.5 -135t135.5 -56t135.5 56t55.5 135q0 80 -55.5 136t-135.5 56z" />
    <glyph glyph-name="questiondown" unicode="&#xbf;" horiz-adv-x="1120" 
d="M560 -320q133 0 226.5 93.5t93.5 226.5t-94 227l-165 153q-141 141 -141 340q0 33 23.5 56.5t56.5 23.5t56.5 -23.5t23.5 -56.5q0 -133 94 -227l165 -153q141 -141 141 -340t-140.5 -339.5t-339.5 -140.5t-339.5 140.5t-140.5 339.5q0 33 23.5 56.5t56.5 23.5t56.5 -23.5
t23.5 -56.5q0 -133 93.5 -226.5t226.5 -93.5zM560 879q-50 0 -85 35t-35 85t35 85t85 35t85 -35t35 -85t-35 -85t-85 -35z" />
    <glyph glyph-name="Agrave" unicode="&#xc0;" horiz-adv-x="1440" 
d="M433 560l-199 -511q-6 -14 -17 -26q-24 -23 -57 -23t-56.5 23.5t-23.5 56.5q0 19 7 34l556 1430q6 18 21 33q23 23 56 23t57 -23q14 -15 20 -33l556 -1430q7 -15 7 -34q0 -33 -23.5 -56.5t-56.5 -23.5t-56 23q-12 12 -18 26l-199 511h-574zM945 720l-225 579l-225 -579
h450zM453 2000q0 33 23.5 56.5t56.5 23.5t57 -23l243 -243q20 -23 20 -54q0 -33 -23.5 -56.5t-56.5 -23.5q-32 0 -55 21l-243 243q-22 24 -22 56z" />
    <glyph glyph-name="Aacute" unicode="&#xc1;" horiz-adv-x="1440" 
d="M433 560l-199 -511q-6 -14 -17 -26q-24 -23 -57 -23t-56.5 23.5t-23.5 56.5q0 19 7 34l556 1430q6 18 21 33q23 23 56 23t57 -23q14 -15 20 -33l556 -1430q7 -15 7 -34q0 -33 -23.5 -56.5t-56.5 -23.5t-56 23q-12 12 -18 26l-199 511h-574zM945 720l-225 579l-225 -579
h450zM965 1944l-243 -243q-23 -21 -55 -21q-33 0 -56.5 23.5t-23.5 56.5q0 31 20 54l243 243q24 23 57 23t56.5 -23.5t23.5 -56.5q0 -32 -22 -56z" />
    <glyph glyph-name="Acircumflex" unicode="&#xc2;" horiz-adv-x="1440" 
d="M433 560l-199 -511q-6 -14 -17 -26q-24 -23 -57 -23t-56.5 23.5t-23.5 56.5q0 19 7 34l556 1430q6 18 21 33q23 23 56 23t57 -23q14 -15 20 -33l556 -1430q7 -15 7 -34q0 -33 -23.5 -56.5t-56.5 -23.5t-56 23q-12 12 -18 26l-199 511h-574zM945 720l-225 579l-225 -579
h450zM761 2029l239 -159q40 -30 40 -70q0 -33 -23.5 -56.5t-56.5 -23.5q-29 0 -50 17l-190 126l-190 -126q-21 -17 -50 -17q-33 0 -56.5 23.5t-23.5 56.5q0 40 40 70l239 159q18 11 41 11t41 -11z" />
    <glyph glyph-name="Atilde" unicode="&#xc3;" horiz-adv-x="1440" 
d="M433 560l-199 -511q-6 -14 -17 -26q-24 -23 -57 -23t-56.5 23.5t-23.5 56.5q0 19 7 34l556 1430q6 18 21 33q23 23 56 23t57 -23q14 -15 20 -33l556 -1430q7 -15 7 -34q0 -33 -23.5 -56.5t-56.5 -23.5t-56 23q-12 12 -18 26l-199 511h-574zM945 720l-225 579l-225 -579
h450zM769 1801q-90 -80 -212 -80q-133 0 -227 94q-22 24 -22 56q0 33 23.5 56.5t56.5 23.5q32 0 56 -22q47 -48 113 -48q56 0 100 35q89 80 212 80q133 0 227 -94q22 -24 22 -56q0 -33 -23.5 -56.5t-56.5 -23.5q-32 0 -56 22q-47 48 -113 48q-57 0 -100 -35z" />
    <glyph glyph-name="Adieresis" unicode="&#xc4;" horiz-adv-x="1440" 
d="M433 560l-199 -511q-6 -14 -17 -26q-24 -23 -57 -23t-56.5 23.5t-23.5 56.5q0 19 7 34l556 1430q6 18 21 33q23 23 56 23t57 -23q14 -15 20 -33l556 -1430q7 -15 7 -34q0 -33 -23.5 -56.5t-56.5 -23.5t-56 23q-12 12 -18 26l-199 511h-574zM945 720l-225 579l-225 -579
h450zM580 1840q0 -41 -29.5 -70.5t-70.5 -29.5t-70.5 29.5t-29.5 70.5t29.5 70.5t70.5 29.5t70.5 -29.5t29.5 -70.5zM1060 1840q0 -41 -29.5 -70.5t-70.5 -29.5t-70.5 29.5t-29.5 70.5t29.5 70.5t70.5 29.5t70.5 -29.5t29.5 -70.5z" />
    <glyph glyph-name="Aring" unicode="&#xc5;" horiz-adv-x="1440" 
d="M433 560l-199 -511q-6 -14 -17 -26q-24 -23 -57 -23t-56.5 23.5t-23.5 56.5q0 19 7 34l556 1430q6 18 21 33q23 23 56 23t57 -23q14 -15 20 -33l556 -1430q7 -15 7 -34q0 -33 -23.5 -56.5t-56.5 -23.5t-56 23q-12 12 -18 26l-199 511h-574zM945 720l-225 579l-225 -579
h450zM921 1879q0 -84 -59 -143t-142 -59q-84 0 -143 59t-59 143q0 83 59 142t143 59q83 0 142 -59t59 -142zM720 1979q-42 0 -71.5 -29.5t-29.5 -70.5q0 -42 29.5 -71.5t71.5 -29.5q41 0 70.5 29.5t29.5 71.5q0 41 -29.5 70.5t-70.5 29.5z" />
    <glyph glyph-name="AE" unicode="&#xc6;" horiz-adv-x="1760" 
d="M880 1210l-228 -410h228v410zM1600 1600q33 0 56.5 -23.5t23.5 -56.5t-23.5 -56.5t-56.5 -23.5h-560v-640h400q33 0 56.5 -23.5t23.5 -56.5t-23.5 -56.5t-56.5 -23.5h-400v-480h560q33 0 56.5 -23.5t23.5 -56.5t-23.5 -56.5t-56.5 -23.5h-640q-33 0 -56.5 23.5
t-23.5 56.5v560h-317l-335 -603q-25 -37 -68 -37q-33 0 -56.5 23.5t-23.5 56.5q0 22 10 39l802 1444q23 37 68 37h640z" />
    <glyph glyph-name="Ccedilla" unicode="&#xc7;" horiz-adv-x="1480" 
d="M1326 314q33 0 56.5 -23.5t23.5 -56.5t-23 -56q-223 -178 -503 -178q-331 0 -565.5 234.5t-234.5 565.5t234.5 565.5t565.5 234.5q286 0 509 -183q23 -24 23 -57t-23.5 -56.5t-56.5 -23.5t-57 24q-169 136 -395 136q-265 0 -452.5 -187.5t-187.5 -452.5t187.5 -452.5
t452.5 -187.5q229 0 400 140q20 14 46 14zM730 57q23 23 56 23t56.5 -23.5t23.5 -56.5q0 -10 -2 -19l-17 -60q37 -15 69 -41q70 -61 70 -150t-70.5 -149.5t-169.5 -60.5q-59 0 -114 29l-91 54q-35 29 -35 67q0 33 23.5 56.5t56.5 23.5q24 0 43 -12l78 -48q19 -10 39 -10
q33 0 56.5 13.5t23.5 36.5t-23.5 36.5t-56.5 13.5t-56.5 23.5t-23.5 56.5q0 14 4 26l39 137q6 19 21 34z" />
    <glyph glyph-name="Egrave" unicode="&#xc8;" 
d="M161 1600h960q33 0 56.5 -23.5t23.5 -56.5t-23.5 -56.5t-56.5 -23.5h-880v-560h640q33 0 56.5 -23.5t23.5 -56.5t-23.5 -56.5t-56.5 -23.5h-640v-560h880q33 0 56.5 -23.5t23.5 -56.5t-23.5 -56.5t-56.5 -23.5h-960q-33 0 -56.5 23.5t-23.5 56.5v1440q0 33 23.5 56.5
t56.5 23.5zM375 2000q0 33 23.5 56.5t56.5 23.5t57 -23l243 -243q20 -23 20 -54q0 -33 -23.5 -56.5t-56.5 -23.5q-32 0 -55 21l-243 243q-22 24 -22 56z" />
    <glyph glyph-name="Eacute" unicode="&#xc9;" 
d="M161 1600h960q33 0 56.5 -23.5t23.5 -56.5t-23.5 -56.5t-56.5 -23.5h-880v-560h640q33 0 56.5 -23.5t23.5 -56.5t-23.5 -56.5t-56.5 -23.5h-640v-560h880q33 0 56.5 -23.5t23.5 -56.5t-23.5 -56.5t-56.5 -23.5h-960q-33 0 -56.5 23.5t-23.5 56.5v1440q0 33 23.5 56.5
t56.5 23.5zM887 1944l-243 -243q-23 -21 -55 -21q-33 0 -56.5 23.5t-23.5 56.5q0 31 20 54l243 243q24 23 57 23t56.5 -23.5t23.5 -56.5q0 -32 -22 -56z" />
    <glyph glyph-name="Ecircumflex" unicode="&#xca;" 
d="M161 1600h960q33 0 56.5 -23.5t23.5 -56.5t-23.5 -56.5t-56.5 -23.5h-880v-560h640q33 0 56.5 -23.5t23.5 -56.5t-23.5 -56.5t-56.5 -23.5h-640v-560h880q33 0 56.5 -23.5t23.5 -56.5t-23.5 -56.5t-56.5 -23.5h-960q-33 0 -56.5 23.5t-23.5 56.5v1440q0 33 23.5 56.5
t56.5 23.5zM681 2029l239 -159q40 -30 40 -70q0 -33 -23.5 -56.5t-56.5 -23.5q-29 0 -50 17l-190 126l-190 -126q-21 -17 -50 -17q-33 0 -56.5 23.5t-23.5 56.5q0 40 40 70l239 159q18 11 41 11t41 -11z" />
    <glyph glyph-name="Edieresis" unicode="&#xcb;" 
d="M161 1600h960q33 0 56.5 -23.5t23.5 -56.5t-23.5 -56.5t-56.5 -23.5h-880v-560h640q33 0 56.5 -23.5t23.5 -56.5t-23.5 -56.5t-56.5 -23.5h-640v-560h880q33 0 56.5 -23.5t23.5 -56.5t-23.5 -56.5t-56.5 -23.5h-960q-33 0 -56.5 23.5t-23.5 56.5v1440q0 33 23.5 56.5
t56.5 23.5zM502 1840q0 -41 -29.5 -70.5t-70.5 -29.5t-70.5 29.5t-29.5 70.5t29.5 70.5t70.5 29.5t70.5 -29.5t29.5 -70.5zM982 1840q0 -41 -29.5 -70.5t-70.5 -29.5t-70.5 29.5t-29.5 70.5t29.5 70.5t70.5 29.5t70.5 -29.5t29.5 -70.5z" />
    <glyph glyph-name="Igrave" unicode="&#xcc;" horiz-adv-x="480" 
d="M160 1520q0 33 23.5 56.5t56.5 23.5t56.5 -23.5t23.5 -56.5v-1440q0 -33 -23.5 -56.5t-56.5 -23.5t-56.5 23.5t-23.5 56.5v1440zM-26 2000q0 33 23.5 56.5t56.5 23.5t57 -23l243 -243q20 -23 20 -54q0 -33 -23.5 -56.5t-56.5 -23.5q-32 0 -55 21l-243 243q-22 24 -22 56z
" />
    <glyph glyph-name="Iacute" unicode="&#xcd;" horiz-adv-x="480" 
d="M160 1520q0 33 23.5 56.5t56.5 23.5t56.5 -23.5t23.5 -56.5v-1440q0 -33 -23.5 -56.5t-56.5 -23.5t-56.5 23.5t-23.5 56.5v1440zM485 1944l-243 -243q-23 -21 -55 -21q-33 0 -56.5 23.5t-23.5 56.5q0 31 20 54l243 243q24 23 57 23t56.5 -23.5t23.5 -56.5q0 -32 -22 -56z
" />
    <glyph glyph-name="Icircumflex" unicode="&#xce;" horiz-adv-x="480" 
d="M160 1520q0 33 23.5 56.5t56.5 23.5t56.5 -23.5t23.5 -56.5v-1440q0 -33 -23.5 -56.5t-56.5 -23.5t-56.5 23.5t-23.5 56.5v1440zM282 2029l239 -159q40 -30 40 -70q0 -33 -23.5 -56.5t-56.5 -23.5q-29 0 -50 17l-190 126l-190 -126q-21 -17 -50 -17q-33 0 -56.5 23.5
t-23.5 56.5q0 40 40 70l239 159q18 11 41 11t41 -11z" />
    <glyph glyph-name="Idieresis" unicode="&#xcf;" horiz-adv-x="480" 
d="M160 1520q0 33 23.5 56.5t56.5 23.5t56.5 -23.5t23.5 -56.5v-1440q0 -33 -23.5 -56.5t-56.5 -23.5t-56.5 23.5t-23.5 56.5v1440zM101 1840q0 -41 -29.5 -70.5t-70.5 -29.5t-70.5 29.5t-29.5 70.5t29.5 70.5t70.5 29.5t70.5 -29.5t29.5 -70.5zM581 1840q0 -41 -29.5 -70.5
t-70.5 -29.5t-70.5 29.5t-29.5 70.5t29.5 70.5t70.5 29.5t70.5 -29.5t29.5 -70.5z" />
    <glyph glyph-name="Eth" unicode="&#xd0;" horiz-adv-x="1520" 
d="M239 880v640q0 33 23.5 56.5t56.5 23.5h320q331 0 565.5 -234.5t234.5 -565.5t-234.5 -565.5t-565.5 -234.5h-320q-33 0 -56.5 23.5t-23.5 56.5v640h-159q-33 0 -56.5 23.5t-23.5 56.5t23.5 56.5t56.5 23.5h159zM399 880h320q33 0 56.5 -23.5t23.5 -56.5t-23.5 -56.5
t-56.5 -23.5h-320v-560h240q265 0 452.5 187.5t187.5 452.5t-187.5 452.5t-452.5 187.5h-240v-560z" />
    <glyph glyph-name="Ntilde" unicode="&#xd1;" horiz-adv-x="1440" 
d="M240 80q0 -33 -23.5 -56.5t-56.5 -23.5t-56.5 23.5t-23.5 56.5v1440q0 33 23.5 56.5t56.5 23.5q36 0 62 -29l978 -1258v1207q0 33 23.5 56.5t56.5 23.5t56.5 -23.5t23.5 -56.5v-1440q0 -33 -23.5 -56.5t-56.5 -23.5q-35 0 -60 26l-980 1260v-1206zM769 1801
q-90 -80 -212 -80q-133 0 -227 94q-22 24 -22 56q0 33 23.5 56.5t56.5 23.5q32 0 56 -22q47 -48 113 -48q56 0 100 35q89 80 212 80q133 0 227 -94q22 -24 22 -56q0 -33 -23.5 -56.5t-56.5 -23.5q-32 0 -56 22q-47 48 -113 48q-57 0 -100 -35z" />
    <glyph glyph-name="Ograve" unicode="&#xd2;" horiz-adv-x="1760" 
d="M880 1440q-265 0 -452.5 -187.5t-187.5 -452.5t187.5 -452.5t452.5 -187.5t452.5 187.5t187.5 452.5t-187.5 452.5t-452.5 187.5zM1680 800q0 -331 -234.5 -565.5t-565.5 -234.5t-565.5 234.5t-234.5 565.5t234.5 565.5t565.5 234.5t565.5 -234.5t234.5 -565.5zM693 2000
q0 33 23.5 56.5t56.5 23.5t57 -23l243 -243q20 -23 20 -54q0 -33 -23.5 -56.5t-56.5 -23.5q-32 0 -55 21l-243 243q-22 24 -22 56z" />
    <glyph glyph-name="Oacute" unicode="&#xd3;" horiz-adv-x="1760" 
d="M880 1440q-265 0 -452.5 -187.5t-187.5 -452.5t187.5 -452.5t452.5 -187.5t452.5 187.5t187.5 452.5t-187.5 452.5t-452.5 187.5zM1680 800q0 -331 -234.5 -565.5t-565.5 -234.5t-565.5 234.5t-234.5 565.5t234.5 565.5t565.5 234.5t565.5 -234.5t234.5 -565.5z
M1055 1944l-243 -243q-23 -21 -55 -21q-33 0 -56.5 23.5t-23.5 56.5q0 31 20 54l243 243q24 23 57 23t56.5 -23.5t23.5 -56.5q0 -32 -22 -56z" />
    <glyph glyph-name="Ocircumflex" unicode="&#xd4;" horiz-adv-x="1760" 
d="M880 1440q-265 0 -452.5 -187.5t-187.5 -452.5t187.5 -452.5t452.5 -187.5t452.5 187.5t187.5 452.5t-187.5 452.5t-452.5 187.5zM1680 800q0 -331 -234.5 -565.5t-565.5 -234.5t-565.5 234.5t-234.5 565.5t234.5 565.5t565.5 234.5t565.5 -234.5t234.5 -565.5zM921 2029
l239 -159q40 -30 40 -70q0 -33 -23.5 -56.5t-56.5 -23.5q-29 0 -50 17l-190 126l-190 -126q-21 -17 -50 -17q-33 0 -56.5 23.5t-23.5 56.5q0 40 40 70l239 159q18 11 41 11t41 -11z" />
    <glyph glyph-name="Otilde" unicode="&#xd5;" horiz-adv-x="1760" 
d="M880 1440q-265 0 -452.5 -187.5t-187.5 -452.5t187.5 -452.5t452.5 -187.5t452.5 187.5t187.5 452.5t-187.5 452.5t-452.5 187.5zM1680 800q0 -331 -234.5 -565.5t-565.5 -234.5t-565.5 234.5t-234.5 565.5t234.5 565.5t565.5 234.5t565.5 -234.5t234.5 -565.5zM929 1801
q-90 -80 -212 -80q-133 0 -227 94q-22 24 -22 56q0 33 23.5 56.5t56.5 23.5q32 0 56 -22q47 -48 113 -48q56 0 100 35q89 80 212 80q133 0 227 -94q22 -24 22 -56q0 -33 -23.5 -56.5t-56.5 -23.5q-32 0 -56 22q-47 48 -113 48q-57 0 -100 -35z" />
    <glyph glyph-name="Odieresis" unicode="&#xd6;" horiz-adv-x="1760" 
d="M880 1440q-265 0 -452.5 -187.5t-187.5 -452.5t187.5 -452.5t452.5 -187.5t452.5 187.5t187.5 452.5t-187.5 452.5t-452.5 187.5zM1680 800q0 -331 -234.5 -565.5t-565.5 -234.5t-565.5 234.5t-234.5 565.5t234.5 565.5t565.5 234.5t565.5 -234.5t234.5 -565.5zM740 1840
q0 -41 -29.5 -70.5t-70.5 -29.5t-70.5 29.5t-29.5 70.5t29.5 70.5t70.5 29.5t70.5 -29.5t29.5 -70.5zM1220 1840q0 -41 -29.5 -70.5t-70.5 -29.5t-70.5 29.5t-29.5 70.5t29.5 70.5t70.5 29.5t70.5 -29.5t29.5 -70.5z" />
    <glyph glyph-name="multiply" unicode="&#xd7;" horiz-adv-x="960" 
d="M366 720l-264 264q-22 24 -22 56q0 33 23.5 56.5t56.5 23.5t58 -24l262 -262l262 262q25 24 58 24t56.5 -23.5t23.5 -56.5q0 -32 -22 -56l-264 -264l264 -264q22 -24 22 -56q0 -33 -23.5 -56.5t-56.5 -23.5q-32 0 -55 21l-265 265l-265 -265q-23 -21 -55 -21
q-33 0 -56.5 23.5t-23.5 56.5q0 32 22 56z" />
    <glyph glyph-name="Oslash" unicode="&#xd8;" horiz-adv-x="1760" 
d="M1500 1306q180 -216 180 -506q0 -331 -234.5 -565.5t-565.5 -234.5q-290 0 -506 180l-157 -157q-24 -23 -57 -23t-56.5 23.5t-23.5 56.5q0 32 21 55l159 159q-180 216 -180 506q0 331 234.5 565.5t565.5 234.5q290 0 506 -180l157 157q24 23 57 23t56.5 -23.5t23.5 -56.5
q0 -29 -18 -51zM374 408l898 898q-168 134 -392 134q-265 0 -452.5 -187.5t-187.5 -452.5q0 -224 134 -392zM1386 1193l-898 -899q168 -134 392 -134q265 0 452.5 187.5t187.5 452.5q0 224 -134 393z" />
    <glyph glyph-name="Ugrave" unicode="&#xd9;" 
d="M80 1520q0 33 23.5 56.5t56.5 23.5t56.5 -23.5t23.5 -56.5v-960q0 -166 117 -283t283 -117t283 117t117 283v960q0 33 23.5 56.5t56.5 23.5t56.5 -23.5t23.5 -56.5v-960q0 -232 -164 -396t-396 -164t-396 164t-164 396v960zM373 2000q0 33 23.5 56.5t56.5 23.5t57 -23
l243 -243q20 -23 20 -54q0 -33 -23.5 -56.5t-56.5 -23.5q-32 0 -55 21l-243 243q-22 24 -22 56z" />
    <glyph glyph-name="Uacute" unicode="&#xda;" 
d="M80 1520q0 33 23.5 56.5t56.5 23.5t56.5 -23.5t23.5 -56.5v-960q0 -166 117 -283t283 -117t283 117t117 283v960q0 33 23.5 56.5t56.5 23.5t56.5 -23.5t23.5 -56.5v-960q0 -232 -164 -396t-396 -164t-396 164t-164 396v960zM885 1944l-243 -243q-23 -21 -55 -21
q-33 0 -56.5 23.5t-23.5 56.5q0 31 20 54l243 243q24 23 57 23t56.5 -23.5t23.5 -56.5q0 -32 -22 -56z" />
    <glyph glyph-name="Ucircumflex" unicode="&#xdb;" 
d="M80 1520q0 33 23.5 56.5t56.5 23.5t56.5 -23.5t23.5 -56.5v-960q0 -166 117 -283t283 -117t283 117t117 283v960q0 33 23.5 56.5t56.5 23.5t56.5 -23.5t23.5 -56.5v-960q0 -232 -164 -396t-396 -164t-396 164t-164 396v960zM681 2029l239 -159q40 -30 40 -70
q0 -33 -23.5 -56.5t-56.5 -23.5q-29 0 -50 17l-190 126l-190 -126q-21 -17 -50 -17q-33 0 -56.5 23.5t-23.5 56.5q0 40 40 70l239 159q18 11 41 11t41 -11z" />
    <glyph glyph-name="Udieresis" unicode="&#xdc;" 
d="M80 1520q0 33 23.5 56.5t56.5 23.5t56.5 -23.5t23.5 -56.5v-960q0 -166 117 -283t283 -117t283 117t117 283v960q0 33 23.5 56.5t56.5 23.5t56.5 -23.5t23.5 -56.5v-960q0 -232 -164 -396t-396 -164t-396 164t-164 396v960zM500 1840q0 -41 -29.5 -70.5t-70.5 -29.5
t-70.5 29.5t-29.5 70.5t29.5 70.5t70.5 29.5t70.5 -29.5t29.5 -70.5zM980 1840q0 -41 -29.5 -70.5t-70.5 -29.5t-70.5 29.5t-29.5 70.5t29.5 70.5t70.5 29.5t70.5 -29.5t29.5 -70.5z" />
    <glyph glyph-name="Yacute" unicode="&#xdd;" 
d="M720 80q0 -33 -23.5 -56.5t-56.5 -23.5t-56.5 23.5t-23.5 56.5v696l-467 699q-13 20 -13 45q0 33 23.5 56.5t56.5 23.5q41 0 65 -33l415 -622l415 622q24 33 65 33q33 0 56.5 -23.5t23.5 -56.5q0 -25 -13 -45l-467 -699v-696zM885 1944l-243 -243q-23 -21 -55 -21
q-33 0 -56.5 23.5t-23.5 56.5q0 31 20 54l243 243q24 23 57 23t56.5 -23.5t23.5 -56.5q0 -32 -22 -56z" />
    <glyph glyph-name="Thorn" unicode="&#xde;" 
d="M80 1520q0 33 23.5 56.5t56.5 23.5t56.5 -23.5t23.5 -56.5v-240h480q199 0 339.5 -140.5t140.5 -339.5t-140.5 -339.5t-339.5 -140.5h-480v-240q0 -33 -23.5 -56.5t-56.5 -23.5t-56.5 23.5t-23.5 56.5v1440zM720 480q133 0 226.5 93.5t93.5 226.5t-93.5 226.5
t-226.5 93.5h-480v-640h480z" />
    <glyph glyph-name="germandbls" unicode="&#xdf;" horiz-adv-x="1120" 
d="M240 80q0 -33 -23.5 -56.5t-56.5 -23.5t-56.5 23.5t-23.5 56.5v1120q0 166 117 283t283 117t283 -117t117 -283q0 -147 -92 -255q-25 -34 -25 -78q0 -77 56 -108q56 -28 104 -76q117 -117 117 -283t-117 -283t-283 -117t-283 117q-26 26 -26 59t23.5 56.5t56.5 23.5
t60 -25q70 -71 169 -71t169.5 70.5t70.5 169.5t-70 170q-29 28 -62.5 47t-63.5 50q-84 83 -84 201q0 107 72 188q48 62 48 144q0 99 -70.5 169.5t-169.5 70.5t-169 -70q-71 -71 -71 -170v-1120z" />
    <glyph glyph-name="agrave" unicode="&#xe0;" 
d="M640 960q-166 0 -283 -117t-117 -283t117 -283t283 -117t283 117t117 283t-117 283t-283 117zM1040 168q-168 -168 -400 -168t-396 164t-164 396t164 396t396 164t396 -164t164 -396v-480q0 -33 -23.5 -56.5t-56.5 -23.5t-56.5 23.5t-23.5 56.5v88zM400 1520
q0 33 23.5 56.5t56.5 23.5t57 -23l243 -243q20 -23 20 -54q0 -33 -23.5 -56.5t-56.5 -23.5q-32 0 -55 21l-243 243q-22 24 -22 56z" />
    <glyph glyph-name="aacute" unicode="&#xe1;" 
d="M640 960q-166 0 -283 -117t-117 -283t117 -283t283 -117t283 117t117 283t-117 283t-283 117zM1040 168q-168 -168 -400 -168t-396 164t-164 396t164 396t396 164t396 -164t164 -396v-480q0 -33 -23.5 -56.5t-56.5 -23.5t-56.5 23.5t-23.5 56.5v88zM858 1464l-243 -243
q-23 -21 -55 -21q-33 0 -56.5 23.5t-23.5 56.5q0 31 20 54l243 243q24 23 57 23t56.5 -23.5t23.5 -56.5q0 -32 -22 -56z" />
    <glyph glyph-name="acircumflex" unicode="&#xe2;" 
d="M640 960q-166 0 -283 -117t-117 -283t117 -283t283 -117t283 117t117 283t-117 283t-283 117zM1040 168q-168 -168 -400 -168t-396 164t-164 396t164 396t396 164t396 -164t164 -396v-480q0 -33 -23.5 -56.5t-56.5 -23.5t-56.5 23.5t-23.5 56.5v88zM681 1549l239 -159
q40 -30 40 -70q0 -33 -23.5 -56.5t-56.5 -23.5q-29 0 -50 17l-190 126l-190 -126q-21 -17 -50 -17q-33 0 -56.5 23.5t-23.5 56.5q0 40 40 70l239 159q18 11 41 11t41 -11z" />
    <glyph glyph-name="atilde" unicode="&#xe3;" 
d="M640 960q-166 0 -283 -117t-117 -283t117 -283t283 -117t283 117t117 283t-117 283t-283 117zM1040 168q-168 -168 -400 -168t-396 164t-164 396t164 396t396 164t396 -164t164 -396v-480q0 -33 -23.5 -56.5t-56.5 -23.5t-56.5 23.5t-23.5 56.5v88zM696 1321
q-90 -80 -212 -80q-133 0 -227 94q-22 24 -22 56q0 33 23.5 56.5t56.5 23.5q32 0 56 -22q47 -48 113 -48q56 0 100 35q89 80 212 80q133 0 227 -94q22 -24 22 -56q0 -33 -23.5 -56.5t-56.5 -23.5q-32 0 -56 22q-47 48 -113 48q-57 0 -100 -35z" />
    <glyph glyph-name="adieresis" unicode="&#xe4;" 
d="M640 960q-166 0 -283 -117t-117 -283t117 -283t283 -117t283 117t117 283t-117 283t-283 117zM1040 168q-168 -168 -400 -168t-396 164t-164 396t164 396t396 164t396 -164t164 -396v-480q0 -33 -23.5 -56.5t-56.5 -23.5t-56.5 23.5t-23.5 56.5v88zM500 1360
q0 -41 -29.5 -70.5t-70.5 -29.5t-70.5 29.5t-29.5 70.5t29.5 70.5t70.5 29.5t70.5 -29.5t29.5 -70.5zM980 1360q0 -41 -29.5 -70.5t-70.5 -29.5t-70.5 29.5t-29.5 70.5t29.5 70.5t70.5 29.5t70.5 -29.5t29.5 -70.5z" />
    <glyph glyph-name="aring" unicode="&#xe5;" 
d="M640 960q-166 0 -283 -117t-117 -283t117 -283t283 -117t283 117t117 283t-117 283t-283 117zM1040 168q-168 -168 -400 -168t-396 164t-164 396t164 396t396 164t396 -164t164 -396v-480q0 -33 -23.5 -56.5t-56.5 -23.5t-56.5 23.5t-23.5 56.5v88zM842 1399
q0 -84 -59 -143t-142 -59q-84 0 -143 59t-59 143q0 83 59 142t143 59q83 0 142 -59t59 -142zM641 1499q-42 0 -71.5 -29.5t-29.5 -70.5q0 -42 29.5 -71.5t71.5 -29.5q41 0 70.5 29.5t29.5 71.5q0 41 -29.5 70.5t-70.5 29.5z" />
    <glyph glyph-name="ae" unicode="&#xe6;" horiz-adv-x="2240" 
d="M640 960q-166 0 -283 -117t-117 -283t117 -283t283 -117t283 117t117 283t-117 283t-283 117zM1993 640q-22 115 -110 203q-117 117 -283 117t-283 -117q-88 -88 -110 -203h786zM1200 168v-88q0 -33 -23.5 -56.5t-56.5 -23.5t-56.5 23.5t-23.5 56.5v88
q-168 -168 -400 -168t-396 164t-164 396t164 396t396 164t396 -164q49 -49 84 -105q35 56 84 105q164 164 396 164t396 -164t164 -396q0 -33 -23.5 -56.5t-56.5 -23.5h-873q22 -115 110 -203q117 -117 283 -117q150 0 258 95q22 17 50 17q33 0 56.5 -23.5t23.5 -56.5
t-23 -57q-155 -135 -365 -135q-232 0 -400 168z" />
    <glyph glyph-name="ccedilla" unicode="&#xe7;" horiz-adv-x="1120" 
d="M950 274q33 0 56.5 -23.5t23.5 -56.5t-25 -59q-155 -135 -365 -135q-232 0 -396 164t-164 396t164 396t396 164q210 0 365 -135q28 -25 28 -62q0 -33 -23.5 -56.5t-56.5 -23.5q-29 0 -51 18q-112 99 -262 99q-166 0 -283 -117t-117 -283t117 -283t283 -117q150 0 261 98
q21 16 49 16zM541 57q23 23 56 23t56.5 -23.5t23.5 -56.5q0 -10 -2 -19l-17 -60q37 -15 69 -41q70 -61 70 -150t-70.5 -149.5t-169.5 -60.5q-59 0 -114 29l-91 54q-35 29 -35 67q0 33 23.5 56.5t56.5 23.5q24 0 43 -12l78 -48q19 -10 39 -10q33 0 56.5 13.5t23.5 36.5
t-23.5 36.5t-56.5 13.5t-56.5 23.5t-23.5 56.5q0 14 4 26l39 137q6 19 21 34z" />
    <glyph glyph-name="egrave" unicode="&#xe8;" 
d="M1033 640q-22 115 -110 203q-117 117 -283 117t-283 -117q-88 -88 -110 -203h786zM948 272q33 0 56.5 -23.5t23.5 -56.5t-23 -57q-155 -135 -365 -135q-232 0 -396 164t-164 396t164 396t396 164t396 -164t164 -396q0 -33 -23.5 -56.5t-56.5 -23.5h-873q22 -115 110 -203
q117 -117 283 -117q150 0 258 95q22 17 50 17zM400 1520q0 33 23.5 56.5t56.5 23.5t57 -23l243 -243q20 -23 20 -54q0 -33 -23.5 -56.5t-56.5 -23.5q-32 0 -55 21l-243 243q-22 24 -22 56z" />
    <glyph glyph-name="eacute" unicode="&#xe9;" 
d="M1033 640q-22 115 -110 203q-117 117 -283 117t-283 -117q-88 -88 -110 -203h786zM948 272q33 0 56.5 -23.5t23.5 -56.5t-23 -57q-155 -135 -365 -135q-232 0 -396 164t-164 396t164 396t396 164t396 -164t164 -396q0 -33 -23.5 -56.5t-56.5 -23.5h-873q22 -115 110 -203
q117 -117 283 -117q150 0 258 95q22 17 50 17zM858 1464l-243 -243q-23 -21 -55 -21q-33 0 -56.5 23.5t-23.5 56.5q0 31 20 54l243 243q24 23 57 23t56.5 -23.5t23.5 -56.5q0 -32 -22 -56z" />
    <glyph glyph-name="ecircumflex" unicode="&#xea;" 
d="M1033 640q-22 115 -110 203q-117 117 -283 117t-283 -117q-88 -88 -110 -203h786zM948 272q33 0 56.5 -23.5t23.5 -56.5t-23 -57q-155 -135 -365 -135q-232 0 -396 164t-164 396t164 396t396 164t396 -164t164 -396q0 -33 -23.5 -56.5t-56.5 -23.5h-873q22 -115 110 -203
q117 -117 283 -117q150 0 258 95q22 17 50 17zM681 1549l239 -159q40 -30 40 -70q0 -33 -23.5 -56.5t-56.5 -23.5q-29 0 -50 17l-190 126l-190 -126q-21 -17 -50 -17q-33 0 -56.5 23.5t-23.5 56.5q0 40 40 70l239 159q18 11 41 11t41 -11z" />
    <glyph glyph-name="edieresis" unicode="&#xeb;" 
d="M1033 640q-22 115 -110 203q-117 117 -283 117t-283 -117q-88 -88 -110 -203h786zM948 272q33 0 56.5 -23.5t23.5 -56.5t-23 -57q-155 -135 -365 -135q-232 0 -396 164t-164 396t164 396t396 164t396 -164t164 -396q0 -33 -23.5 -56.5t-56.5 -23.5h-873q22 -115 110 -203
q117 -117 283 -117q150 0 258 95q22 17 50 17zM500 1360q0 -41 -29.5 -70.5t-70.5 -29.5t-70.5 29.5t-29.5 70.5t29.5 70.5t70.5 29.5t70.5 -29.5t29.5 -70.5zM980 1360q0 -41 -29.5 -70.5t-70.5 -29.5t-70.5 29.5t-29.5 70.5t29.5 70.5t70.5 29.5t70.5 -29.5t29.5 -70.5z
" />
    <glyph glyph-name="igrave" unicode="&#xec;" horiz-adv-x="480" 
d="M160 1040q0 33 23.5 56.5t56.5 23.5t56.5 -23.5t23.5 -56.5v-960q0 -33 -23.5 -56.5t-56.5 -23.5t-56.5 23.5t-23.5 56.5v960zM1 1520q0 33 23.5 56.5t56.5 23.5t57 -23l243 -243q20 -23 20 -54q0 -33 -23.5 -56.5t-56.5 -23.5q-32 0 -55 21l-243 243q-22 24 -22 56z" />
    <glyph glyph-name="iacute" unicode="&#xed;" horiz-adv-x="480" 
d="M160 1040q0 33 23.5 56.5t56.5 23.5t56.5 -23.5t23.5 -56.5v-960q0 -33 -23.5 -56.5t-56.5 -23.5t-56.5 23.5t-23.5 56.5v960zM460 1464l-243 -243q-23 -21 -55 -21q-33 0 -56.5 23.5t-23.5 56.5q0 31 20 54l243 243q24 23 57 23t56.5 -23.5t23.5 -56.5q0 -32 -22 -56z
" />
    <glyph glyph-name="icircumflex" unicode="&#xee;" horiz-adv-x="560" 
d="M201 1040q0 33 23.5 56.5t56.5 23.5t56.5 -23.5t23.5 -56.5v-960q0 -33 -23.5 -56.5t-56.5 -23.5t-56.5 23.5t-23.5 56.5v960zM322 1549l239 -159q40 -30 40 -70q0 -33 -23.5 -56.5t-56.5 -23.5q-29 0 -50 17l-190 126l-190 -126q-21 -17 -50 -17q-33 0 -56.5 23.5
t-23.5 56.5q0 40 40 70l239 159q18 11 41 11t41 -11z" />
    <glyph glyph-name="idieresis" unicode="&#xef;" horiz-adv-x="600" 
d="M220 1040q0 33 23.5 56.5t56.5 23.5t56.5 -23.5t23.5 -56.5v-960q0 -33 -23.5 -56.5t-56.5 -23.5t-56.5 23.5t-23.5 56.5v960zM162 1360q0 -41 -29.5 -70.5t-70.5 -29.5t-70.5 29.5t-29.5 70.5t29.5 70.5t70.5 29.5t70.5 -29.5t29.5 -70.5zM642 1360q0 -41 -29.5 -70.5
t-70.5 -29.5t-70.5 29.5t-29.5 70.5t29.5 70.5t70.5 29.5t70.5 -29.5t29.5 -70.5z" />
    <glyph glyph-name="eth" unicode="&#xf0;" 
d="M640 960q-166 0 -283 -117t-117 -283t117 -283t283 -117t283 117t117 283t-117 283t-283 117zM606 1418l-34 58q-12 22 -12 44q0 33 23.5 56.5t56.5 23.5q46 0 68 -37l37 -63l136 79q28 17 60.5 8.5t48.5 -36.5q17 -29 8.5 -61t-36.5 -49l-137 -80l308 -532
q67 -121 67 -269q0 -232 -164 -396t-396 -164t-396 164t-164 396t164 396t396 164q79 0 150 -19l-104 179l-139 -81q-28 -17 -60.5 -8.5t-48.5 36.5q-17 29 -8.5 61t36.5 49z" />
    <glyph glyph-name="ntilde" unicode="&#xf1;" horiz-adv-x="1200" 
d="M80 1040q0 33 23.5 56.5t56.5 23.5t56.5 -23.5t23.5 -56.5v-65q150 145 360 145q215 0 367.5 -152.5t152.5 -367.5v-520q0 -33 -23.5 -56.5t-56.5 -23.5t-56.5 23.5t-23.5 56.5v520q0 149 -105.5 254.5t-254.5 105.5t-254.5 -105.5t-105.5 -254.5v-520q0 -33 -23.5 -56.5
t-56.5 -23.5t-56.5 23.5t-23.5 56.5v960zM661 1321q-90 -80 -212 -80q-133 0 -227 94q-22 24 -22 56q0 33 23.5 56.5t56.5 23.5q32 0 56 -22q47 -48 113 -48q56 0 100 35q89 80 212 80q133 0 227 -94q22 -24 22 -56q0 -33 -23.5 -56.5t-56.5 -23.5q-32 0 -56 22
q-47 48 -113 48q-57 0 -100 -35z" />
    <glyph glyph-name="ograve" unicode="&#xf2;" 
d="M1200 560q0 -232 -164 -396t-396 -164t-396 164t-164 396t164 396t396 164t396 -164t164 -396zM640 960q-166 0 -283 -117t-117 -283t117 -283t283 -117t283 117t117 283t-117 283t-283 117zM400 1520q0 33 23.5 56.5t56.5 23.5t57 -23l243 -243q20 -23 20 -54
q0 -33 -23.5 -56.5t-56.5 -23.5q-32 0 -55 21l-243 243q-22 24 -22 56z" />
    <glyph glyph-name="oacute" unicode="&#xf3;" 
d="M1200 560q0 -232 -164 -396t-396 -164t-396 164t-164 396t164 396t396 164t396 -164t164 -396zM640 960q-166 0 -283 -117t-117 -283t117 -283t283 -117t283 117t117 283t-117 283t-283 117zM858 1464l-243 -243q-23 -21 -55 -21q-33 0 -56.5 23.5t-23.5 56.5q0 31 20 54
l243 243q24 23 57 23t56.5 -23.5t23.5 -56.5q0 -32 -22 -56z" />
    <glyph glyph-name="ocircumflex" unicode="&#xf4;" 
d="M1200 560q0 -232 -164 -396t-396 -164t-396 164t-164 396t164 396t396 164t396 -164t164 -396zM640 960q-166 0 -283 -117t-117 -283t117 -283t283 -117t283 117t117 283t-117 283t-283 117zM681 1549l239 -159q40 -30 40 -70q0 -33 -23.5 -56.5t-56.5 -23.5
q-29 0 -50 17l-190 126l-190 -126q-21 -17 -50 -17q-33 0 -56.5 23.5t-23.5 56.5q0 40 40 70l239 159q18 11 41 11t41 -11z" />
    <glyph glyph-name="otilde" unicode="&#xf5;" 
d="M1200 560q0 -232 -164 -396t-396 -164t-396 164t-164 396t164 396t396 164t396 -164t164 -396zM640 960q-166 0 -283 -117t-117 -283t117 -283t283 -117t283 117t117 283t-117 283t-283 117zM696 1321q-90 -80 -212 -80q-133 0 -227 94q-22 24 -22 56q0 33 23.5 56.5
t56.5 23.5q32 0 56 -22q47 -48 113 -48q56 0 100 35q89 80 212 80q133 0 227 -94q22 -24 22 -56q0 -33 -23.5 -56.5t-56.5 -23.5q-32 0 -56 22q-47 48 -113 48q-57 0 -100 -35z" />
    <glyph glyph-name="odieresis" unicode="&#xf6;" 
d="M1200 560q0 -232 -164 -396t-396 -164t-396 164t-164 396t164 396t396 164t396 -164t164 -396zM640 960q-166 0 -283 -117t-117 -283t117 -283t283 -117t283 117t117 283t-117 283t-283 117zM500 1360q0 -41 -29.5 -70.5t-70.5 -29.5t-70.5 29.5t-29.5 70.5t29.5 70.5
t70.5 29.5t70.5 -29.5t29.5 -70.5zM980 1360q0 -41 -29.5 -70.5t-70.5 -29.5t-70.5 29.5t-29.5 70.5t29.5 70.5t70.5 29.5t70.5 -29.5t29.5 -70.5z" />
    <glyph glyph-name="divide" unicode="&#xf7;" horiz-adv-x="960" 
d="M580 1020q0 -41 -29.5 -70.5t-70.5 -29.5t-70.5 29.5t-29.5 70.5t29.5 70.5t70.5 29.5t70.5 -29.5t29.5 -70.5zM160 640q-33 0 -56.5 23.5t-23.5 56.5t23.5 56.5t56.5 23.5h640q33 0 56.5 -23.5t23.5 -56.5t-23.5 -56.5t-56.5 -23.5h-640zM580 420q0 -41 -29.5 -70.5
t-70.5 -29.5t-70.5 29.5t-29.5 70.5t29.5 70.5t70.5 29.5t70.5 -29.5t29.5 -70.5z" />
    <glyph glyph-name="oslash" unicode="&#xf8;" 
d="M861 894q-97 66 -221 66q-166 0 -283 -117t-117 -283q0 -124 65 -221zM975 781l-556 -556q97 -65 221 -65q166 0 283 117t117 283q0 124 -65 221zM976 1009l85 85q26 26 59 26t56.5 -23.5t23.5 -56.5q0 -32 -22 -56l-89 -89q111 -144 111 -335q0 -232 -164 -396
t-396 -164q-191 0 -335 111l-88 -88q-24 -23 -57 -23t-56.5 23.5t-23.5 56.5q0 32 22 56l89 89q-111 144 -111 335q0 232 164 396t396 164q191 0 336 -111z" />
    <glyph glyph-name="ugrave" unicode="&#xf9;" horiz-adv-x="1200" 
d="M1120 80q0 -33 -23.5 -56.5t-56.5 -23.5t-56.5 23.5t-23.5 56.5v65q-150 -145 -360 -145q-215 0 -367.5 152.5t-152.5 367.5v520q0 33 23.5 56.5t56.5 23.5t56.5 -23.5t23.5 -56.5v-520q0 -149 105.5 -254.5t254.5 -105.5t254.5 105.5t105.5 254.5v520q0 33 23.5 56.5
t56.5 23.5t56.5 -23.5t23.5 -56.5v-960zM400 1520q0 33 23.5 56.5t56.5 23.5t57 -23l243 -243q20 -23 20 -54q0 -33 -23.5 -56.5t-56.5 -23.5q-32 0 -55 21l-243 243q-22 24 -22 56z" />
    <glyph glyph-name="uacute" unicode="&#xfa;" horiz-adv-x="1200" 
d="M1120 80q0 -33 -23.5 -56.5t-56.5 -23.5t-56.5 23.5t-23.5 56.5v65q-150 -145 -360 -145q-215 0 -367.5 152.5t-152.5 367.5v520q0 33 23.5 56.5t56.5 23.5t56.5 -23.5t23.5 -56.5v-520q0 -149 105.5 -254.5t254.5 -105.5t254.5 105.5t105.5 254.5v520q0 33 23.5 56.5
t56.5 23.5t56.5 -23.5t23.5 -56.5v-960zM778 1464l-243 -243q-23 -21 -55 -21q-33 0 -56.5 23.5t-23.5 56.5q0 31 20 54l243 243q24 23 57 23t56.5 -23.5t23.5 -56.5q0 -32 -22 -56z" />
    <glyph glyph-name="ucircumflex" unicode="&#xfb;" horiz-adv-x="1200" 
d="M1120 80q0 -33 -23.5 -56.5t-56.5 -23.5t-56.5 23.5t-23.5 56.5v65q-150 -145 -360 -145q-215 0 -367.5 152.5t-152.5 367.5v520q0 33 23.5 56.5t56.5 23.5t56.5 -23.5t23.5 -56.5v-520q0 -149 105.5 -254.5t254.5 -105.5t254.5 105.5t105.5 254.5v520q0 33 23.5 56.5
t56.5 23.5t56.5 -23.5t23.5 -56.5v-960zM641 1549l239 -159q40 -30 40 -70q0 -33 -23.5 -56.5t-56.5 -23.5q-29 0 -50 17l-190 126l-190 -126q-21 -17 -50 -17q-33 0 -56.5 23.5t-23.5 56.5q0 40 40 70l239 159q18 11 41 11t41 -11z" />
    <glyph glyph-name="udieresis" unicode="&#xfc;" horiz-adv-x="1200" 
d="M1120 80q0 -33 -23.5 -56.5t-56.5 -23.5t-56.5 23.5t-23.5 56.5v65q-150 -145 -360 -145q-215 0 -367.5 152.5t-152.5 367.5v520q0 33 23.5 56.5t56.5 23.5t56.5 -23.5t23.5 -56.5v-520q0 -149 105.5 -254.5t254.5 -105.5t254.5 105.5t105.5 254.5v520q0 33 23.5 56.5
t56.5 23.5t56.5 -23.5t23.5 -56.5v-960zM460 1360q0 -41 -29.5 -70.5t-70.5 -29.5t-70.5 29.5t-29.5 70.5t29.5 70.5t70.5 29.5t70.5 -29.5t29.5 -70.5zM940 1360q0 -41 -29.5 -70.5t-70.5 -29.5t-70.5 29.5t-29.5 70.5t29.5 70.5t70.5 29.5t70.5 -29.5t29.5 -70.5z" />
    <glyph glyph-name="yacute" unicode="&#xfd;" horiz-adv-x="1120" 
d="M473 81l-384 922q-9 17 -9 37q0 33 23.5 56.5t56.5 23.5t57 -23q13 -14 19 -30l324 -777l324 777q6 16 20 30q23 23 56 23t56.5 -23.5t23.5 -56.5q0 -20 -9 -37l-596 -1430q-6 -16 -19 -29q-24 -24 -57 -24t-56.5 23.5t-23.5 56.5q0 20 9 37zM805 1464l-243 -243
q-23 -21 -55 -21q-33 0 -56.5 23.5t-23.5 56.5q0 31 20 54l243 243q24 23 57 23t56.5 -23.5t23.5 -56.5q0 -32 -22 -56z" />
    <glyph glyph-name="thorn" unicode="&#xfe;" 
d="M240 562q0 -166 117 -283t283 -117t283 117t117 283t-117 283t-283 117t-283 -117t-117 -283zM240 954q168 168 400 168t396 -164t164 -396t-164 -396t-396 -164t-400 168v-570q0 -33 -23.5 -56.5t-56.5 -23.5t-56.5 23.5t-23.5 56.5v1922q0 33 23.5 56.5t56.5 23.5
t56.5 -23.5t23.5 -56.5v-568z" />
    <glyph glyph-name="ydieresis" unicode="&#xff;" horiz-adv-x="1120" 
d="M473 81l-384 922q-9 17 -9 37q0 33 23.5 56.5t56.5 23.5t57 -23q13 -14 19 -30l324 -777l324 777q6 16 20 30q23 23 56 23t56.5 -23.5t23.5 -56.5q0 -20 -9 -37l-596 -1430q-6 -16 -19 -29q-24 -24 -57 -24t-56.5 23.5t-23.5 56.5q0 20 9 37zM420 1360q0 -41 -29.5 -70.5
t-70.5 -29.5t-70.5 29.5t-29.5 70.5t29.5 70.5t70.5 29.5t70.5 -29.5t29.5 -70.5zM900 1360q0 -41 -29.5 -70.5t-70.5 -29.5t-70.5 29.5t-29.5 70.5t29.5 70.5t70.5 29.5t70.5 -29.5t29.5 -70.5z" />
    <glyph glyph-name="Amacron" unicode="&#x100;" horiz-adv-x="1440" 
d="M433 560l-199 -511q-6 -14 -17 -26q-24 -23 -57 -23t-56.5 23.5t-23.5 56.5q0 19 7 34l556 1430q6 18 21 33q23 23 56 23t57 -23q14 -15 20 -33l556 -1430q7 -15 7 -34q0 -33 -23.5 -56.5t-56.5 -23.5t-56 23q-12 12 -18 26l-199 511h-574zM945 720l-225 579l-225 -579
h450zM480 1760q-33 0 -56.5 23.5t-23.5 56.5t23.5 56.5t56.5 23.5h480q33 0 56.5 -23.5t23.5 -56.5t-23.5 -56.5t-56.5 -23.5h-480z" />
    <glyph glyph-name="amacron" unicode="&#x101;" 
d="M640 960q-166 0 -283 -117t-117 -283t117 -283t283 -117t283 117t117 283t-117 283t-283 117zM1040 168q-168 -168 -400 -168t-396 164t-164 396t164 396t396 164t396 -164t164 -396v-480q0 -33 -23.5 -56.5t-56.5 -23.5t-56.5 23.5t-23.5 56.5v88zM400 1280
q-33 0 -56.5 23.5t-23.5 56.5t23.5 56.5t56.5 23.5h480q33 0 56.5 -23.5t23.5 -56.5t-23.5 -56.5t-56.5 -23.5h-480z" />
    <glyph glyph-name="Abreve" unicode="&#x102;" horiz-adv-x="1440" 
d="M433 560l-199 -511q-6 -14 -17 -26q-24 -23 -57 -23t-56.5 23.5t-23.5 56.5q0 19 7 34l556 1430q6 18 21 33q23 23 56 23t57 -23q14 -15 20 -33l556 -1430q7 -15 7 -34q0 -33 -23.5 -56.5t-56.5 -23.5t-56 23q-12 12 -18 26l-199 511h-574zM945 720l-225 579l-225 -579
h450zM406 1960q0 33 23.5 56.5t56.5 23.5t56.5 -23.5t23.5 -56.5t47 -56.5t113 -23.5t113.5 23.5t47.5 56.5t23.5 56.5t56.5 23.5t56.5 -23.5t23.5 -56.5q-5 -105 -94 -169q-94 -71 -227 -71t-226.5 70.5t-93.5 169.5z" />
    <glyph glyph-name="abreve" unicode="&#x103;" 
d="M640 960q-166 0 -283 -117t-117 -283t117 -283t283 -117t283 117t117 283t-117 283t-283 117zM1040 168q-168 -168 -400 -168t-396 164t-164 396t164 396t396 164t396 -164t164 -396v-480q0 -33 -23.5 -56.5t-56.5 -23.5t-56.5 23.5t-23.5 56.5v88zM326 1480
q0 33 23.5 56.5t56.5 23.5t56.5 -23.5t23.5 -56.5t47 -56.5t113 -23.5t113.5 23.5t47.5 56.5t23.5 56.5t56.5 23.5t56.5 -23.5t23.5 -56.5q-5 -105 -94 -169q-94 -71 -227 -71t-226.5 70.5t-93.5 169.5z" />
    <glyph glyph-name="Aogonek" unicode="&#x104;" horiz-adv-x="1520" 
d="M433 560l-199 -511q-6 -14 -17 -26q-24 -23 -57 -23t-56.5 23.5t-23.5 56.5q0 19 7 34l556 1430q6 18 21 33q23 23 56 23t57 -23q14 -15 20 -33l556 -1430q7 -15 7 -34q0 -33 -23.5 -56.5t-56.5 -23.5t-56 23q-12 12 -18 26l-199 511h-574zM945 720l-225 579l-225 -579
h450zM1211 116q20 40 70 41q33 0 57 -23q22 -23 23 -54q0 -13 -2 -23q-15 -73 -123 -151q-35 -28 -35 -66q0 -33 23.5 -56.5t56.5 -23.5q24 0 43 13l69 51q21 16 48 16q33 0 56.5 -23.5t23.5 -56.5q0 -40 -28 -62l-80 -56q-61 -42 -132 -42q-99 0 -169.5 70.5t-70.5 169.5
q0 116 102 196q53 44 68 80z" />
    <glyph glyph-name="aogonek" unicode="&#x105;" horiz-adv-x="1360" 
d="M640 960q-166 0 -283 -117t-117 -283t117 -283t283 -117t283 117t117 283t-117 283t-283 117zM1040 168q-168 -168 -400 -168t-396 164t-164 396t164 396t396 164t396 -164t164 -396v-480q0 -33 -23.5 -56.5t-56.5 -23.5t-56.5 23.5t-23.5 56.5v88zM1050 116q20 40 70 41
q33 0 57 -23q22 -23 23 -54q0 -13 -2 -23q-15 -73 -123 -151q-35 -28 -35 -66q0 -33 23.5 -56.5t56.5 -23.5q24 0 43 13l69 51q21 16 48 16q33 0 56.5 -23.5t23.5 -56.5q0 -40 -28 -62l-80 -56q-61 -42 -132 -42q-99 0 -169.5 70.5t-70.5 169.5q0 116 102 196q53 44 68 80z
" />
    <glyph glyph-name="Cacute" unicode="&#x106;" horiz-adv-x="1480" 
d="M1326 314q33 0 56.5 -23.5t23.5 -56.5t-23 -56q-223 -178 -503 -178q-331 0 -565.5 234.5t-234.5 565.5t234.5 565.5t565.5 234.5q286 0 509 -183q23 -24 23 -57t-23.5 -56.5t-56.5 -23.5t-57 24q-169 136 -395 136q-265 0 -452.5 -187.5t-187.5 -452.5t187.5 -452.5
t452.5 -187.5q229 0 400 140q20 14 46 14zM1099 1944l-243 -243q-23 -21 -55 -21q-33 0 -56.5 23.5t-23.5 56.5q0 31 20 54l243 243q24 23 57 23t56.5 -23.5t23.5 -56.5q0 -32 -22 -56z" />
    <glyph glyph-name="cacute" unicode="&#x107;" horiz-adv-x="1120" 
d="M950 274q33 0 56.5 -23.5t23.5 -56.5t-25 -59q-155 -135 -365 -135q-232 0 -396 164t-164 396t164 396t396 164q210 0 365 -135q28 -25 28 -62q0 -33 -23.5 -56.5t-56.5 -23.5q-29 0 -51 18q-112 99 -262 99q-166 0 -283 -117t-117 -283t117 -283t283 -117q150 0 261 98
q21 16 49 16zM857 1464l-243 -243q-23 -21 -55 -21q-33 0 -56.5 23.5t-23.5 56.5q0 31 20 54l243 243q24 23 57 23t56.5 -23.5t23.5 -56.5q0 -32 -22 -56z" />
    <glyph glyph-name="Ccircumflex" unicode="&#x108;" horiz-adv-x="1480" 
d="M1326 314q33 0 56.5 -23.5t23.5 -56.5t-23 -56q-223 -178 -503 -178q-331 0 -565.5 234.5t-234.5 565.5t234.5 565.5t565.5 234.5q286 0 509 -183q23 -24 23 -57t-23.5 -56.5t-56.5 -23.5t-57 24q-169 136 -395 136q-265 0 -452.5 -187.5t-187.5 -452.5t187.5 -452.5
t452.5 -187.5q229 0 400 140q20 14 46 14zM922 2029l239 -159q40 -30 40 -70q0 -33 -23.5 -56.5t-56.5 -23.5q-29 0 -50 17l-190 126l-190 -126q-21 -17 -50 -17q-33 0 -56.5 23.5t-23.5 56.5q0 40 40 70l239 159q18 11 41 11t41 -11z" />
    <glyph glyph-name="ccircumflex" unicode="&#x109;" horiz-adv-x="1120" 
d="M950 274q33 0 56.5 -23.5t23.5 -56.5t-25 -59q-155 -135 -365 -135q-232 0 -396 164t-164 396t164 396t396 164q210 0 365 -135q28 -25 28 -62q0 -33 -23.5 -56.5t-56.5 -23.5q-29 0 -51 18q-112 99 -262 99q-166 0 -283 -117t-117 -283t117 -283t283 -117q150 0 261 98
q21 16 49 16zM682 1549l239 -159q40 -30 40 -70q0 -33 -23.5 -56.5t-56.5 -23.5q-29 0 -50 17l-190 126l-190 -126q-21 -17 -50 -17q-33 0 -56.5 23.5t-23.5 56.5q0 40 40 70l239 159q18 11 41 11t41 -11z" />
    <glyph glyph-name="Cdotaccent" unicode="&#x10a;" horiz-adv-x="1480" 
d="M1326 314q33 0 56.5 -23.5t23.5 -56.5t-23 -56q-223 -178 -503 -178q-331 0 -565.5 234.5t-234.5 565.5t234.5 565.5t565.5 234.5q286 0 509 -183q23 -24 23 -57t-23.5 -56.5t-56.5 -23.5t-57 24q-169 136 -395 136q-265 0 -452.5 -187.5t-187.5 -452.5t187.5 -452.5
t452.5 -187.5q229 0 400 140q20 14 46 14zM999 1841q0 -50 -35 -85t-85 -35t-85 35t-35 85t35 85t85 35t85 -35t35 -85z" />
    <glyph glyph-name="cdotaccent" unicode="&#x10b;" horiz-adv-x="1120" 
d="M950 274q33 0 56.5 -23.5t23.5 -56.5t-25 -59q-155 -135 -365 -135q-232 0 -396 164t-164 396t164 396t396 164q210 0 365 -135q28 -25 28 -62q0 -33 -23.5 -56.5t-56.5 -23.5q-29 0 -51 18q-112 99 -262 99q-166 0 -283 -117t-117 -283t117 -283t283 -117q150 0 261 98
q21 16 49 16zM760 1361q0 -50 -35 -85t-85 -35t-85 35t-35 85t35 85t85 35t85 -35t35 -85z" />
    <glyph glyph-name="Ccaron" unicode="&#x10c;" horiz-adv-x="1480" 
d="M1326 314q33 0 56.5 -23.5t23.5 -56.5t-23 -56q-223 -178 -503 -178q-331 0 -565.5 234.5t-234.5 565.5t234.5 565.5t565.5 234.5q286 0 509 -183q23 -24 23 -57t-23.5 -56.5t-56.5 -23.5t-57 24q-169 136 -395 136q-265 0 -452.5 -187.5t-187.5 -452.5t187.5 -452.5
t452.5 -187.5q229 0 400 140q20 14 46 14zM879 1720q-23 0 -41 11l-239 159q-40 30 -40 70q0 33 23.5 56.5t56.5 23.5q29 0 50 -17l190 -126l190 126q21 17 50 17q33 0 56.5 -23.5t23.5 -56.5q0 -40 -40 -70l-239 -159q-18 -11 -41 -11z" />
    <glyph glyph-name="ccaron" unicode="&#x10d;" horiz-adv-x="1120" 
d="M950 274q33 0 56.5 -23.5t23.5 -56.5t-25 -59q-155 -135 -365 -135q-232 0 -396 164t-164 396t164 396t396 164q210 0 365 -135q28 -25 28 -62q0 -33 -23.5 -56.5t-56.5 -23.5q-29 0 -51 18q-112 99 -262 99q-166 0 -283 -117t-117 -283t117 -283t283 -117q150 0 261 98
q21 16 49 16zM637 1240q-23 0 -41 11l-239 159q-40 30 -40 70q0 33 23.5 56.5t56.5 23.5q29 0 50 -17l190 -126l190 126q21 17 50 17q33 0 56.5 -23.5t23.5 -56.5q0 -40 -40 -70l-239 -159q-18 -11 -41 -11z" />
    <glyph glyph-name="Dcaron" unicode="&#x10e;" horiz-adv-x="1360" 
d="M480 160q265 0 452.5 187.5t187.5 452.5t-187.5 452.5t-452.5 187.5h-240v-1280h240zM480 1600q331 0 565.5 -234.5t234.5 -565.5t-234.5 -565.5t-565.5 -234.5h-320q-33 0 -56.5 23.5t-23.5 56.5v1440q0 33 23.5 56.5t56.5 23.5h320zM560 1720q-23 0 -41 11l-239 159
q-40 30 -40 70q0 33 23.5 56.5t56.5 23.5q29 0 50 -17l190 -126l190 126q21 17 50 17q33 0 56.5 -23.5t23.5 -56.5q0 -40 -40 -70l-239 -159q-18 -11 -41 -11z" />
    <glyph glyph-name="dcaron" unicode="&#x10f;" horiz-adv-x="1600" 
d="M1040 560q0 166 -117 283t-283 117t-283 -117t-117 -283t117 -283t283 -117t283 117t117 283zM1040 1522q0 33 23.5 56.5t56.5 23.5t56.5 -23.5t23.5 -56.5v-962q0 -232 -164 -396t-396 -164t-396 164t-164 396t164 396t396 164t396 -164l4 -4v570zM1280 1500
q0 41 29.5 70.5t70.5 29.5q62 0 90 -58q63 -112 63 -227q0 -175 -152 -358q-17 -17 -42 -17q-24 0 -41.5 17.5t-17.5 41.5q0 14 5 26q98 237 3 435q-8 18 -8 40z" />
    <glyph glyph-name="Dcroat" unicode="&#x110;" horiz-adv-x="1520" 
d="M239 880v640q0 33 23.5 56.5t56.5 23.5h320q331 0 565.5 -234.5t234.5 -565.5t-234.5 -565.5t-565.5 -234.5h-320q-33 0 -56.5 23.5t-23.5 56.5v640h-159q-33 0 -56.5 23.5t-23.5 56.5t23.5 56.5t56.5 23.5h159zM399 880h320q33 0 56.5 -23.5t23.5 -56.5t-23.5 -56.5
t-56.5 -23.5h-320v-560h240q265 0 452.5 187.5t187.5 452.5t-187.5 452.5t-452.5 187.5h-240v-560z" />
    <glyph glyph-name="dcroat" unicode="&#x111;" horiz-adv-x="1440" 
d="M1040 560q0 166 -117 283t-283 117t-283 -117t-117 -283t117 -283t283 -117t283 117t117 283zM1040 1440v82q0 33 23.5 56.5t56.5 23.5t56.5 -23.5t23.5 -56.5v-82h80q33 0 56.5 -23.5t23.5 -56.5t-23.5 -56.5t-56.5 -23.5h-80v-720q0 -232 -164 -396t-396 -164t-396 164
t-164 396t164 396t396 164t396 -164l4 -4v328h-320q-33 0 -56.5 23.5t-23.5 56.5t23.5 56.5t56.5 23.5h320z" />
    <glyph glyph-name="Emacron" unicode="&#x112;" 
d="M160 1600h960q33 0 56.5 -23.5t23.5 -56.5t-23.5 -56.5t-56.5 -23.5h-880v-560h640q33 0 56.5 -23.5t23.5 -56.5t-23.5 -56.5t-56.5 -23.5h-640v-560h880q33 0 56.5 -23.5t23.5 -56.5t-23.5 -56.5t-56.5 -23.5h-960q-33 0 -56.5 23.5t-23.5 56.5v1440q0 33 23.5 56.5
t56.5 23.5zM401 1760q-33 0 -56.5 23.5t-23.5 56.5t23.5 56.5t56.5 23.5h480q33 0 56.5 -23.5t23.5 -56.5t-23.5 -56.5t-56.5 -23.5h-480z" />
    <glyph glyph-name="emacron" unicode="&#x113;" 
d="M1033 640q-22 115 -110 203q-117 117 -283 117t-283 -117q-88 -88 -110 -203h786zM948 272q33 0 56.5 -23.5t23.5 -56.5t-23 -57q-155 -135 -365 -135q-232 0 -396 164t-164 396t164 396t396 164t396 -164t164 -396q0 -33 -23.5 -56.5t-56.5 -23.5h-873q22 -115 110 -203
q117 -117 283 -117q150 0 258 95q22 17 50 17zM400 1280q-33 0 -56.5 23.5t-23.5 56.5t23.5 56.5t56.5 23.5h480q33 0 56.5 -23.5t23.5 -56.5t-23.5 -56.5t-56.5 -23.5h-480z" />
    <glyph glyph-name="Ebreve" unicode="&#x114;" 
d="M160 1600h960q33 0 56.5 -23.5t23.5 -56.5t-23.5 -56.5t-56.5 -23.5h-880v-560h640q33 0 56.5 -23.5t23.5 -56.5t-23.5 -56.5t-56.5 -23.5h-640v-560h880q33 0 56.5 -23.5t23.5 -56.5t-23.5 -56.5t-56.5 -23.5h-960q-33 0 -56.5 23.5t-23.5 56.5v1440q0 33 23.5 56.5
t56.5 23.5zM326 1960q0 33 23.5 56.5t56.5 23.5t56.5 -23.5t23.5 -56.5t47 -56.5t113 -23.5t113.5 23.5t47.5 56.5t23.5 56.5t56.5 23.5t56.5 -23.5t23.5 -56.5q-5 -105 -94 -169q-94 -71 -227 -71t-226.5 70.5t-93.5 169.5z" />
    <glyph glyph-name="ebreve" unicode="&#x115;" 
d="M1033 640q-22 115 -110 203q-117 117 -283 117t-283 -117q-88 -88 -110 -203h786zM948 272q33 0 56.5 -23.5t23.5 -56.5t-23 -57q-155 -135 -365 -135q-232 0 -396 164t-164 396t164 396t396 164t396 -164t164 -396q0 -33 -23.5 -56.5t-56.5 -23.5h-873q22 -115 110 -203
q117 -117 283 -117q150 0 258 95q22 17 50 17zM326 1480q0 33 23.5 56.5t56.5 23.5t56.5 -23.5t23.5 -56.5t47 -56.5t113 -23.5t113.5 23.5t47.5 56.5t23.5 56.5t56.5 23.5t56.5 -23.5t23.5 -56.5q-5 -105 -94 -169q-94 -71 -227 -71t-226.5 70.5t-93.5 169.5z" />
    <glyph glyph-name="Edotaccent" unicode="&#x116;" 
d="M160 1600h960q33 0 56.5 -23.5t23.5 -56.5t-23.5 -56.5t-56.5 -23.5h-880v-560h640q33 0 56.5 -23.5t23.5 -56.5t-23.5 -56.5t-56.5 -23.5h-640v-560h880q33 0 56.5 -23.5t23.5 -56.5t-23.5 -56.5t-56.5 -23.5h-960q-33 0 -56.5 23.5t-23.5 56.5v1440q0 33 23.5 56.5
t56.5 23.5zM761 1841q0 -50 -35 -85t-85 -35t-85 35t-35 85t35 85t85 35t85 -35t35 -85z" />
    <glyph glyph-name="edotaccent" unicode="&#x117;" 
d="M1033 640q-22 115 -110 203q-117 117 -283 117t-283 -117q-88 -88 -110 -203h786zM948 272q33 0 56.5 -23.5t23.5 -56.5t-23 -57q-155 -135 -365 -135q-232 0 -396 164t-164 396t164 396t396 164t396 -164t164 -396q0 -33 -23.5 -56.5t-56.5 -23.5h-873q22 -115 110 -203
q117 -117 283 -117q150 0 258 95q22 17 50 17zM760 1361q0 -50 -35 -85t-85 -35t-85 35t-35 85t35 85t85 35t85 -35t35 -85z" />
    <glyph glyph-name="Eogonek" unicode="&#x118;" 
d="M160 1600h960q33 0 56.5 -23.5t23.5 -56.5t-23.5 -56.5t-56.5 -23.5h-880v-560h640q33 0 56.5 -23.5t23.5 -56.5t-23.5 -56.5t-56.5 -23.5h-640v-560h880q33 0 56.5 -23.5t23.5 -56.5t-23.5 -56.5t-56.5 -23.5h-960q-33 0 -56.5 23.5t-23.5 56.5v1440q0 33 23.5 56.5
t56.5 23.5zM891 36q20 40 70 41q33 0 57 -23q22 -23 23 -54q0 -13 -2 -23q-15 -73 -123 -151q-35 -28 -35 -66q0 -33 23.5 -56.5t56.5 -23.5q24 0 43 13l69 51q21 16 48 16q33 0 56.5 -23.5t23.5 -56.5q0 -40 -28 -62l-80 -56q-61 -42 -132 -42q-99 0 -169.5 70.5
t-70.5 169.5q0 116 102 196q53 44 68 80z" />
    <glyph glyph-name="eogonek" unicode="&#x119;" 
d="M1033 640q-22 115 -110 203q-117 117 -283 117t-283 -117q-88 -88 -110 -203h786zM948 272q33 0 56.5 -23.5t23.5 -56.5t-23 -57q-155 -135 -365 -135q-232 0 -396 164t-164 396t164 396t396 164t396 -164t164 -396q0 -33 -23.5 -56.5t-56.5 -23.5h-873q22 -115 110 -203
q117 -117 283 -117q150 0 258 95q22 17 50 17zM570 36q20 40 70 41q33 0 57 -23q22 -23 23 -54q0 -13 -2 -23q-15 -73 -123 -151q-35 -28 -35 -66q0 -33 23.5 -56.5t56.5 -23.5q24 0 43 13l69 51q21 16 48 16q33 0 56.5 -23.5t23.5 -56.5q0 -40 -28 -62l-80 -56
q-61 -42 -132 -42q-99 0 -169.5 70.5t-70.5 169.5q0 116 102 196q53 44 68 80z" />
    <glyph glyph-name="Ecaron" unicode="&#x11a;" 
d="M160 1600h960q33 0 56.5 -23.5t23.5 -56.5t-23.5 -56.5t-56.5 -23.5h-880v-560h640q33 0 56.5 -23.5t23.5 -56.5t-23.5 -56.5t-56.5 -23.5h-640v-560h880q33 0 56.5 -23.5t23.5 -56.5t-23.5 -56.5t-56.5 -23.5h-960q-33 0 -56.5 23.5t-23.5 56.5v1440q0 33 23.5 56.5
t56.5 23.5zM641 1720q-23 0 -41 11l-239 159q-40 30 -40 70q0 33 23.5 56.5t56.5 23.5q29 0 50 -17l190 -126l190 126q21 17 50 17q33 0 56.5 -23.5t23.5 -56.5q0 -40 -40 -70l-239 -159q-18 -11 -41 -11z" />
    <glyph glyph-name="ecaron" unicode="&#x11b;" 
d="M1033 640q-22 115 -110 203q-117 117 -283 117t-283 -117q-88 -88 -110 -203h786zM948 272q33 0 56.5 -23.5t23.5 -56.5t-23 -57q-155 -135 -365 -135q-232 0 -396 164t-164 396t164 396t396 164t396 -164t164 -396q0 -33 -23.5 -56.5t-56.5 -23.5h-873q22 -115 110 -203
q117 -117 283 -117q150 0 258 95q22 17 50 17zM640 1240q-23 0 -41 11l-239 159q-40 30 -40 70q0 33 23.5 56.5t56.5 23.5q29 0 50 -17l190 -126l190 126q21 17 50 17q33 0 56.5 -23.5t23.5 -56.5q0 -40 -40 -70l-239 -159q-18 -11 -41 -11z" />
    <glyph glyph-name="Gcircumflex" unicode="&#x11c;" horiz-adv-x="1500" 
d="M1406 234q0 -33 -23 -56q-223 -178 -503 -178q-331 0 -565.5 234.5t-234.5 565.5t234.5 565.5t565.5 234.5q286 0 509 -183q23 -24 23 -57t-23.5 -56.5t-56.5 -23.5t-57 24q-169 136 -395 136q-265 0 -452.5 -187.5t-187.5 -452.5t187.5 -452.5t452.5 -187.5
q207 0 366 114v366h-316q-33 0 -56.5 23.5t-23.5 56.5t23.5 56.5t56.5 23.5h397q32 0 56 -23q23 -24 23 -57v-486zM921 2029l239 -159q40 -30 40 -70q0 -33 -23.5 -56.5t-56.5 -23.5q-29 0 -50 17l-190 126l-190 -126q-21 -17 -50 -17q-33 0 -56.5 23.5t-23.5 56.5
q0 40 40 70l239 159q18 11 41 11t41 -11z" />
    <glyph glyph-name="gcircumflex" unicode="&#x11d;" 
d="M640 960q-166 0 -283 -117t-117 -283t117 -283t283 -117t283 117t117 283t-117 283t-283 117zM1040 168l-4 -4q-164 -164 -396 -164t-396 164t-164 396t164 396t396 164t396 -164t164 -396v-560q0 -175 -126 -304q-176 -176 -425 -176t-424 176q-65 64 -106 139
q-12 18 -12 42q0 33 23.5 56.5t56.5 23.5t57 -23q10 -11 17 -24q30 -54 77 -101q129 -129 311 -129t311 129q80 96 80 191v168zM681 1549l239 -159q40 -30 40 -70q0 -33 -23.5 -56.5t-56.5 -23.5q-29 0 -50 17l-190 126l-190 -126q-21 -17 -50 -17q-33 0 -56.5 23.5
t-23.5 56.5q0 40 40 70l239 159q18 11 41 11t41 -11z" />
    <glyph glyph-name="Gbreve" unicode="&#x11e;" horiz-adv-x="1500" 
d="M1406 234q0 -33 -23 -56q-223 -178 -503 -178q-331 0 -565.5 234.5t-234.5 565.5t234.5 565.5t565.5 234.5q286 0 509 -183q23 -24 23 -57t-23.5 -56.5t-56.5 -23.5t-57 24q-169 136 -395 136q-265 0 -452.5 -187.5t-187.5 -452.5t187.5 -452.5t452.5 -187.5
q207 0 366 114v366h-316q-33 0 -56.5 23.5t-23.5 56.5t23.5 56.5t56.5 23.5h397q32 0 56 -23q23 -24 23 -57v-486zM565 1960q0 33 23.5 56.5t56.5 23.5t56.5 -23.5t23.5 -56.5t47 -56.5t113 -23.5t113.5 23.5t47.5 56.5t23.5 56.5t56.5 23.5t56.5 -23.5t23.5 -56.5
q-5 -105 -94 -169q-94 -71 -227 -71t-226.5 70.5t-93.5 169.5z" />
    <glyph glyph-name="gbreve" unicode="&#x11f;" 
d="M640 960q-166 0 -283 -117t-117 -283t117 -283t283 -117t283 117t117 283t-117 283t-283 117zM1040 168l-4 -4q-164 -164 -396 -164t-396 164t-164 396t164 396t396 164t396 -164t164 -396v-560q0 -175 -126 -304q-176 -176 -425 -176t-424 176q-65 64 -106 139
q-12 18 -12 42q0 33 23.5 56.5t56.5 23.5t57 -23q10 -11 17 -24q30 -54 77 -101q129 -129 311 -129t311 129q80 96 80 191v168zM326 1480q0 33 23.5 56.5t56.5 23.5t56.5 -23.5t23.5 -56.5t47 -56.5t113 -23.5t113.5 23.5t47.5 56.5t23.5 56.5t56.5 23.5t56.5 -23.5
t23.5 -56.5q-5 -105 -94 -169q-94 -71 -227 -71t-226.5 70.5t-93.5 169.5z" />
    <glyph glyph-name="Gdotaccent" unicode="&#x120;" horiz-adv-x="1500" 
d="M1406 234q0 -33 -23 -56q-223 -178 -503 -178q-331 0 -565.5 234.5t-234.5 565.5t234.5 565.5t565.5 234.5q286 0 509 -183q23 -24 23 -57t-23.5 -56.5t-56.5 -23.5t-57 24q-169 136 -395 136q-265 0 -452.5 -187.5t-187.5 -452.5t187.5 -452.5t452.5 -187.5
q207 0 366 114v366h-316q-33 0 -56.5 23.5t-23.5 56.5t23.5 56.5t56.5 23.5h397q32 0 56 -23q23 -24 23 -57v-486zM1000 1841q0 -50 -35 -85t-85 -35t-85 35t-35 85t35 85t85 35t85 -35t35 -85z" />
    <glyph glyph-name="gdotaccent" unicode="&#x121;" 
d="M640 960q-166 0 -283 -117t-117 -283t117 -283t283 -117t283 117t117 283t-117 283t-283 117zM1040 168l-4 -4q-164 -164 -396 -164t-396 164t-164 396t164 396t396 164t396 -164t164 -396v-560q0 -175 -126 -304q-176 -176 -425 -176t-424 176q-65 64 -106 139
q-12 18 -12 42q0 33 23.5 56.5t56.5 23.5t57 -23q10 -11 17 -24q30 -54 77 -101q129 -129 311 -129t311 129q80 96 80 191v168zM760 1361q0 -50 -35 -85t-85 -35t-85 35t-35 85t35 85t85 35t85 -35t35 -85z" />
    <glyph glyph-name="Gcommaaccent" unicode="&#x122;" horiz-adv-x="1500" 
d="M1406 234q0 -33 -23 -56q-223 -178 -503 -178q-331 0 -565.5 234.5t-234.5 565.5t234.5 565.5t565.5 234.5q286 0 509 -183q23 -24 23 -57t-23.5 -56.5t-56.5 -23.5t-57 24q-169 136 -395 136q-265 0 -452.5 -187.5t-187.5 -452.5t187.5 -452.5t452.5 -187.5
q207 0 366 114v366h-316q-33 0 -56.5 23.5t-23.5 56.5t23.5 56.5t56.5 23.5h397q32 0 56 -23q23 -24 23 -57v-486zM1051 -124q69 -56 69 -145t-70.5 -149.5t-169.5 -60.5q-59 0 -114 29l-91 54q-35 29 -35 67q0 33 23.5 56.5t56.5 23.5q24 0 43 -12l78 -48q19 -10 39 -10
q33 0 56.5 13.5t23.5 36.5t-23.5 36.5t-56.5 13.5t-56.5 23.5t-23.5 56.5q0 20 19 39q29 25 96 25q74 -4 136 -49z" />
    <glyph glyph-name="gcommaaccent" unicode="&#x123;" 
d="M640 960q-166 0 -283 -117t-117 -283t117 -283t283 -117t283 117t117 283t-117 283t-283 117zM1040 168l-4 -4q-164 -164 -396 -164t-396 164t-164 396t164 396t396 164t396 -164t164 -396v-560q0 -175 -126 -304q-176 -176 -425 -176t-424 176q-65 64 -106 139
q-12 18 -12 42q0 33 23.5 56.5t56.5 23.5t57 -23q10 -11 17 -24q30 -54 77 -101q129 -129 311 -129t311 129q80 96 80 191v168zM773 1300q0 -41 -29.5 -70.5t-70.5 -29.5q-62 0 -90 58q-63 112 -63 227q0 175 152 358q17 17 42 17q24 0 41.5 -17.5t17.5 -41.5q0 -14 -5 -26
q-98 -237 -3 -435q8 -18 8 -40z" />
    <glyph glyph-name="Hcircumflex" unicode="&#x124;" 
d="M80 1520q0 33 23.5 56.5t56.5 23.5t56.5 -23.5t23.5 -56.5v-640h800v640q0 33 23.5 56.5t56.5 23.5t56.5 -23.5t23.5 -56.5v-1440q0 -33 -23.5 -56.5t-56.5 -23.5t-56.5 23.5t-23.5 56.5v640h-800v-640q0 -33 -23.5 -56.5t-56.5 -23.5t-56.5 23.5t-23.5 56.5v1440z
M681 2029l239 -159q40 -30 40 -70q0 -33 -23.5 -56.5t-56.5 -23.5q-29 0 -50 17l-190 126l-190 -126q-21 -17 -50 -17q-33 0 -56.5 23.5t-23.5 56.5q0 40 40 70l239 159q18 11 41 11t41 -11z" />
    <glyph glyph-name="hcircumflex" unicode="&#x125;" horiz-adv-x="1200" 
d="M80 1520q0 33 23.5 56.5t56.5 23.5t56.5 -23.5t23.5 -56.5v-545q150 145 360 145q215 0 367.5 -152.5t152.5 -367.5v-520q0 -33 -23.5 -56.5t-56.5 -23.5t-56.5 23.5t-23.5 56.5v520q0 149 -105.5 254.5t-254.5 105.5t-254.5 -105.5t-105.5 -254.5v-520
q0 -33 -23.5 -56.5t-56.5 -23.5t-56.5 23.5t-23.5 56.5v1440zM641 2029l239 -159q40 -30 40 -70q0 -33 -23.5 -56.5t-56.5 -23.5q-29 0 -50 17l-190 126l-190 -126q-21 -17 -50 -17q-33 0 -56.5 23.5t-23.5 56.5q0 40 40 70l239 159q18 11 41 11t41 -11z" />
    <glyph glyph-name="Hbar" unicode="&#x126;" horiz-adv-x="1600" 
d="M240 1320v200q0 33 23.5 56.5t56.5 23.5t56.5 -23.5t23.5 -56.5v-200h800v200q0 33 23.5 56.5t56.5 23.5t56.5 -23.5t23.5 -56.5v-200h80q33 0 56.5 -23.5t23.5 -56.5t-23.5 -56.5t-56.5 -23.5h-80v-1080q0 -33 -23.5 -56.5t-56.5 -23.5t-56.5 23.5t-23.5 56.5v640h-800
v-640q0 -33 -23.5 -56.5t-56.5 -23.5t-56.5 23.5t-23.5 56.5v1080h-80q-33 0 -56.5 23.5t-23.5 56.5t23.5 56.5t56.5 23.5h80zM400 1160v-280h800v280h-800z" />
    <glyph glyph-name="hbar" unicode="&#x127;" horiz-adv-x="1320" 
d="M200 1440v80q0 33 23.5 56.5t56.5 23.5t56.5 -23.5t23.5 -56.5v-80h320q33 0 56.5 -23.5t23.5 -56.5t-23.5 -56.5t-56.5 -23.5h-320v-305q150 145 360 145q215 0 367.5 -152.5t152.5 -367.5v-520q0 -33 -23.5 -56.5t-56.5 -23.5t-56.5 23.5t-23.5 56.5v520
q0 149 -105.5 254.5t-254.5 105.5t-254.5 -105.5t-105.5 -254.5v-520q0 -33 -23.5 -56.5t-56.5 -23.5t-56.5 23.5t-23.5 56.5v1200h-80q-33 0 -56.5 23.5t-23.5 56.5t23.5 56.5t56.5 23.5h80z" />
    <glyph glyph-name="Itilde" unicode="&#x128;" horiz-adv-x="640" 
d="M240 1520q0 33 23.5 56.5t56.5 23.5t56.5 -23.5t23.5 -56.5v-1440q0 -33 -23.5 -56.5t-56.5 -23.5t-56.5 23.5t-23.5 56.5v1440zM377 1801q-90 -80 -212 -80q-133 0 -227 94q-22 24 -22 56q0 33 23.5 56.5t56.5 23.5q32 0 56 -22q47 -48 113 -48q56 0 100 35
q89 80 212 80q133 0 227 -94q22 -24 22 -56q0 -33 -23.5 -56.5t-56.5 -23.5q-32 0 -56 22q-47 48 -113 48q-57 0 -100 -35z" />
    <glyph glyph-name="itilde" unicode="&#x129;" horiz-adv-x="720" 
d="M280 1040q0 33 23.5 56.5t56.5 23.5t56.5 -23.5t23.5 -56.5v-960q0 -33 -23.5 -56.5t-56.5 -23.5t-56.5 23.5t-23.5 56.5v960zM417 1321q-90 -80 -212 -80q-133 0 -227 94q-22 24 -22 56q0 33 23.5 56.5t56.5 23.5q32 0 56 -22q47 -48 113 -48q56 0 100 35q89 80 212 80
q133 0 227 -94q22 -24 22 -56q0 -33 -23.5 -56.5t-56.5 -23.5q-32 0 -56 22q-47 48 -113 48q-57 0 -100 -35z" />
    <glyph glyph-name="Imacron" unicode="&#x12a;" horiz-adv-x="480" 
d="M160 1520q0 33 23.5 56.5t56.5 23.5t56.5 -23.5t23.5 -56.5v-1440q0 -33 -23.5 -56.5t-56.5 -23.5t-56.5 23.5t-23.5 56.5v1440zM1 1760q-33 0 -56.5 23.5t-23.5 56.5t23.5 56.5t56.5 23.5h480q33 0 56.5 -23.5t23.5 -56.5t-23.5 -56.5t-56.5 -23.5h-480z" />
    <glyph glyph-name="imacron" unicode="&#x12b;" horiz-adv-x="560" 
d="M200 1040q0 33 23.5 56.5t56.5 23.5t56.5 -23.5t23.5 -56.5v-960q0 -33 -23.5 -56.5t-56.5 -23.5t-56.5 23.5t-23.5 56.5v960zM41 1280q-33 0 -56.5 23.5t-23.5 56.5t23.5 56.5t56.5 23.5h480q33 0 56.5 -23.5t23.5 -56.5t-23.5 -56.5t-56.5 -23.5h-480z" />
    <glyph glyph-name="Ibreve" unicode="&#x12c;" horiz-adv-x="480" 
d="M156 1520q0 33 23.5 56.5t56.5 23.5t56.5 -23.5t23.5 -56.5v-1440q0 -33 -23.5 -56.5t-56.5 -23.5t-56.5 23.5t-23.5 56.5v1440zM-79 1960q0 33 23.5 56.5t56.5 23.5t56.5 -23.5t23.5 -56.5t47 -56.5t113 -23.5t113.5 23.5t47.5 56.5t23.5 56.5t56.5 23.5t56.5 -23.5
t23.5 -56.5q-5 -105 -94 -169q-94 -71 -227 -71t-226.5 70.5t-93.5 169.5z" />
    <glyph glyph-name="ibreve" unicode="&#x12d;" horiz-adv-x="560" 
d="M195 1040q0 33 23.5 56.5t56.5 23.5t56.5 -23.5t23.5 -56.5v-960q0 -33 -23.5 -56.5t-56.5 -23.5t-56.5 23.5t-23.5 56.5v960zM-39 1480q0 33 23.5 56.5t56.5 23.5t56.5 -23.5t23.5 -56.5t47 -56.5t113 -23.5t113.5 23.5t47.5 56.5t23.5 56.5t56.5 23.5t56.5 -23.5
t23.5 -56.5q-5 -105 -94 -169q-94 -71 -227 -71t-226.5 70.5t-93.5 169.5z" />
    <glyph glyph-name="Iogonek" unicode="&#x12e;" horiz-adv-x="480" 
d="M160 1520q0 33 23.5 56.5t56.5 23.5t56.5 -23.5t23.5 -56.5v-1440q0 -33 -23.5 -56.5t-56.5 -23.5t-56.5 23.5t-23.5 56.5v1440zM171 116q20 40 70 41q33 0 57 -23q22 -23 23 -54q0 -13 -2 -23q-15 -73 -123 -151q-35 -28 -35 -66q0 -33 23.5 -56.5t56.5 -23.5
q24 0 43 13l69 51q21 16 48 16q33 0 56.5 -23.5t23.5 -56.5q0 -40 -28 -62l-80 -56q-61 -42 -132 -42q-99 0 -169.5 70.5t-70.5 169.5q0 116 102 196q53 44 68 80z" />
    <glyph glyph-name="iogonek" unicode="&#x12f;" horiz-adv-x="480" 
d="M340 1360q0 -41 -29.5 -70.5t-70.5 -29.5t-70.5 29.5t-29.5 70.5t29.5 70.5t70.5 29.5t70.5 -29.5t29.5 -70.5zM160 1040q0 33 23.5 56.5t56.5 23.5t56.5 -23.5t23.5 -56.5v-960q0 -33 -23.5 -56.5t-56.5 -23.5t-56.5 23.5t-23.5 56.5v960zM171 116q20 40 70 41
q33 0 57 -23q22 -23 23 -54q0 -13 -2 -23q-15 -73 -123 -151q-35 -28 -35 -66q0 -33 23.5 -56.5t56.5 -23.5q24 0 43 13l69 51q21 16 48 16q33 0 56.5 -23.5t23.5 -56.5q0 -40 -28 -62l-80 -56q-61 -42 -132 -42q-99 0 -169.5 70.5t-70.5 169.5q0 116 102 196q53 44 68 80z
" />
    <glyph glyph-name="Idotaccent" unicode="&#x130;" horiz-adv-x="480" 
d="M160 1520q0 33 23.5 56.5t56.5 23.5t56.5 -23.5t23.5 -56.5v-1440q0 -33 -23.5 -56.5t-56.5 -23.5t-56.5 23.5t-23.5 56.5v1440zM360 1841q0 -50 -35 -85t-85 -35t-85 35t-35 85t35 85t85 35t85 -35t35 -85z" />
    <glyph glyph-name="dotlessi" unicode="&#x131;" horiz-adv-x="480" 
d="M160 1040q0 33 23.5 56.5t56.5 23.5t56.5 -23.5t23.5 -56.5v-960q0 -33 -23.5 -56.5t-56.5 -23.5t-56.5 23.5t-23.5 56.5v960z" />
    <glyph glyph-name="IJ" unicode="&#x132;" horiz-adv-x="1520" 
d="M160 1520q0 33 23.5 56.5t56.5 23.5t56.5 -23.5t23.5 -56.5v-1440q0 -33 -23.5 -56.5t-56.5 -23.5t-56.5 23.5t-23.5 56.5v1440zM480 480q0 33 23.5 56.5t56.5 23.5t56.5 -23.5t23.5 -56.5q0 -133 93.5 -226.5t226.5 -93.5t226.5 93.5t93.5 226.5v1040q0 33 23.5 56.5
t56.5 23.5t56.5 -23.5t23.5 -56.5v-1040q0 -199 -140.5 -339.5t-339.5 -140.5t-339.5 140.5t-140.5 339.5z" />
    <glyph glyph-name="ij" unicode="&#x133;" horiz-adv-x="880" 
d="M340 1360q0 -41 -29.5 -70.5t-70.5 -29.5t-70.5 29.5t-29.5 70.5t29.5 70.5t70.5 29.5t70.5 -29.5t29.5 -70.5zM160 1040q0 33 23.5 56.5t56.5 23.5t56.5 -23.5t23.5 -56.5v-960q0 -33 -23.5 -56.5t-56.5 -23.5t-56.5 23.5t-23.5 56.5v960zM740 1360q0 -41 -29.5 -70.5
t-70.5 -29.5t-70.5 29.5t-29.5 70.5t29.5 70.5t70.5 29.5t70.5 -29.5t29.5 -70.5zM560 0v1040q0 33 23.5 56.5t56.5 23.5t56.5 -23.5t23.5 -56.5v-1040q0 -199 -140.5 -339.5t-339.5 -140.5q-33 0 -56.5 23.5t-23.5 56.5t23.5 56.5t56.5 23.5q133 0 226.5 93.5t93.5 226.5z
" />
    <glyph glyph-name="Jcircumflex" unicode="&#x134;" horiz-adv-x="1200" 
d="M80 480q0 33 23.5 56.5t56.5 23.5t56.5 -23.5t23.5 -56.5q0 -133 93.5 -226.5t226.5 -93.5t226.5 93.5t93.5 226.5v1040q0 33 23.5 56.5t56.5 23.5t56.5 -23.5t23.5 -56.5v-1040q0 -199 -140.5 -339.5t-339.5 -140.5t-339.5 140.5t-140.5 339.5zM1001 2029l239 -159
q40 -30 40 -70q0 -33 -23.5 -56.5t-56.5 -23.5q-29 0 -50 17l-190 126l-190 -126q-21 -17 -50 -17q-33 0 -56.5 23.5t-23.5 56.5q0 40 40 70l239 159q18 11 41 11t41 -11z" />
    <glyph glyph-name="jcircumflex" unicode="&#x135;" horiz-adv-x="760" 
d="M400 0v1040q0 33 23.5 56.5t56.5 23.5t56.5 -23.5t23.5 -56.5v-1040q0 -199 -140.5 -339.5t-339.5 -140.5q-33 0 -56.5 23.5t-23.5 56.5t23.5 56.5t56.5 23.5q133 0 226.5 93.5t93.5 226.5zM522 1539l239 -159q8 -5 17 -13q23 -24 23 -57t-23.5 -56.5t-56.5 -23.5
q-29 0 -50 17l-190 126l-190 -126q-21 -17 -50 -17q-33 0 -56.5 23.5t-23.5 56.5t24 57q8 8 16 13l239 159q18 11 41 11t41 -11z" />
    <glyph glyph-name="Kcommaaccent" unicode="&#x136;" horiz-adv-x="1200" 
d="M80 1520q0 33 23.5 56.5t56.5 23.5t56.5 -23.5t23.5 -56.5v-686l741 741q26 25 59 25t56.5 -23.5t23.5 -56.5t-23 -57l-562 -562l570 -773q15 -21 15 -45q0 -42 -32 -67q-22 -16 -46 -16q-44 0 -68 34l-554 752l-180 -180v-526q0 -33 -23.5 -56.5t-56.5 -23.5t-56.5 23.5
t-23.5 56.5v1440zM733 -85q69 -56 69 -145t-70.5 -149.5t-169.5 -60.5q-59 0 -114 29l-91 54q-35 29 -35 67q0 33 23.5 56.5t56.5 23.5q24 0 43 -12l78 -48q19 -10 39 -10q33 0 56.5 13.5t23.5 36.5t-23.5 36.5t-56.5 13.5t-56.5 23.5t-23.5 56.5q0 20 19 39q29 25 96 25
q74 -4 136 -49z" />
    <glyph glyph-name="kcommaaccent" unicode="&#x137;" horiz-adv-x="1120" 
d="M240 668l677 440q19 12 43 12q33 0 56.5 -23.5t23.5 -56.5t-23 -56q-6 -6 -11 -10l-464 -302l476 -536q22 -24 22 -56q0 -33 -23.5 -56.5t-56.5 -23.5t-58 24l-497 560l-165 -107v-397q0 -33 -23.5 -56.5t-56.5 -23.5t-56.5 23.5t-23.5 56.5v1440q0 33 23.5 56.5
t56.5 23.5t56.5 -23.5t23.5 -56.5v-852zM732 -85q69 -56 69 -145t-70.5 -149.5t-169.5 -60.5q-59 0 -114 29l-91 54q-35 29 -35 67q0 33 23.5 56.5t56.5 23.5q24 0 43 -12l78 -48q19 -10 39 -10q33 0 56.5 13.5t23.5 36.5t-23.5 36.5t-56.5 13.5t-56.5 23.5t-23.5 56.5
q0 20 19 39q29 25 96 25q74 -4 136 -49z" />
    <glyph glyph-name="kgreenlandic" unicode="&#x138;" horiz-adv-x="1120" 
d="M240 668l677 440q19 12 43 12q33 0 56.5 -23.5t23.5 -56.5t-23 -56q-6 -6 -11 -10l-464 -302l476 -536q22 -24 22 -56q0 -33 -23.5 -56.5t-56.5 -23.5t-58 24l-497 560l-165 -107v-397q0 -33 -23.5 -56.5t-56.5 -23.5t-56.5 23.5t-23.5 56.5v959q0 33 23.5 56.5
t56.5 23.5t56.5 -23.5t23.5 -56.5v-371z" />
    <glyph glyph-name="Lacute" unicode="&#x139;" horiz-adv-x="1200" 
d="M80 1520q0 33 23.5 56.5t56.5 23.5t56.5 -23.5t23.5 -56.5v-1360h800q33 0 56.5 -23.5t23.5 -56.5t-23.5 -56.5t-56.5 -23.5h-880q-33 0 -56.5 23.5t-23.5 56.5v1440zM619 1944l-243 -243q-23 -21 -55 -21q-33 0 -56.5 23.5t-23.5 56.5q0 31 20 54l243 243q24 23 57 23
t56.5 -23.5t23.5 -56.5q0 -32 -22 -56z" />
    <glyph glyph-name="lacute" unicode="&#x13a;" horiz-adv-x="480" 
d="M80 1520q0 33 23.5 56.5t56.5 23.5t56.5 -23.5t23.5 -56.5v-1360h80q33 0 56.5 -23.5t23.5 -56.5t-23.5 -56.5t-56.5 -23.5h-160q-33 0 -56.5 23.5t-23.5 56.5v1440zM419 1944l-243 -243q-23 -21 -55 -21q-33 0 -56.5 23.5t-23.5 56.5q0 31 20 54l243 243q24 23 57 23
t56.5 -23.5t23.5 -56.5q0 -32 -22 -56z" />
    <glyph glyph-name="Lcommaaccent" unicode="&#x13b;" horiz-adv-x="1200" 
d="M80 1520q0 33 23.5 56.5t56.5 23.5t56.5 -23.5t23.5 -56.5v-1360h800q33 0 56.5 -23.5t23.5 -56.5t-23.5 -56.5t-56.5 -23.5h-880q-33 0 -56.5 23.5t-23.5 56.5v1440zM772 -85q69 -56 69 -145t-70.5 -149.5t-169.5 -60.5q-59 0 -114 29l-91 54q-35 29 -35 67
q0 33 23.5 56.5t56.5 23.5q24 0 43 -12l78 -48q19 -10 39 -10q33 0 56.5 13.5t23.5 36.5t-23.5 36.5t-56.5 13.5t-56.5 23.5t-23.5 56.5q0 20 19 39q29 25 96 25q74 -4 136 -49z" />
    <glyph glyph-name="lcommaaccent" unicode="&#x13c;" horiz-adv-x="480" 
d="M80 1520q0 33 23.5 56.5t56.5 23.5t56.5 -23.5t23.5 -56.5v-1360h80q33 0 56.5 -23.5t23.5 -56.5t-23.5 -56.5t-56.5 -23.5h-160q-33 0 -56.5 23.5t-23.5 56.5v1440zM412 -85q69 -56 69 -145t-70.5 -149.5t-169.5 -60.5q-59 0 -114 29l-91 54q-35 29 -35 67
q0 33 23.5 56.5t56.5 23.5q24 0 43 -12l78 -48q19 -10 39 -10q33 0 56.5 13.5t23.5 36.5t-23.5 36.5t-56.5 13.5t-56.5 23.5t-23.5 56.5q0 20 19 39q29 25 96 25q74 -4 136 -49z" />
    <glyph glyph-name="Lcaron" unicode="&#x13d;" horiz-adv-x="1200" 
d="M80 1520q0 33 23.5 56.5t56.5 23.5t56.5 -23.5t23.5 -56.5v-1360h800q33 0 56.5 -23.5t23.5 -56.5t-23.5 -56.5t-56.5 -23.5h-880q-33 0 -56.5 23.5t-23.5 56.5v1440zM479 1500q0 41 29.5 70.5t70.5 29.5q62 0 90 -58q63 -112 63 -227q0 -175 -152 -358q-17 -17 -42 -17
q-24 0 -41.5 17.5t-17.5 41.5q0 14 5 26q98 237 3 435q-8 18 -8 40z" />
    <glyph glyph-name="lcaron" unicode="&#x13e;" horiz-adv-x="680" 
d="M80 1520q0 33 23.5 56.5t56.5 23.5t56.5 -23.5t23.5 -56.5v-1360h80q33 0 56.5 -23.5t23.5 -56.5t-23.5 -56.5t-56.5 -23.5h-160q-33 0 -56.5 23.5t-23.5 56.5v1440zM347 1500q0 41 29.5 70.5t70.5 29.5q62 0 90 -58q63 -112 63 -227q0 -175 -152 -358q-17 -17 -42 -17
q-24 0 -41.5 17.5t-17.5 41.5q0 14 5 26q98 237 3 435q-8 18 -8 40z" />
    <glyph glyph-name="Ldot" unicode="&#x13f;" horiz-adv-x="1200" 
d="M80 1520q0 33 23.5 56.5t56.5 23.5t56.5 -23.5t23.5 -56.5v-1360h800q33 0 56.5 -23.5t23.5 -56.5t-23.5 -56.5t-56.5 -23.5h-880q-33 0 -56.5 23.5t-23.5 56.5v1440zM801 800q0 -50 -35 -85t-85 -35t-85 35t-35 85t35 85t85 35t85 -35t35 -85z" />
    <glyph glyph-name="ldot" unicode="&#x140;" horiz-adv-x="640" 
d="M80 1520q0 33 23.5 56.5t56.5 23.5t56.5 -23.5t23.5 -56.5v-1360h80q33 0 56.5 -23.5t23.5 -56.5t-23.5 -56.5t-56.5 -23.5h-160q-33 0 -56.5 23.5t-23.5 56.5v1440zM559 800q0 -50 -35 -85t-85 -35t-85 35t-35 85t35 85t85 35t85 -35t35 -85z" />
    <glyph glyph-name="Lslash" unicode="&#x141;" horiz-adv-x="1360" 
d="M240 836v684q0 33 23.5 56.5t56.5 23.5t56.5 -23.5t23.5 -56.5v-526l104 103q23 24 56.5 23.5t56.5 -23.5q23 -24 23 -57t-23 -56l-217 -215v-609h800q33 0 56.5 -23.5t23.5 -56.5t-23.5 -56.5t-56.5 -23.5h-880q-33 0 -56.5 23.5t-23.5 56.5v531l-79 -78
q-23 -24 -56.5 -23.5t-56.5 23.5q-23 24 -23 57t23 56z" />
    <glyph glyph-name="lslash" unicode="&#x142;" horiz-adv-x="720" 
d="M240 836v684q0 33 23.5 56.5t56.5 23.5t56.5 -23.5t23.5 -56.5v-526l104 103q23 24 56.5 23.5t56.5 -23.5q23 -24 23 -57t-23 -56l-217 -215v-609h80q33 0 56.5 -23.5t23.5 -56.5t-23.5 -56.5t-56.5 -23.5h-160q-33 0 -56.5 23.5t-23.5 56.5v531l-79 -78
q-23 -24 -56.5 -23.5t-56.5 23.5q-23 24 -23 57t23 56z" />
    <glyph glyph-name="Nacute" unicode="&#x143;" horiz-adv-x="1440" 
d="M240 80q0 -33 -23.5 -56.5t-56.5 -23.5t-56.5 23.5t-23.5 56.5v1440q0 33 23.5 56.5t56.5 23.5q36 0 62 -29l978 -1258v1207q0 33 23.5 56.5t56.5 23.5t56.5 -23.5t23.5 -56.5v-1440q0 -33 -23.5 -56.5t-56.5 -23.5q-35 0 -60 26l-980 1260v-1206zM965 1944l-243 -243
q-23 -21 -55 -21q-33 0 -56.5 23.5t-23.5 56.5q0 31 20 54l243 243q24 23 57 23t56.5 -23.5t23.5 -56.5q0 -32 -22 -56z" />
    <glyph glyph-name="nacute" unicode="&#x144;" horiz-adv-x="1200" 
d="M80 1040q0 33 23.5 56.5t56.5 23.5t56.5 -23.5t23.5 -56.5v-65q150 145 360 145q215 0 367.5 -152.5t152.5 -367.5v-520q0 -33 -23.5 -56.5t-56.5 -23.5t-56.5 23.5t-23.5 56.5v520q0 149 -105.5 254.5t-254.5 105.5t-254.5 -105.5t-105.5 -254.5v-520q0 -33 -23.5 -56.5
t-56.5 -23.5t-56.5 23.5t-23.5 56.5v960zM845 1464l-243 -243q-23 -21 -55 -21q-33 0 -56.5 23.5t-23.5 56.5q0 31 20 54l243 243q24 23 57 23t56.5 -23.5t23.5 -56.5q0 -32 -22 -56z" />
    <glyph glyph-name="Ncommaaccent" unicode="&#x145;" horiz-adv-x="1440" 
d="M240 80q0 -33 -23.5 -56.5t-56.5 -23.5t-56.5 23.5t-23.5 56.5v1440q0 33 23.5 56.5t56.5 23.5q36 0 62 -29l978 -1258v1207q0 33 23.5 56.5t56.5 23.5t56.5 -23.5t23.5 -56.5v-1440q0 -33 -23.5 -56.5t-56.5 -23.5q-35 0 -60 26l-980 1260v-1206zM892 -85
q69 -56 69 -145t-70.5 -149.5t-169.5 -60.5q-59 0 -114 29l-91 54q-35 29 -35 67q0 33 23.5 56.5t56.5 23.5q24 0 43 -12l78 -48q19 -10 39 -10q33 0 56.5 13.5t23.5 36.5t-23.5 36.5t-56.5 13.5t-56.5 23.5t-23.5 56.5q0 20 19 39q29 25 96 25q74 -4 136 -49z" />
    <glyph glyph-name="ncommaaccent" unicode="&#x146;" horiz-adv-x="1200" 
d="M80 1040q0 33 23.5 56.5t56.5 23.5t56.5 -23.5t23.5 -56.5v-65q150 145 360 145q215 0 367.5 -152.5t152.5 -367.5v-520q0 -33 -23.5 -56.5t-56.5 -23.5t-56.5 23.5t-23.5 56.5v520q0 149 -105.5 254.5t-254.5 105.5t-254.5 -105.5t-105.5 -254.5v-520q0 -33 -23.5 -56.5
t-56.5 -23.5t-56.5 23.5t-23.5 56.5v960zM773 -85q69 -56 69 -145t-70.5 -149.5t-169.5 -60.5q-59 0 -114 29l-91 54q-35 29 -35 67q0 33 23.5 56.5t56.5 23.5q24 0 43 -12l78 -48q19 -10 39 -10q33 0 56.5 13.5t23.5 36.5t-23.5 36.5t-56.5 13.5t-56.5 23.5t-23.5 56.5
q0 20 19 39q29 25 96 25q74 -4 136 -49z" />
    <glyph glyph-name="Ncaron" unicode="&#x147;" horiz-adv-x="1440" 
d="M240 80q0 -33 -23.5 -56.5t-56.5 -23.5t-56.5 23.5t-23.5 56.5v1440q0 33 23.5 56.5t56.5 23.5q36 0 62 -29l978 -1258v1207q0 33 23.5 56.5t56.5 23.5t56.5 -23.5t23.5 -56.5v-1440q0 -33 -23.5 -56.5t-56.5 -23.5q-35 0 -60 26l-980 1260v-1206zM720 1720q-23 0 -41 11
l-239 159q-40 30 -40 70q0 33 23.5 56.5t56.5 23.5q29 0 50 -17l190 -126l190 126q21 17 50 17q33 0 56.5 -23.5t23.5 -56.5q0 -40 -40 -70l-239 -159q-18 -11 -41 -11z" />
    <glyph glyph-name="ncaron" unicode="&#x148;" horiz-adv-x="1200" 
d="M80 1040q0 33 23.5 56.5t56.5 23.5t56.5 -23.5t23.5 -56.5v-65q150 145 360 145q215 0 367.5 -152.5t152.5 -367.5v-520q0 -33 -23.5 -56.5t-56.5 -23.5t-56.5 23.5t-23.5 56.5v520q0 149 -105.5 254.5t-254.5 105.5t-254.5 -105.5t-105.5 -254.5v-520q0 -33 -23.5 -56.5
t-56.5 -23.5t-56.5 23.5t-23.5 56.5v960zM600 1240q-23 0 -41 11l-239 159q-40 30 -40 70q0 33 23.5 56.5t56.5 23.5q29 0 50 -17l190 -126l190 126q21 17 50 17q33 0 56.5 -23.5t23.5 -56.5q0 -40 -40 -70l-239 -159q-18 -11 -41 -11z" />
    <glyph glyph-name="napostrophe" unicode="&#x149;" horiz-adv-x="1440" 
d="M321 1040q0 33 23.5 56.5t56.5 23.5t56.5 -23.5t23.5 -56.5v-65q150 145 360 145q215 0 367.5 -152.5t152.5 -367.5v-520q0 -33 -23.5 -56.5t-56.5 -23.5t-56.5 23.5t-23.5 56.5v520q0 149 -105.5 254.5t-254.5 105.5t-254.5 -105.5t-105.5 -254.5v-520
q0 -33 -23.5 -56.5t-56.5 -23.5t-56.5 23.5t-23.5 56.5v960zM83 1500q0 41 29.5 70.5t70.5 29.5q62 0 90 -58q63 -112 63 -227q0 -175 -152 -358q-17 -17 -42 -17q-24 0 -41.5 17.5t-17.5 41.5q0 14 5 26q98 237 3 435q-8 18 -8 40z" />
    <glyph glyph-name="Eng" unicode="&#x14a;" horiz-adv-x="1440" 
d="M240 80q0 -33 -23.5 -56.5t-56.5 -23.5t-56.5 23.5t-23.5 56.5v1440q0 33 23.5 56.5t56.5 23.5t56.5 -23.5t23.5 -56.5v-137q13 15 28 30q187 187 452 187t452.5 -187.5t187.5 -452.5v-480q0 -199 -140.5 -339.5t-339.5 -140.5t-339 142q-24 23 -24 56t23.5 56.5
t56.5 23.5t57 -23q93 -95 226 -95t226.5 93.5t93.5 226.5v480q0 199 -140.5 339.5t-339.5 140.5t-339.5 -140.5t-140.5 -339.5v-880z" />
    <glyph glyph-name="eng" unicode="&#x14b;" horiz-adv-x="1200" 
d="M960 -160v760q0 149 -105.5 254.5t-254.5 105.5t-254.5 -105.5t-105.5 -254.5v-520q0 -33 -23.5 -56.5t-56.5 -23.5t-56.5 23.5t-23.5 56.5v960q0 33 23.5 56.5t56.5 23.5t56.5 -23.5t23.5 -56.5v-65q150 145 360 145q215 0 367.5 -152.5t152.5 -367.5v-760
q0 -133 -93.5 -226.5t-226.5 -93.5q-79 0 -144 34q-37 23 -38 68q0 33 23.5 56.5t56.5 23.5q16 0 30 -6q33 -16 72 -16q66 0 113 47t47 113z" />
    <glyph glyph-name="Omacron" unicode="&#x14c;" horiz-adv-x="1760" 
d="M880 1440q-265 0 -452.5 -187.5t-187.5 -452.5t187.5 -452.5t452.5 -187.5t452.5 187.5t187.5 452.5t-187.5 452.5t-452.5 187.5zM1680 800q0 -331 -234.5 -565.5t-565.5 -234.5t-565.5 234.5t-234.5 565.5t234.5 565.5t565.5 234.5t565.5 -234.5t234.5 -565.5zM640 1760
q-33 0 -56.5 23.5t-23.5 56.5t23.5 56.5t56.5 23.5h480q33 0 56.5 -23.5t23.5 -56.5t-23.5 -56.5t-56.5 -23.5h-480z" />
    <glyph glyph-name="omacron" unicode="&#x14d;" 
d="M1200 560q0 -232 -164 -396t-396 -164t-396 164t-164 396t164 396t396 164t396 -164t164 -396zM640 960q-166 0 -283 -117t-117 -283t117 -283t283 -117t283 117t117 283t-117 283t-283 117zM400 1280q-33 0 -56.5 23.5t-23.5 56.5t23.5 56.5t56.5 23.5h480
q33 0 56.5 -23.5t23.5 -56.5t-23.5 -56.5t-56.5 -23.5h-480z" />
    <glyph glyph-name="Obreve" unicode="&#x14e;" horiz-adv-x="1760" 
d="M880 1440q-265 0 -452.5 -187.5t-187.5 -452.5t187.5 -452.5t452.5 -187.5t452.5 187.5t187.5 452.5t-187.5 452.5t-452.5 187.5zM1680 800q0 -331 -234.5 -565.5t-565.5 -234.5t-565.5 234.5t-234.5 565.5t234.5 565.5t565.5 234.5t565.5 -234.5t234.5 -565.5zM566 1960
q0 33 23.5 56.5t56.5 23.5t56.5 -23.5t23.5 -56.5t47 -56.5t113 -23.5t113.5 23.5t47.5 56.5t23.5 56.5t56.5 23.5t56.5 -23.5t23.5 -56.5q-5 -105 -94 -169q-94 -71 -227 -71t-226.5 70.5t-93.5 169.5z" />
    <glyph glyph-name="obreve" unicode="&#x14f;" 
d="M1200 560q0 -232 -164 -396t-396 -164t-396 164t-164 396t164 396t396 164t396 -164t164 -396zM640 960q-166 0 -283 -117t-117 -283t117 -283t283 -117t283 117t117 283t-117 283t-283 117zM326 1480q0 33 23.5 56.5t56.5 23.5t56.5 -23.5t23.5 -56.5t47 -56.5
t113 -23.5t113.5 23.5t47.5 56.5t23.5 56.5t56.5 23.5t56.5 -23.5t23.5 -56.5q-5 -105 -94 -169q-94 -71 -227 -71t-226.5 70.5t-93.5 169.5z" />
    <glyph glyph-name="Ohungarumlaut" unicode="&#x150;" horiz-adv-x="1760" 
d="M880 1440q-265 0 -452.5 -187.5t-187.5 -452.5t187.5 -452.5t452.5 -187.5t452.5 187.5t187.5 452.5t-187.5 452.5t-452.5 187.5zM1680 800q0 -331 -234.5 -565.5t-565.5 -234.5t-565.5 234.5t-234.5 565.5t234.5 565.5t565.5 234.5t565.5 -234.5t234.5 -565.5zM716 1698
q-17 -36 -56 -38q-37 0 -55 36q-5 12 -5 24q0 11 4 22l91 287q12 30 43 44q16 6 31 6t30 -5q31 -12 44 -42.5t1 -61.5zM1026 1698q-17 -36 -56 -38q-37 0 -55 36q-5 12 -5 24q0 11 4 22l91 287q12 30 43 44q16 6 31 6t30 -5q31 -12 44 -42.5t1 -61.5z" />
    <glyph glyph-name="ohungarumlaut" unicode="&#x151;" 
d="M1200 560q0 -232 -164 -396t-396 -164t-396 164t-164 396t164 396t396 164t396 -164t164 -396zM640 960q-166 0 -283 -117t-117 -283t117 -283t283 -117t283 117t117 283t-117 283t-283 117zM476 1259q-17 -36 -56 -38q-37 0 -55 36q-5 12 -5 24q0 11 4 22l91 287
q12 30 43 44q16 6 31 6t30 -5q31 -12 44 -42.5t1 -61.5zM786 1259q-17 -36 -56 -38q-37 0 -55 36q-5 12 -5 24q0 11 4 22l91 287q12 30 43 44q16 6 31 6t30 -5q31 -12 44 -42.5t1 -61.5z" />
    <glyph glyph-name="OE" unicode="&#x152;" horiz-adv-x="2160" 
d="M880 1440q-265 0 -452.5 -187.5t-187.5 -452.5t187.5 -452.5t452.5 -187.5h80v1280h-80zM880 0q-331 0 -565.5 234.5t-234.5 565.5t234.5 565.5t565.5 234.5h1121q33 0 56.5 -23.5t23.5 -56.5t-23.5 -56.5t-56.5 -23.5h-881v-560h641q33 0 56.5 -23.5t23.5 -56.5
q0 -34 -23.5 -57.5t-56.5 -23.5h-641v-559h880q33 0 56.5 -23.5t23.5 -56.5t-23.5 -56.5t-56.5 -23.5h-1120z" />
    <glyph glyph-name="oe" unicode="&#x153;" horiz-adv-x="2240" 
d="M640 960q-166 0 -283 -117t-117 -283t117 -283t283 -117t283 117t117 283t-117 283t-283 117zM1993 640q-22 115 -110 203q-117 117 -283 117t-283 -117q-88 -88 -110 -203h786zM1120 269q-35 -56 -84 -105q-164 -164 -396 -164t-396 164t-164 396t164 396t396 164
t396 -164q49 -49 84 -105q35 56 84 105q164 164 396 164t396 -164t164 -396q0 -33 -23.5 -56.5t-56.5 -23.5h-873q22 -115 110 -203q117 -117 283 -117q150 0 258 95q22 17 50 17q33 0 56.5 -23.5t23.5 -56.5t-23 -57q-155 -135 -365 -135q-232 0 -396 164q-49 49 -84 105z
" />
    <glyph glyph-name="Racute" unicode="&#x154;" horiz-adv-x="1200" 
d="M240 1440v-640h320q133 0 226.5 93.5t93.5 226.5t-93.5 226.5t-226.5 93.5h-320zM160 1600h400q199 0 339.5 -140.5t140.5 -339.5t-140 -339q-65 -65 -141 -99l348 -558q13 -19 13 -44q0 -33 -23.5 -56.5t-56.5 -23.5q-43 0 -70 41l-375 600q-17 -1 -35 -1h-320v-560
q0 -33 -23.5 -56.5t-56.5 -23.5t-56.5 23.5t-23.5 56.5v1440q0 33 23.5 56.5t56.5 23.5zM698 1944l-243 -243q-23 -21 -55 -21q-33 0 -56.5 23.5t-23.5 56.5q0 31 20 54l243 243q24 23 57 23t56.5 -23.5t23.5 -56.5q0 -32 -22 -56z" />
    <glyph glyph-name="racute" unicode="&#x155;" horiz-adv-x="960" 
d="M80 1040q0 33 23.5 56.5t56.5 23.5t56.5 -23.5t23.5 -56.5v-88q168 168 400 168q117 0 215 -40q18 -7 33 -21q23 -24 23 -57t-23.5 -56.5t-56.5 -23.5q-19 0 -35 8q-71 30 -156 30q-166 0 -283 -117t-117 -283v-480q0 -33 -23.5 -56.5t-56.5 -23.5t-56.5 23.5t-23.5 56.5
v960zM696 1464l-243 -243q-23 -21 -55 -21q-33 0 -56.5 23.5t-23.5 56.5q0 31 20 54l243 243q24 23 57 23t56.5 -23.5t23.5 -56.5q0 -32 -22 -56z" />
    <glyph glyph-name="Rcommaaccent" unicode="&#x156;" horiz-adv-x="1200" 
d="M240 1440v-640h320q133 0 226.5 93.5t93.5 226.5t-93.5 226.5t-226.5 93.5h-320zM160 1600h400q199 0 339.5 -140.5t140.5 -339.5t-140 -339q-65 -65 -141 -99l348 -558q13 -19 13 -44q0 -33 -23.5 -56.5t-56.5 -23.5q-43 0 -70 41l-375 600q-17 -1 -35 -1h-320v-560
q0 -33 -23.5 -56.5t-56.5 -23.5t-56.5 23.5t-23.5 56.5v1440q0 33 23.5 56.5t56.5 23.5zM772 -85q69 -56 69 -145t-70.5 -149.5t-169.5 -60.5q-59 0 -114 29l-91 54q-35 29 -35 67q0 33 23.5 56.5t56.5 23.5q24 0 43 -12l78 -48q19 -10 39 -10q33 0 56.5 13.5t23.5 36.5
t-23.5 36.5t-56.5 13.5t-56.5 23.5t-23.5 56.5q0 20 19 39q29 25 96 25q74 -4 136 -49z" />
    <glyph glyph-name="rcommaaccent" unicode="&#x157;" horiz-adv-x="960" 
d="M80 1040q0 33 23.5 56.5t56.5 23.5t56.5 -23.5t23.5 -56.5v-88q168 168 400 168q117 0 215 -40q18 -7 33 -21q23 -24 23 -57t-23.5 -56.5t-56.5 -23.5q-19 0 -35 8q-71 30 -156 30q-166 0 -283 -117t-117 -283v-480q0 -33 -23.5 -56.5t-56.5 -23.5t-56.5 23.5t-23.5 56.5
v960zM570 -85q69 -56 69 -145t-70.5 -149.5t-169.5 -60.5q-59 0 -114 29l-91 54q-35 29 -35 67q0 33 23.5 56.5t56.5 23.5q24 0 43 -12l78 -48q19 -10 39 -10q33 0 56.5 13.5t23.5 36.5t-23.5 36.5t-56.5 13.5t-56.5 23.5t-23.5 56.5q0 20 19 39q29 25 96 25q74 -4 136 -49z
" />
    <glyph glyph-name="Rcaron" unicode="&#x158;" horiz-adv-x="1200" 
d="M240 1440v-640h320q133 0 226.5 93.5t93.5 226.5t-93.5 226.5t-226.5 93.5h-320zM160 1600h400q199 0 339.5 -140.5t140.5 -339.5t-140 -339q-65 -65 -141 -99l348 -558q13 -19 13 -44q0 -33 -23.5 -56.5t-56.5 -23.5q-43 0 -70 41l-375 600q-17 -1 -35 -1h-320v-560
q0 -33 -23.5 -56.5t-56.5 -23.5t-56.5 23.5t-23.5 56.5v1440q0 33 23.5 56.5t56.5 23.5zM481 1720q-23 0 -41 11l-239 159q-40 30 -40 70q0 33 23.5 56.5t56.5 23.5q29 0 50 -17l190 -126l190 126q21 17 50 17q33 0 56.5 -23.5t23.5 -56.5q0 -40 -40 -70l-239 -159
q-18 -11 -41 -11z" />
    <glyph glyph-name="rcaron" unicode="&#x159;" horiz-adv-x="960" 
d="M80 1040q0 33 23.5 56.5t56.5 23.5t56.5 -23.5t23.5 -56.5v-88q168 168 400 168q117 0 215 -40q18 -7 33 -21q23 -24 23 -57t-23.5 -56.5t-56.5 -23.5q-19 0 -35 8q-71 30 -156 30q-166 0 -283 -117t-117 -283v-480q0 -33 -23.5 -56.5t-56.5 -23.5t-56.5 23.5t-23.5 56.5
v960zM479 1240q-23 0 -41 11l-239 159q-40 30 -40 70q0 33 23.5 56.5t56.5 23.5q29 0 50 -17l190 -126l190 126q21 17 50 17q33 0 56.5 -23.5t23.5 -56.5q0 -40 -40 -70l-239 -159q-18 -11 -41 -11z" />
    <glyph glyph-name="Sacute" unicode="&#x15a;" horiz-adv-x="1060" 
d="M96 219q-16 21 -16 48q0 33 23.5 56.5t56.5 23.5q43 0 68 -37q12 -19 28 -36q85 -102 218 -113q132 -10 233 75.5t112 217.5q11 133 -74.5 233.5t-218.5 111.5q-165 14 -272 140t-94 292q14 165 140 272q113 97 260 97q174 0 304 -143q22 -26 39 -54q12 -19 12 -43
q0 -33 -23.5 -56.5t-56.5 -23.5q-38 0 -56 24t-37 49q-65 76 -163 84q-99 8 -175 -56.5t-84 -162.5q-8 -99 56.5 -175t162.5 -84q199 -17 328 -168q113 -134 113 -304q0 -23 -2 -46q-16 -198 -167 -326q-135 -115 -307 -115q-215 0 -370 170q-21 23 -38 49zM775 1944
l-243 -243q-23 -21 -55 -21q-33 0 -56.5 23.5t-23.5 56.5q0 31 20 54l243 243q24 23 57 23t56.5 -23.5t23.5 -56.5q0 -32 -22 -56z" />
    <glyph glyph-name="sacute" unicode="&#x15b;" horiz-adv-x="1060" 
d="M278 560q-91 34 -127 71q-71 70 -71 169t74 173q144 147 376 147q251 0 430 -201q16 -19 15 -47q0 -33 -23.5 -56.5t-56.5 -23.5t-53 21t-29 30q-117 117 -283 117t-265 -104q-24 -29 -24 -69q3 -47 49 -64l492 -163q91 -34 127 -71q71 -70 71 -169t-74 -173
q-144 -147 -376 -147q-252 0 -430 201q-15 21 -15 47q0 33 23.5 56.5t56.5 23.5t53 -21t29 -30q117 -117 283 -117t265 104q24 29 24 69q-3 47 -49 64zM737 1464l-243 -243q-23 -21 -55 -21q-33 0 -56.5 23.5t-23.5 56.5q0 31 20 54l243 243q24 23 57 23t56.5 -23.5
t23.5 -56.5q0 -32 -22 -56z" />
    <glyph glyph-name="Scircumflex" unicode="&#x15c;" horiz-adv-x="1060" 
d="M96 219q-16 21 -16 48q0 33 23.5 56.5t56.5 23.5q43 0 68 -37q12 -19 28 -36q85 -102 218 -113q132 -10 233 75.5t112 217.5q11 133 -74.5 233.5t-218.5 111.5q-165 14 -272 140t-94 292q14 165 140 272q113 97 260 97q174 0 304 -143q22 -26 39 -54q12 -19 12 -43
q0 -33 -23.5 -56.5t-56.5 -23.5q-38 0 -56 24t-37 49q-65 76 -163 84q-99 8 -175 -56.5t-84 -162.5q-8 -99 56.5 -175t162.5 -84q199 -17 328 -168q113 -134 113 -304q0 -23 -2 -46q-16 -198 -167 -326q-135 -115 -307 -115q-215 0 -370 170q-21 23 -38 49zM581 2029
l239 -159q40 -30 40 -70q0 -33 -23.5 -56.5t-56.5 -23.5q-29 0 -50 17l-190 126l-190 -126q-21 -17 -50 -17q-33 0 -56.5 23.5t-23.5 56.5q0 40 40 70l239 159q18 11 41 11t41 -11z" />
    <glyph glyph-name="scircumflex" unicode="&#x15d;" horiz-adv-x="1060" 
d="M278 560q-91 34 -127 71q-71 70 -71 169t74 173q144 147 376 147q251 0 430 -201q16 -19 15 -47q0 -33 -23.5 -56.5t-56.5 -23.5t-53 21t-29 30q-117 117 -283 117t-265 -104q-24 -29 -24 -69q3 -47 49 -64l492 -163q91 -34 127 -71q71 -70 71 -169t-74 -173
q-144 -147 -376 -147q-252 0 -430 201q-15 21 -15 47q0 33 23.5 56.5t56.5 23.5t53 -21t29 -30q117 -117 283 -117t265 104q24 29 24 69q-3 47 -49 64zM571 1549l239 -159q40 -30 40 -70q0 -33 -23.5 -56.5t-56.5 -23.5q-29 0 -50 17l-190 126l-190 -126q-21 -17 -50 -17
q-33 0 -56.5 23.5t-23.5 56.5q0 40 40 70l239 159q18 11 41 11t41 -11z" />
    <glyph glyph-name="Scedilla" unicode="&#x15e;" horiz-adv-x="1060" 
d="M96 219q-16 21 -16 48q0 33 23.5 56.5t56.5 23.5q43 0 68 -37q12 -19 28 -36q85 -102 218 -113q132 -10 233 75.5t112 217.5q11 133 -74.5 233.5t-218.5 111.5q-165 14 -272 140t-94 292q14 165 140 272q113 97 260 97q174 0 304 -143q22 -26 39 -54q12 -19 12 -43
q0 -33 -23.5 -56.5t-56.5 -23.5q-38 0 -56 24t-37 49q-65 76 -163 84q-99 8 -175 -56.5t-84 -162.5q-8 -99 56.5 -175t162.5 -84q199 -17 328 -168q113 -134 113 -304q0 -23 -2 -46q-16 -198 -167 -326q-135 -115 -307 -115q-215 0 -370 170q-21 23 -38 49zM454 57
q23 23 56 23t56.5 -23.5t23.5 -56.5q0 -10 -2 -19l-17 -60q37 -15 69 -41q70 -61 70 -150t-70.5 -149.5t-169.5 -60.5q-59 0 -114 29l-91 54q-35 29 -35 67q0 33 23.5 56.5t56.5 23.5q24 0 43 -12l78 -48q19 -10 39 -10q33 0 56.5 13.5t23.5 36.5t-23.5 36.5t-56.5 13.5
t-56.5 23.5t-23.5 56.5q0 14 4 26l39 137q6 19 21 34z" />
    <glyph glyph-name="scedilla" unicode="&#x15f;" horiz-adv-x="1060" 
d="M278 560q-91 34 -127 71q-71 70 -71 169t74 173q144 147 376 147q251 0 430 -201q16 -19 15 -47q0 -33 -23.5 -56.5t-56.5 -23.5t-53 21t-29 30q-117 117 -283 117t-265 -104q-24 -29 -24 -69q3 -47 49 -64l492 -163q91 -34 127 -71q71 -70 71 -169t-74 -173
q-144 -147 -376 -147q-252 0 -430 201q-15 21 -15 47q0 33 23.5 56.5t56.5 23.5t53 -21t29 -30q117 -117 283 -117t265 104q24 29 24 69q-3 47 -49 64zM464 57q23 23 56 23t56.5 -23.5t23.5 -56.5q0 -10 -2 -19l-17 -60q37 -15 69 -41q70 -61 70 -150t-70.5 -149.5
t-169.5 -60.5q-59 0 -114 29l-91 54q-35 29 -35 67q0 33 23.5 56.5t56.5 23.5q24 0 43 -12l78 -48q19 -10 39 -10q33 0 56.5 13.5t23.5 36.5t-23.5 36.5t-56.5 13.5t-56.5 23.5t-23.5 56.5q0 14 4 26l39 137q6 19 21 34z" />
    <glyph glyph-name="Scaron" unicode="&#x160;" horiz-adv-x="1060" 
d="M96 219q-16 21 -16 48q0 33 23.5 56.5t56.5 23.5q43 0 68 -37q12 -19 28 -36q85 -102 218 -113q132 -10 233 75.5t112 217.5q11 133 -74.5 233.5t-218.5 111.5q-165 14 -272 140t-94 292q14 165 140 272q113 97 260 97q174 0 304 -143q22 -26 39 -54q12 -19 12 -43
q0 -33 -23.5 -56.5t-56.5 -23.5q-38 0 -56 24t-37 49q-65 76 -163 84q-99 8 -175 -56.5t-84 -162.5q-8 -99 56.5 -175t162.5 -84q199 -17 328 -168q113 -134 113 -304q0 -23 -2 -46q-16 -198 -167 -326q-135 -115 -307 -115q-215 0 -370 170q-21 23 -38 49zM530 1720
q-23 0 -41 11l-239 159q-40 30 -40 70q0 33 23.5 56.5t56.5 23.5q29 0 50 -17l190 -126l190 126q21 17 50 17q33 0 56.5 -23.5t23.5 -56.5q0 -40 -40 -70l-239 -159q-18 -11 -41 -11z" />
    <glyph glyph-name="scaron" unicode="&#x161;" horiz-adv-x="1060" 
d="M278 560q-91 34 -127 71q-71 70 -71 169t74 173q144 147 376 147q251 0 430 -201q16 -19 15 -47q0 -33 -23.5 -56.5t-56.5 -23.5t-53 21t-29 30q-117 117 -283 117t-265 -104q-24 -29 -24 -69q3 -47 49 -64l492 -163q91 -34 127 -71q71 -70 71 -169t-74 -173
q-144 -147 -376 -147q-252 0 -430 201q-15 21 -15 47q0 33 23.5 56.5t56.5 23.5t53 -21t29 -30q117 -117 283 -117t265 104q24 29 24 69q-3 47 -49 64zM530 1240q-23 0 -41 11l-239 159q-40 30 -40 70q0 33 23.5 56.5t56.5 23.5q29 0 50 -17l190 -126l190 126q21 17 50 17
q33 0 56.5 -23.5t23.5 -56.5q0 -40 -40 -70l-239 -159q-18 -11 -41 -11z" />
    <glyph glyph-name="Tcommaaccent" unicode="&#x162;" horiz-adv-x="1360" 
d="M160 1440q-33 0 -56.5 23.5t-23.5 56.5t23.5 56.5t56.5 23.5h1040q33 0 56.5 -23.5t23.5 -56.5t-23.5 -56.5t-56.5 -23.5h-440v-1360q0 -33 -23.5 -56.5t-56.5 -23.5t-56.5 23.5t-23.5 56.5v1360h-440zM624 136q23 23 56 23t56.5 -23.5t23.5 -56.5q0 -10 -2 -19l-17 -60
q37 -15 69 -41q70 -61 70 -150t-70.5 -149.5t-169.5 -60.5q-59 0 -114 29l-91 54q-35 29 -35 67q0 33 23.5 56.5t56.5 23.5q24 0 43 -12l78 -48q19 -10 39 -10q33 0 56.5 13.5t23.5 36.5t-23.5 36.5t-56.5 13.5t-56.5 23.5t-23.5 56.5q0 14 4 26l39 137q6 19 21 34z" />
    <glyph glyph-name="tcommaaccent" unicode="&#x163;" horiz-adv-x="800" 
d="M640 160q33 0 56.5 -23.5t23.5 -56.5t-23.5 -56.5t-56.5 -23.5q-400 0 -400 400v560h-80q-33 0 -56.5 23.5t-23.5 56.5t23.5 56.5t56.5 23.5h80v400q0 33 23.5 56.5t56.5 23.5t56.5 -23.5t23.5 -56.5v-400h161q33 0 56.5 -23.5t23.5 -56.5t-23.5 -56.5t-56.5 -23.5h-161
v-560q0 -240 240 -240zM464 77q23 23 56 23t56.5 -23.5t23.5 -56.5q0 -10 -2 -19l-17 -60q37 -15 69 -41q70 -61 70 -150t-70.5 -149.5t-169.5 -60.5q-59 0 -114 29l-91 54q-35 29 -35 67q0 33 23.5 56.5t56.5 23.5q24 0 43 -12l78 -48q19 -10 39 -10q33 0 56.5 13.5
t23.5 36.5t-23.5 36.5t-56.5 13.5t-56.5 23.5t-23.5 56.5q0 14 4 26l39 137q6 19 21 34z" />
    <glyph glyph-name="Tcaron" unicode="&#x164;" horiz-adv-x="1360" 
d="M160 1440q-33 0 -56.5 23.5t-23.5 56.5t23.5 56.5t56.5 23.5h1040q33 0 56.5 -23.5t23.5 -56.5t-23.5 -56.5t-56.5 -23.5h-440v-1360q0 -33 -23.5 -56.5t-56.5 -23.5t-56.5 23.5t-23.5 56.5v1360h-440zM680 1720q-23 0 -41 11l-239 159q-40 30 -40 70q0 33 23.5 56.5
t56.5 23.5q29 0 50 -17l190 -126l190 126q21 17 50 17q33 0 56.5 -23.5t23.5 -56.5q0 -40 -40 -70l-239 -159q-18 -11 -41 -11z" />
    <glyph glyph-name="tcaron" unicode="&#x165;" horiz-adv-x="1040" 
d="M640 160q33 0 56.5 -23.5t23.5 -56.5t-23.5 -56.5t-56.5 -23.5q-400 0 -400 400v560h-80q-33 0 -56.5 23.5t-23.5 56.5t23.5 56.5t56.5 23.5h80v400q0 33 23.5 56.5t56.5 23.5t56.5 -23.5t23.5 -56.5v-400h161q33 0 56.5 -23.5t23.5 -56.5t-23.5 -56.5t-56.5 -23.5h-161
v-560q0 -240 240 -240zM719 1500q0 41 29.5 70.5t70.5 29.5q62 0 90 -58q63 -112 63 -227q0 -175 -152 -358q-17 -17 -42 -17q-24 0 -41.5 17.5t-17.5 41.5q0 14 5 26q98 237 3 435q-8 18 -8 40z" />
    <glyph glyph-name="Tbar" unicode="&#x166;" horiz-adv-x="1360" 
d="M600 800v640h-440q-33 0 -56.5 23.5t-23.5 56.5t23.5 56.5t56.5 23.5h1040q33 0 56.5 -23.5t23.5 -56.5t-23.5 -56.5t-56.5 -23.5h-440v-640h320q33 0 56.5 -23.5t23.5 -56.5t-23.5 -56.5t-56.5 -23.5h-320v-560q0 -33 -23.5 -56.5t-56.5 -23.5t-56.5 23.5t-23.5 56.5
v560h-320q-33 0 -56.5 23.5t-23.5 56.5t23.5 56.5t56.5 23.5h320z" />
    <glyph glyph-name="tbar" unicode="&#x167;" horiz-adv-x="800" 
d="M400 560v-160q0 -240 240 -240q33 0 56.5 -23.5t23.5 -56.5t-23.5 -56.5t-56.5 -23.5q-400 0 -400 400v160h-81q-33 0 -56.5 23.5t-23.5 56.5t23.5 56.5t56.5 23.5h81v240h-80q-33 0 -56.5 23.5t-23.5 56.5t23.5 56.5t56.5 23.5h80v400q0 33 23.5 56.5t56.5 23.5
t56.5 -23.5t23.5 -56.5v-400h161q33 0 56.5 -23.5t23.5 -56.5t-23.5 -56.5t-56.5 -23.5h-161v-240h160q33 0 56.5 -23.5t23.5 -56.5t-23.5 -56.5t-56.5 -23.5h-160z" />
    <glyph glyph-name="Utilde" unicode="&#x168;" 
d="M80 1520q0 33 23.5 56.5t56.5 23.5t56.5 -23.5t23.5 -56.5v-960q0 -166 117 -283t283 -117t283 117t117 283v960q0 33 23.5 56.5t56.5 23.5t56.5 -23.5t23.5 -56.5v-960q0 -232 -164 -396t-396 -164t-396 164t-164 396v960zM696 1801q-90 -80 -212 -80q-133 0 -227 94
q-22 24 -22 56q0 33 23.5 56.5t56.5 23.5q32 0 56 -22q47 -48 113 -48q56 0 100 35q89 80 212 80q133 0 227 -94q22 -24 22 -56q0 -33 -23.5 -56.5t-56.5 -23.5q-32 0 -56 22q-47 48 -113 48q-57 0 -100 -35z" />
    <glyph glyph-name="utilde" unicode="&#x169;" horiz-adv-x="1200" 
d="M1120 80q0 -33 -23.5 -56.5t-56.5 -23.5t-56.5 23.5t-23.5 56.5v65q-150 -145 -360 -145q-215 0 -367.5 152.5t-152.5 367.5v520q0 33 23.5 56.5t56.5 23.5t56.5 -23.5t23.5 -56.5v-520q0 -149 105.5 -254.5t254.5 -105.5t254.5 105.5t105.5 254.5v520q0 33 23.5 56.5
t56.5 23.5t56.5 -23.5t23.5 -56.5v-960zM656 1321q-90 -80 -212 -80q-133 0 -227 94q-22 24 -22 56q0 33 23.5 56.5t56.5 23.5q32 0 56 -22q47 -48 113 -48q56 0 100 35q89 80 212 80q133 0 227 -94q22 -24 22 -56q0 -33 -23.5 -56.5t-56.5 -23.5q-32 0 -56 22
q-47 48 -113 48q-57 0 -100 -35z" />
    <glyph glyph-name="Umacron" unicode="&#x16a;" 
d="M80 1520q0 33 23.5 56.5t56.5 23.5t56.5 -23.5t23.5 -56.5v-960q0 -166 117 -283t283 -117t283 117t117 283v960q0 33 23.5 56.5t56.5 23.5t56.5 -23.5t23.5 -56.5v-960q0 -232 -164 -396t-396 -164t-396 164t-164 396v960zM400 1760q-33 0 -56.5 23.5t-23.5 56.5
t23.5 56.5t56.5 23.5h480q33 0 56.5 -23.5t23.5 -56.5t-23.5 -56.5t-56.5 -23.5h-480z" />
    <glyph glyph-name="umacron" unicode="&#x16b;" horiz-adv-x="1200" 
d="M1120 80q0 -33 -23.5 -56.5t-56.5 -23.5t-56.5 23.5t-23.5 56.5v65q-150 -145 -360 -145q-215 0 -367.5 152.5t-152.5 367.5v520q0 33 23.5 56.5t56.5 23.5t56.5 -23.5t23.5 -56.5v-520q0 -149 105.5 -254.5t254.5 -105.5t254.5 105.5t105.5 254.5v520q0 33 23.5 56.5
t56.5 23.5t56.5 -23.5t23.5 -56.5v-960zM360 1280q-33 0 -56.5 23.5t-23.5 56.5t23.5 56.5t56.5 23.5h480q33 0 56.5 -23.5t23.5 -56.5t-23.5 -56.5t-56.5 -23.5h-480z" />
    <glyph glyph-name="Ubreve" unicode="&#x16c;" 
d="M80 1520q0 33 23.5 56.5t56.5 23.5t56.5 -23.5t23.5 -56.5v-960q0 -166 117 -283t283 -117t283 117t117 283v960q0 33 23.5 56.5t56.5 23.5t56.5 -23.5t23.5 -56.5v-960q0 -232 -164 -396t-396 -164t-396 164t-164 396v960zM326 1960q0 33 23.5 56.5t56.5 23.5
t56.5 -23.5t23.5 -56.5t47 -56.5t113 -23.5t113.5 23.5t47.5 56.5t23.5 56.5t56.5 23.5t56.5 -23.5t23.5 -56.5q-5 -105 -94 -169q-94 -71 -227 -71t-226.5 70.5t-93.5 169.5z" />
    <glyph glyph-name="ubreve" unicode="&#x16d;" horiz-adv-x="1200" 
d="M1120 80q0 -33 -23.5 -56.5t-56.5 -23.5t-56.5 23.5t-23.5 56.5v65q-150 -145 -360 -145q-215 0 -367.5 152.5t-152.5 367.5v520q0 33 23.5 56.5t56.5 23.5t56.5 -23.5t23.5 -56.5v-520q0 -149 105.5 -254.5t254.5 -105.5t254.5 105.5t105.5 254.5v520q0 33 23.5 56.5
t56.5 23.5t56.5 -23.5t23.5 -56.5v-960zM286 1480q0 33 23.5 56.5t56.5 23.5t56.5 -23.5t23.5 -56.5t47 -56.5t113 -23.5t113.5 23.5t47.5 56.5t23.5 56.5t56.5 23.5t56.5 -23.5t23.5 -56.5q-5 -105 -94 -169q-94 -71 -227 -71t-226.5 70.5t-93.5 169.5z" />
    <glyph glyph-name="Uring" unicode="&#x16e;" 
d="M80 1520q0 33 23.5 56.5t56.5 23.5t56.5 -23.5t23.5 -56.5v-960q0 -166 117 -283t283 -117t283 117t117 283v960q0 33 23.5 56.5t56.5 23.5t56.5 -23.5t23.5 -56.5v-960q0 -232 -164 -396t-396 -164t-396 164t-164 396v960zM842 1879q0 -84 -59 -143t-142 -59
q-84 0 -143 59t-59 143q0 83 59 142t143 59q83 0 142 -59t59 -142zM641 1979q-42 0 -71.5 -29.5t-29.5 -70.5q0 -42 29.5 -71.5t71.5 -29.5q41 0 70.5 29.5t29.5 71.5q0 41 -29.5 70.5t-70.5 29.5z" />
    <glyph glyph-name="uring" unicode="&#x16f;" horiz-adv-x="1200" 
d="M1120 80q0 -33 -23.5 -56.5t-56.5 -23.5t-56.5 23.5t-23.5 56.5v65q-150 -145 -360 -145q-215 0 -367.5 152.5t-152.5 367.5v520q0 33 23.5 56.5t56.5 23.5t56.5 -23.5t23.5 -56.5v-520q0 -149 105.5 -254.5t254.5 -105.5t254.5 105.5t105.5 254.5v520q0 33 23.5 56.5
t56.5 23.5t56.5 -23.5t23.5 -56.5v-960zM802 1399q0 -84 -59 -143t-142 -59q-84 0 -143 59t-59 143q0 83 59 142t143 59q83 0 142 -59t59 -142zM601 1499q-42 0 -71.5 -29.5t-29.5 -70.5q0 -42 29.5 -71.5t71.5 -29.5q41 0 70.5 29.5t29.5 71.5q0 41 -29.5 70.5t-70.5 29.5z
" />
    <glyph glyph-name="Uhungarumlaut" unicode="&#x170;" 
d="M80 1520q0 33 23.5 56.5t56.5 23.5t56.5 -23.5t23.5 -56.5v-960q0 -166 117 -283t283 -117t283 117t117 283v960q0 33 23.5 56.5t56.5 23.5t56.5 -23.5t23.5 -56.5v-960q0 -232 -164 -396t-396 -164t-396 164t-164 396v960zM476 1699q-17 -36 -56 -38q-37 0 -55 36
q-5 12 -5 24q0 11 4 22l91 287q12 30 43 44q16 6 31 6t30 -5q31 -12 44 -42.5t1 -61.5zM786 1699q-17 -36 -56 -38q-37 0 -55 36q-5 12 -5 24q0 11 4 22l91 287q12 30 43 44q16 6 31 6t30 -5q31 -12 44 -42.5t1 -61.5z" />
    <glyph glyph-name="uhungarumlaut" unicode="&#x171;" horiz-adv-x="1200" 
d="M1120 80q0 -33 -23.5 -56.5t-56.5 -23.5t-56.5 23.5t-23.5 56.5v65q-150 -145 -360 -145q-215 0 -367.5 152.5t-152.5 367.5v520q0 33 23.5 56.5t56.5 23.5t56.5 -23.5t23.5 -56.5v-520q0 -149 105.5 -254.5t254.5 -105.5t254.5 105.5t105.5 254.5v520q0 33 23.5 56.5
t56.5 23.5t56.5 -23.5t23.5 -56.5v-960zM436 1219q-17 -36 -56 -38q-37 0 -55 36q-5 12 -5 24q0 11 4 22l91 287q12 30 43 44q16 6 31 6t30 -5q31 -12 44 -42.5t1 -61.5zM746 1219q-17 -36 -56 -38q-37 0 -55 36q-5 12 -5 24q0 11 4 22l91 287q12 30 43 44q16 6 31 6t30 -5
q31 -12 44 -42.5t1 -61.5z" />
    <glyph glyph-name="Uogonek" unicode="&#x172;" 
d="M80 1520q0 33 23.5 56.5t56.5 23.5t56.5 -23.5t23.5 -56.5v-960q0 -166 117 -283t283 -117t283 117t117 283v960q0 33 23.5 56.5t56.5 23.5t56.5 -23.5t23.5 -56.5v-960q0 -232 -164 -396t-396 -164t-396 164t-164 396v960zM570 39q20 40 70 41q33 0 57 -23
q22 -23 23 -54q0 -13 -2 -23q-15 -73 -123 -151q-35 -28 -35 -66q0 -33 23.5 -56.5t56.5 -23.5q24 0 43 13l69 51q21 16 48 16q33 0 56.5 -23.5t23.5 -56.5q0 -40 -28 -62l-80 -56q-61 -42 -132 -42q-99 0 -169.5 70.5t-70.5 169.5q0 116 102 196q53 44 68 80z" />
    <glyph glyph-name="uogonek" unicode="&#x173;" 
d="M1120 80q0 -33 -23.5 -56.5t-56.5 -23.5t-56.5 23.5t-23.5 56.5v65q-150 -145 -360 -145q-215 0 -367.5 152.5t-152.5 367.5v520q0 33 23.5 56.5t56.5 23.5t56.5 -23.5t23.5 -56.5v-520q0 -149 105.5 -254.5t254.5 -105.5t254.5 105.5t105.5 254.5v520q0 33 23.5 56.5
t56.5 23.5t56.5 -23.5t23.5 -56.5v-960zM970 116q20 40 70 41q33 0 57 -23q22 -23 23 -54q0 -13 -2 -23q-15 -73 -123 -151q-35 -28 -35 -66q0 -33 23.5 -56.5t56.5 -23.5q24 0 43 13l69 51q21 16 48 16q33 0 56.5 -23.5t23.5 -56.5q0 -40 -28 -62l-80 -56q-61 -42 -132 -42
q-99 0 -169.5 70.5t-70.5 169.5q0 116 102 196q53 44 68 80z" />
    <glyph glyph-name="Wcircumflex" unicode="&#x174;" horiz-adv-x="1920" 
d="M904 1577q23 23 56 23t57 -23q13 -14 19 -30l324 -1168l324 1168q6 16 20 30q23 23 56 23t56.5 -23.5t23.5 -56.5q0 -17 -6 -35l-392 -1418q-8 -25 -25 -43q-24 -24 -57 -24t-56 24q-18 18 -25 42l-319 1152l-318 -1151q-8 -25 -25 -43q-24 -24 -57 -24t-56 24
q-18 18 -25 42l-393 1419q-6 18 -6 35q0 33 23.5 56.5t56.5 23.5t57 -23q13 -14 19 -30l324 -1168l324 1168q4 15 20 30zM1001 2029l239 -159q40 -30 40 -70q0 -33 -23.5 -56.5t-56.5 -23.5q-29 0 -50 17l-190 126l-190 -126q-21 -17 -50 -17q-33 0 -56.5 23.5t-23.5 56.5
q0 40 40 70l239 159q18 11 41 11t41 -11z" />
    <glyph glyph-name="wcircumflex" unicode="&#x175;" horiz-adv-x="1600" 
d="M744 1097q23 23 56 23t57 -23q15 -16 21 -37l242 -727l247 741q6 12 17 23q23 23 56 23t56.5 -23.5t23.5 -56.5q0 -16 -6 -31l-319 -958q-6 -15 -18 -29q-24 -22 -57 -22t-56 22q-13 14 -19 29l-245 736l-245 -736q-6 -15 -18 -29q-24 -22 -57 -22t-56 22q-13 14 -19 29
l-319 958q-6 15 -6 31q0 33 23.5 56.5t56.5 23.5t57 -23q10 -11 16 -23l247 -741l242 727q7 21 22 37zM841 1549l239 -159q40 -30 40 -70q0 -33 -23.5 -56.5t-56.5 -23.5q-29 0 -50 17l-190 126l-190 -126q-21 -17 -50 -17q-33 0 -56.5 23.5t-23.5 56.5q0 40 40 70l239 159
q18 11 41 11t41 -11z" />
    <glyph glyph-name="Ycircumflex" unicode="&#x176;" 
d="M720 80q0 -33 -23.5 -56.5t-56.5 -23.5t-56.5 23.5t-23.5 56.5v696l-467 699q-13 20 -13 45q0 33 23.5 56.5t56.5 23.5q41 0 65 -33l415 -622l415 622q24 33 65 33q33 0 56.5 -23.5t23.5 -56.5q0 -25 -13 -45l-467 -699v-696zM681 2029l239 -159q40 -30 40 -70
q0 -33 -23.5 -56.5t-56.5 -23.5q-29 0 -50 17l-190 126l-190 -126q-21 -17 -50 -17q-33 0 -56.5 23.5t-23.5 56.5q0 40 40 70l239 159q18 11 41 11t41 -11z" />
    <glyph glyph-name="ycircumflex" unicode="&#x177;" horiz-adv-x="1120" 
d="M473 81l-384 922q-9 17 -9 37q0 33 23.5 56.5t56.5 23.5t57 -23q13 -14 19 -30l324 -777l324 777q6 16 20 30q23 23 56 23t56.5 -23.5t23.5 -56.5q0 -20 -9 -37l-596 -1430q-6 -16 -19 -29q-24 -24 -57 -24t-56.5 23.5t-23.5 56.5q0 20 9 37zM601 1549l239 -159
q40 -30 40 -70q0 -33 -23.5 -56.5t-56.5 -23.5q-29 0 -50 17l-190 126l-190 -126q-21 -17 -50 -17q-33 0 -56.5 23.5t-23.5 56.5q0 40 40 70l239 159q18 11 41 11t41 -11z" />
    <glyph glyph-name="Ydieresis" unicode="&#x178;" 
d="M720 80q0 -33 -23.5 -56.5t-56.5 -23.5t-56.5 23.5t-23.5 56.5v696l-467 699q-13 20 -13 45q0 33 23.5 56.5t56.5 23.5q41 0 65 -33l415 -622l415 622q24 33 65 33q33 0 56.5 -23.5t23.5 -56.5q0 -25 -13 -45l-467 -699v-696zM500 1840q0 -41 -29.5 -70.5t-70.5 -29.5
t-70.5 29.5t-29.5 70.5t29.5 70.5t70.5 29.5t70.5 -29.5t29.5 -70.5zM980 1840q0 -41 -29.5 -70.5t-70.5 -29.5t-70.5 29.5t-29.5 70.5t29.5 70.5t70.5 29.5t70.5 -29.5t29.5 -70.5z" />
    <glyph glyph-name="Zacute" unicode="&#x179;" horiz-adv-x="1440" 
d="M160 1440q-33 0 -56.5 23.5t-23.5 56.5t23.5 56.5t56.5 23.5h1120q33 0 56.5 -23.5t23.5 -56.5q0 -26 -14 -46l-1022 -1314h956q33 0 56.5 -23.5t23.5 -56.5t-23.5 -56.5t-56.5 -23.5h-1120q-33 0 -56.5 23.5t-23.5 56.5q0 28 17 50l1019 1310h-956zM965 1944l-243 -243
q-23 -21 -55 -21q-33 0 -56.5 23.5t-23.5 56.5q0 31 20 54l243 243q24 23 57 23t56.5 -23.5t23.5 -56.5q0 -32 -22 -56z" />
    <glyph glyph-name="zacute" unicode="&#x17a;" horiz-adv-x="1120" 
d="M960 160q33 0 56.5 -23.5t23.5 -56.5t-23.5 -56.5t-56.5 -23.5h-800q-33 0 -56.5 23.5t-23.5 56.5q0 28 16 49l693 831h-629q-33 0 -56.5 23.5t-23.5 56.5t23.5 56.5t56.5 23.5h800q33 0 56.5 -23.5t23.5 -56.5q0 -30 -19 -52l-691 -828h630zM805 1464l-243 -243
q-23 -21 -55 -21q-33 0 -56.5 23.5t-23.5 56.5q0 31 20 54l243 243q24 23 57 23t56.5 -23.5t23.5 -56.5q0 -32 -22 -56z" />
    <glyph glyph-name="Zdotaccent" unicode="&#x17b;" horiz-adv-x="1440" 
d="M160 1440q-33 0 -56.5 23.5t-23.5 56.5t23.5 56.5t56.5 23.5h1120q33 0 56.5 -23.5t23.5 -56.5q0 -26 -14 -46l-1022 -1314h956q33 0 56.5 -23.5t23.5 -56.5t-23.5 -56.5t-56.5 -23.5h-1120q-33 0 -56.5 23.5t-23.5 56.5q0 28 17 50l1019 1310h-956zM840 1841
q0 -50 -35 -85t-85 -35t-85 35t-35 85t35 85t85 35t85 -35t35 -85z" />
    <glyph glyph-name="zdotaccent" unicode="&#x17c;" horiz-adv-x="1120" 
d="M960 160q33 0 56.5 -23.5t23.5 -56.5t-23.5 -56.5t-56.5 -23.5h-800q-33 0 -56.5 23.5t-23.5 56.5q0 28 16 49l693 831h-629q-33 0 -56.5 23.5t-23.5 56.5t23.5 56.5t56.5 23.5h800q33 0 56.5 -23.5t23.5 -56.5q0 -30 -19 -52l-691 -828h630zM680 1361q0 -50 -35 -85
t-85 -35t-85 35t-35 85t35 85t85 35t85 -35t35 -85z" />
    <glyph glyph-name="Zcaron" unicode="&#x17d;" horiz-adv-x="1440" 
d="M160 1440q-33 0 -56.5 23.5t-23.5 56.5t23.5 56.5t56.5 23.5h1120q33 0 56.5 -23.5t23.5 -56.5q0 -26 -14 -46l-1022 -1314h956q33 0 56.5 -23.5t23.5 -56.5t-23.5 -56.5t-56.5 -23.5h-1120q-33 0 -56.5 23.5t-23.5 56.5q0 28 17 50l1019 1310h-956zM720 1720
q-23 0 -41 11l-239 159q-40 30 -40 70q0 33 23.5 56.5t56.5 23.5q29 0 50 -17l190 -126l190 126q21 17 50 17q33 0 56.5 -23.5t23.5 -56.5q0 -40 -40 -70l-239 -159q-18 -11 -41 -11z" />
    <glyph glyph-name="zcaron" unicode="&#x17e;" horiz-adv-x="1120" 
d="M960 160q33 0 56.5 -23.5t23.5 -56.5t-23.5 -56.5t-56.5 -23.5h-800q-33 0 -56.5 23.5t-23.5 56.5q0 28 16 49l693 831h-629q-33 0 -56.5 23.5t-23.5 56.5t23.5 56.5t56.5 23.5h800q33 0 56.5 -23.5t23.5 -56.5q0 -30 -19 -52l-691 -828h630zM560 1240q-23 0 -41 11
l-239 159q-40 30 -40 70q0 33 23.5 56.5t56.5 23.5q29 0 50 -17l190 -126l190 126q21 17 50 17q33 0 56.5 -23.5t23.5 -56.5q0 -40 -40 -70l-239 -159q-18 -11 -41 -11z" />
    <glyph glyph-name="longs" unicode="&#x17f;" horiz-adv-x="640" 
d="M560 1600q33 0 56.5 -23.5t23.5 -56.5t-23.5 -56.5t-56.5 -23.5q-320 0 -320 -320v-1040q0 -33 -23.5 -56.5t-56.5 -23.5t-56.5 23.5t-23.5 56.5v1040q0 480 480 480z" />
    <glyph glyph-name="florin" unicode="&#x192;" horiz-adv-x="960" 
d="M401 0l-1 900h-80q-33 0 -56.5 23.5t-23.5 56.5t23.5 56.5t56.5 23.5h80v60q0 480 480 480q33 0 56.5 -23.5t23.5 -56.5t-23.5 -56.5t-56.5 -23.5q-320 0 -320 -320v-60h241q33 0 56.5 -23.5t23.5 -56.5t-23.5 -56.5t-56.5 -23.5h-241l1 -900h-1q0 -480 -480 -480
q-33 0 -56.5 23.5t-23.5 56.5t23.5 56.5t56.5 23.5q320 0 320 320h1z" />
    <glyph glyph-name="Aringacute" unicode="&#x1fa;" horiz-adv-x="1440" 
d="M945 720l-225 579l-225 -579h450zM719 1802q-42 0 -71.5 -29.5t-29.5 -70.5q0 -42 29.5 -71.5t71.5 -29.5q41 0 70.5 29.5t29.5 71.5q0 41 -29.5 70.5t-70.5 29.5zM807 1520l546 -1406q7 -15 7 -34q0 -33 -23.5 -56.5t-56.5 -23.5t-56 24q-12 11 -18 25l-199 511h-574
l-199 -511q-6 -14 -17 -25q-24 -24 -57 -24t-56.5 23.5t-23.5 56.5q0 19 7 34l546 1404q-31 15 -57 41q-59 59 -59 143q0 87 73 155q-30 30 -30 63q0 31 20 54l83 83q24 23 57 23t56.5 -23.5t23.5 -56.5q0 -32 -22 -56l-42 -42q72 -5 125 -58q59 -59 59 -142q0 -84 -59 -143
q-25 -25 -54 -39z" />
    <glyph glyph-name="aringacute" unicode="&#x1fb;" 
d="M640 960q-166 0 -283 -117t-117 -283t117 -283t283 -117t283 117t117 283t-117 283t-283 117zM1040 168q-168 -168 -400 -168t-396 164t-164 396t164 396t396 164t396 -164t164 -396v-480q0 -33 -23.5 -56.5t-56.5 -23.5t-56.5 23.5t-23.5 56.5v88zM842 1399
q0 -84 -59 -143t-142 -59q-84 0 -143 59t-59 143q0 83 59 142t143 59q83 0 142 -59t59 -142zM641 1499q-42 0 -71.5 -29.5t-29.5 -70.5q0 -42 29.5 -71.5t71.5 -29.5q41 0 70.5 29.5t29.5 71.5q0 41 -29.5 70.5t-70.5 29.5zM858 1883l-243 -243q-23 -21 -55 -21
q-33 0 -56.5 23.5t-23.5 56.5q0 31 20 54l243 243q24 23 57 23t56.5 -23.5t23.5 -56.5q0 -32 -22 -56z" />
    <glyph glyph-name="AEacute" unicode="&#x1fc;" horiz-adv-x="1760" 
d="M880 1210l-228 -410h228v410zM1600 1600q33 0 56.5 -23.5t23.5 -56.5t-23.5 -56.5t-56.5 -23.5h-560v-640h400q33 0 56.5 -23.5t23.5 -56.5t-23.5 -56.5t-56.5 -23.5h-400v-480h560q33 0 56.5 -23.5t23.5 -56.5t-23.5 -56.5t-56.5 -23.5h-640q-33 0 -56.5 23.5
t-23.5 56.5v560h-317l-335 -603q-25 -37 -68 -37q-33 0 -56.5 23.5t-23.5 56.5q0 22 10 39l802 1444q23 37 68 37h640zM1258 1944l-243 -243q-23 -21 -55 -21q-33 0 -56.5 23.5t-23.5 56.5q0 31 20 54l243 243q24 23 57 23t56.5 -23.5t23.5 -56.5q0 -32 -22 -56z" />
    <glyph glyph-name="aeacute" unicode="&#x1fd;" horiz-adv-x="2240" 
d="M640 960q-166 0 -283 -117t-117 -283t117 -283t283 -117t283 117t117 283t-117 283t-283 117zM1993 640q-22 115 -110 203q-117 117 -283 117t-283 -117q-88 -88 -110 -203h786zM1200 168v-88q0 -33 -23.5 -56.5t-56.5 -23.5t-56.5 23.5t-23.5 56.5v88
q-168 -168 -400 -168t-396 164t-164 396t164 396t396 164t396 -164q49 -49 84 -105q35 56 84 105q164 164 396 164t396 -164t164 -396q0 -33 -23.5 -56.5t-56.5 -23.5h-873q22 -115 110 -203q117 -117 283 -117q150 0 258 95q22 17 50 17q33 0 56.5 -23.5t23.5 -56.5
t-23 -57q-155 -135 -365 -135q-232 0 -400 168zM1365 1464l-243 -243q-23 -21 -55 -21q-33 0 -56.5 23.5t-23.5 56.5q0 31 20 54l243 243q24 23 57 23t56.5 -23.5t23.5 -56.5q0 -32 -22 -56z" />
    <glyph glyph-name="Oslashacute" unicode="&#x1fe;" horiz-adv-x="1760" 
d="M1500 1306q180 -216 180 -506q0 -331 -234.5 -565.5t-565.5 -234.5q-290 0 -506 180l-157 -157q-24 -23 -57 -23t-56.5 23.5t-23.5 56.5q0 32 21 55l159 159q-180 216 -180 506q0 331 234.5 565.5t565.5 234.5q290 0 506 -180l157 157q24 23 57 23t56.5 -23.5t23.5 -56.5
q0 -29 -18 -51zM374 408l898 898q-168 134 -392 134q-265 0 -452.5 -187.5t-187.5 -452.5q0 -224 134 -392zM1386 1193l-898 -899q168 -134 392 -134q265 0 452.5 187.5t187.5 452.5q0 224 -134 393zM1098 1944l-243 -243q-23 -21 -55 -21q-33 0 -56.5 23.5t-23.5 56.5
q0 31 20 54l243 243q24 23 57 23t56.5 -23.5t23.5 -56.5q0 -32 -22 -56z" />
    <glyph glyph-name="oslashacute" unicode="&#x1ff;" 
d="M861 894q-97 66 -221 66q-166 0 -283 -117t-117 -283q0 -124 65 -221zM975 781l-556 -556q97 -65 221 -65q166 0 283 117t117 283q0 124 -65 221zM976 1009l85 85q26 26 59 26t56.5 -23.5t23.5 -56.5q0 -32 -22 -56l-89 -89q111 -144 111 -335q0 -232 -164 -396
t-396 -164q-191 0 -335 111l-88 -88q-24 -23 -57 -23t-56.5 23.5t-23.5 56.5q0 32 22 56l89 89q-111 144 -111 335q0 232 164 396t396 164q191 0 336 -111zM858 1464l-243 -243q-23 -21 -55 -21q-33 0 -56.5 23.5t-23.5 56.5q0 31 20 54l243 243q24 23 57 23t56.5 -23.5
t23.5 -56.5q0 -32 -22 -56z" />
    <glyph glyph-name="uni0259" unicode="&#x259;" 
d="M247.063 480.039q21.998 -114.993 109.993 -202.987q116.992 -116.993 282.982 -116.993t282.982 116.993q87.9951 87.9941 109.993 202.987h-785.951zM332.058 848.017q-32.998 0 -56.4961 23.499q-23.499 23.498 -23.499 56.4961t22.999 56.9961
q154.99 134.992 364.978 134.992q231.986 0 395.976 -163.99q163.99 -163.99 163.99 -395.976t-163.99 -395.976q-163.989 -163.99 -395.976 -163.99t-395.976 163.99q-163.99 163.99 -163.99 395.976q0 32.998 23.499 56.4961q23.498 23.499 56.4961 23.499h872.946
q-21.998 114.993 -109.993 202.987q-116.992 116.993 -282.982 116.993q-149.991 0 -257.984 -94.9941q-21.998 -16.999 -49.9971 -16.999z" />
    <glyph glyph-name="circumflex" unicode="&#x2c6;" horiz-adv-x="800" 
d="M441 1549l239 -159q40 -30 40 -70q0 -33 -23.5 -56.5t-56.5 -23.5q-29 0 -50 17l-190 126l-190 -126q-21 -17 -50 -17q-33 0 -56.5 23.5t-23.5 56.5q0 40 40 70l239 159q18 11 41 11t41 -11z" />
    <glyph glyph-name="caron" unicode="&#x2c7;" horiz-adv-x="800" 
d="M400 1240q-23 0 -41 11l-239 159q-40 30 -40 70q0 33 23.5 56.5t56.5 23.5q29 0 50 -17l190 -126l190 126q21 17 50 17q33 0 56.5 -23.5t23.5 -56.5q0 -40 -40 -70l-239 -159q-18 -11 -41 -11z" />
    <glyph glyph-name="uni02C9" unicode="&#x2c9;" horiz-adv-x="800" 
d="M160 1280q-33 0 -56.5 23.5t-23.5 56.5t23.5 56.5t56.5 23.5h480q33 0 56.5 -23.5t23.5 -56.5t-23.5 -56.5t-56.5 -23.5h-480z" />
    <glyph glyph-name="breve" unicode="&#x2d8;" horiz-adv-x="800" 
d="M80 1480q0 33 23.5 56.5t56.5 23.5t56.5 -23.5t23.5 -56.5t47 -56.5t113 -23.5t113.5 23.5t47.5 56.5t23.5 56.5t56.5 23.5t56.5 -23.5t23.5 -56.5q-5 -105 -94 -169q-94 -71 -227 -71t-226.5 70.5t-93.5 169.5z" />
    <glyph glyph-name="dotaccent" unicode="&#x2d9;" horiz-adv-x="400" 
d="M320 1361q0 -50 -35 -85t-85 -35t-85 35t-35 85t35 85t85 35t85 -35t35 -85z" />
    <glyph glyph-name="ring" unicode="&#x2da;" horiz-adv-x="560" 
d="M483 1399q0 -84 -59 -143t-142 -59q-84 0 -143 59t-59 143q0 83 59 142t143 59q83 0 142 -59t59 -142zM282 1499q-42 0 -71.5 -29.5t-29.5 -70.5q0 -42 29.5 -71.5t71.5 -29.5q41 0 70.5 29.5t29.5 71.5q0 41 -29.5 70.5t-70.5 29.5z" />
    <glyph glyph-name="ogonek" unicode="&#x2db;" horiz-adv-x="640" 
d="M250 36q20 40 70 41q33 0 57 -23q22 -23 23 -54q0 -13 -2 -23q-15 -73 -123 -151q-35 -28 -35 -66q0 -33 23.5 -56.5t56.5 -23.5q24 0 43 13l69 51q21 16 48 16q33 0 56.5 -23.5t23.5 -56.5q0 -40 -28 -62l-80 -56q-61 -42 -132 -42q-99 0 -169.5 70.5t-70.5 169.5
q0 116 102 196q53 44 68 80z" />
    <glyph glyph-name="tilde" unicode="&#x2dc;" horiz-adv-x="960" 
d="M532 1321q-90 -80 -212 -80q-133 0 -227 94q-22 24 -22 56q0 33 23.5 56.5t56.5 23.5q32 0 56 -22q47 -48 113 -48q56 0 100 35q89 80 212 80q133 0 227 -94q22 -24 22 -56q0 -33 -23.5 -56.5t-56.5 -23.5q-32 0 -56 22q-47 48 -113 48q-57 0 -100 -35z" />
    <glyph glyph-name="hungarumlaut" unicode="&#x2dd;" horiz-adv-x="720" 
d="M196 1219q-17 -36 -56 -38q-37 0 -55 36q-5 12 -5 24q0 11 4 22l91 287q12 30 43 44q16 6 31 6t30 -5q31 -12 44 -42.5t1 -61.5zM506 1219q-17 -36 -56 -38q-37 0 -55 36q-5 12 -5 24q0 11 4 22l91 287q12 30 43 44q16 6 31 6t30 -5q31 -12 44 -42.5t1 -61.5z" />
    <glyph glyph-name="tonos" unicode="&#x384;" horiz-adv-x="560" 
d="M458 1464l-243 -243q-23 -21 -55 -21q-33 0 -56.5 23.5t-23.5 56.5q0 31 20 54l243 243q24 23 57 23t56.5 -23.5t23.5 -56.5q0 -32 -22 -56z" />
    <glyph glyph-name="dieresistonos" unicode="&#x385;" horiz-adv-x="960" 
d="M679 1464l-243 -243q-23 -21 -55 -21q-33 0 -56.5 23.5t-23.5 56.5q0 31 20 54l243 243q24 23 57 23t56.5 -23.5t23.5 -56.5q0 -32 -22 -56zM260 1360q0 -41 -29.5 -70.5t-70.5 -29.5t-70.5 29.5t-29.5 70.5t29.5 70.5t70.5 29.5t70.5 -29.5t29.5 -70.5zM900 1360
q0 -41 -29.5 -70.5t-70.5 -29.5t-70.5 29.5t-29.5 70.5t29.5 70.5t70.5 29.5t70.5 -29.5t29.5 -70.5z" />
    <glyph glyph-name="Alphatonos" unicode="&#x386;" horiz-adv-x="1440" 
d="M538 1464l-243 -243q-23 -21 -55 -21q-33 0 -56.5 23.5t-23.5 56.5q0 31 20 54l243 243q24 23 57 23t56.5 -23.5t23.5 -56.5q0 -32 -22 -56zM433 560l-199 -511q-6 -14 -17 -26q-24 -23 -57 -23t-56.5 23.5t-23.5 56.5q0 19 7 34l556 1430q6 18 21 33q23 23 56 23t57 -23
q14 -15 20 -33l556 -1430q7 -15 7 -34q0 -33 -23.5 -56.5t-56.5 -23.5t-56 23q-12 12 -18 26l-199 511h-574zM945 720l-225 579l-225 -579h450z" />
    <glyph glyph-name="anoteleia" unicode="&#x387;" horiz-adv-x="400" 
d="M320 1000q0 -50 -35 -85t-85 -35t-85 35t-35 85t35 85t85 35t85 -35t35 -85z" />
    <glyph glyph-name="Epsilontonos" unicode="&#x388;" horiz-adv-x="1640" 
d="M338 1464l-243 -243q-23 -21 -55 -21q-33 0 -56.5 23.5t-23.5 56.5q0 31 20 54l243 243q24 23 57 23t56.5 -23.5t23.5 -56.5q0 -32 -22 -56zM518 1600h960q33 0 56.5 -23.5t23.5 -56.5t-23.5 -56.5t-56.5 -23.5h-880v-560h640q33 0 56.5 -23.5t23.5 -56.5t-23.5 -56.5
t-56.5 -23.5h-640v-560h880q33 0 56.5 -23.5t23.5 -56.5t-23.5 -56.5t-56.5 -23.5h-960q-33 0 -56.5 23.5t-23.5 56.5v1440q0 33 23.5 56.5t56.5 23.5z" />
    <glyph glyph-name="Etatonos" unicode="&#x389;" horiz-adv-x="1640" 
d="M338 1464l-243 -243q-23 -21 -55 -21q-33 0 -56.5 23.5t-23.5 56.5q0 31 20 54l243 243q24 23 57 23t56.5 -23.5t23.5 -56.5q0 -32 -22 -56zM440 1520q0 33 23.5 56.5t56.5 23.5t56.5 -23.5t23.5 -56.5v-640h800v640q0 33 23.5 56.5t56.5 23.5t56.5 -23.5t23.5 -56.5
v-1440q0 -33 -23.5 -56.5t-56.5 -23.5t-56.5 23.5t-23.5 56.5v640h-800v-640q0 -33 -23.5 -56.5t-56.5 -23.5t-56.5 23.5t-23.5 56.5v1440z" />
    <glyph glyph-name="Iotatonos" unicode="&#x38a;" horiz-adv-x="760" 
d="M338 1464l-243 -243q-23 -21 -55 -21q-33 0 -56.5 23.5t-23.5 56.5q0 31 20 54l243 243q24 23 57 23t56.5 -23.5t23.5 -56.5q0 -32 -22 -56zM441 1520q0 33 23.5 56.5t56.5 23.5t56.5 -23.5t23.5 -56.5v-1440q0 -33 -23.5 -56.5t-56.5 -23.5t-56.5 23.5t-23.5 56.5v1440z
" />
    <glyph glyph-name="Omicrontonos" unicode="&#x38c;" horiz-adv-x="1800" 
d="M338 1464l-243 -243q-23 -21 -55 -21q-33 0 -56.5 23.5t-23.5 56.5q0 31 20 54l243 243q24 23 57 23t56.5 -23.5t23.5 -56.5q0 -32 -22 -56zM920 1440q-265 0 -452.5 -187.5t-187.5 -452.5t187.5 -452.5t452.5 -187.5t452.5 187.5t187.5 452.5t-187.5 452.5t-452.5 187.5
zM1720 800q0 -331 -234.5 -565.5t-565.5 -234.5t-565.5 234.5t-234.5 565.5t234.5 565.5t565.5 234.5t565.5 -234.5t234.5 -565.5z" />
    <glyph glyph-name="Upsilontonos" unicode="&#x38e;" horiz-adv-x="1640" 
d="M338 1464l-243 -243q-23 -21 -55 -21q-33 0 -56.5 23.5t-23.5 56.5q0 31 20 54l243 243q24 23 57 23t56.5 -23.5t23.5 -56.5q0 -32 -22 -56zM1080 80q0 -33 -23.5 -56.5t-56.5 -23.5t-56.5 23.5t-23.5 56.5v696l-467 699q-13 20 -13 45q0 33 23.5 56.5t56.5 23.5
q41 0 65 -33l415 -622l415 622q24 33 65 33q33 0 56.5 -23.5t23.5 -56.5q0 -25 -13 -45l-467 -699v-696z" />
    <glyph glyph-name="Omegatonos" unicode="&#x38f;" horiz-adv-x="1800" 
d="M338 1464l-243 -243q-23 -21 -55 -21q-33 0 -56.5 23.5t-23.5 56.5q0 31 20 54l243 243q24 23 57 23t56.5 -23.5t23.5 -56.5q0 -32 -22 -56zM680 160q33 0 56.5 -23.5t23.5 -56.5t-23.5 -56.5t-56.5 -23.5h-480q-33 0 -56.5 23.5t-23.5 56.5t23.5 56.5t56.5 23.5h143
q-30 34 -59 75q-164 234 -164 565t234.5 565.5t565.5 234.5t565.5 -234.5t234.5 -565.5t-164 -565q-29 -41 -59 -75h143q33 0 56.5 -23.5t23.5 -56.5t-23.5 -56.5t-56.5 -23.5h-480q-33 0 -56.5 23.5t-23.5 56.5t23.5 56.5t56.5 23.5q166 0 283 187.5t117 452.5
t-187.5 452.5t-452.5 187.5t-452.5 -187.5t-187.5 -452.5t117 -452.5t283 -187.5z" />
    <glyph glyph-name="iotadieresistonos" unicode="&#x390;" horiz-adv-x="760" 
d="M300 1040q0 33 23.5 56.5t56.5 23.5t56.5 -23.5t23.5 -56.5v-960q0 -33 -23.5 -56.5t-56.5 -23.5t-56.5 23.5t-23.5 56.5v960zM579 1464l-243 -243q-23 -21 -55 -21q-33 0 -56.5 23.5t-23.5 56.5q0 31 20 54l243 243q24 23 57 23t56.5 -23.5t23.5 -56.5q0 -32 -22 -56z
M160 1360q0 -41 -29.5 -70.5t-70.5 -29.5t-70.5 29.5t-29.5 70.5t29.5 70.5t70.5 29.5t70.5 -29.5t29.5 -70.5zM800 1360q0 -41 -29.5 -70.5t-70.5 -29.5t-70.5 29.5t-29.5 70.5t29.5 70.5t70.5 29.5t70.5 -29.5t29.5 -70.5z" />
    <glyph glyph-name="Alpha" unicode="&#x391;" horiz-adv-x="1440" 
d="M433 560l-199 -511q-6 -14 -17 -26q-24 -23 -57 -23t-56.5 23.5t-23.5 56.5q0 19 7 34l556 1430q6 18 21 33q23 23 56 23t57 -23q14 -15 20 -33l556 -1430q7 -15 7 -34q0 -33 -23.5 -56.5t-56.5 -23.5t-56 23q-12 12 -18 26l-199 511h-574zM945 720l-225 579l-225 -579
h450z" />
    <glyph glyph-name="Beta" unicode="&#x392;" horiz-adv-x="1120" 
d="M240 1440v-480h240q99 0 169.5 70.5t70.5 169.5t-70.5 169.5t-169.5 70.5h-240zM240 800v-640h320q133 0 226.5 93.5t93.5 226.5t-93.5 226.5t-226.5 93.5h-320zM160 1600h320q166 0 283 -117t117 -283t-117 -283q74 -35 137 -97q140 -141 140 -340t-140.5 -339.5
t-339.5 -140.5h-400q-33 0 -56.5 23.5t-23.5 56.5v1440q0 33 23.5 56.5t56.5 23.5z" />
    <glyph glyph-name="Gamma" unicode="&#x393;" 
d="M80 1520q1 33 24.5 56.5t56.5 23.5h960q33 0 56.5 -23.5t23.5 -56.5t-23.5 -56.5t-56.5 -23.5h-881v-1360q0 -33 -23.5 -56.5t-56.5 -23.5t-56.5 23.5t-23.5 56.5v1440z" />
    <glyph glyph-name="uni0394" unicode="&#x394;" horiz-adv-x="1440" 
d="M160 0q-33 0 -56.5 23.5t-23.5 56.5q0 22 10 45l557 1425q6 15 17 26q23 24 56 24t57 -24q10 -11 16 -26l557 -1425q10 -23 10 -45q0 -33 -23.5 -56.5t-56.5 -23.5h-1120zM1163 160l-443 1139l-443 -1139h886z" />
    <glyph glyph-name="Epsilon" unicode="&#x395;" 
d="M160 1600h960q33 0 56.5 -23.5t23.5 -56.5t-23.5 -56.5t-56.5 -23.5h-880v-560h640q33 0 56.5 -23.5t23.5 -56.5t-23.5 -56.5t-56.5 -23.5h-640v-560h880q33 0 56.5 -23.5t23.5 -56.5t-23.5 -56.5t-56.5 -23.5h-960q-33 0 -56.5 23.5t-23.5 56.5v1440q0 33 23.5 56.5
t56.5 23.5z" />
    <glyph glyph-name="Zeta" unicode="&#x396;" horiz-adv-x="1440" 
d="M160 1440q-33 0 -56.5 23.5t-23.5 56.5t23.5 56.5t56.5 23.5h1120q33 0 56.5 -23.5t23.5 -56.5q0 -26 -14 -46l-1022 -1314h956q33 0 56.5 -23.5t23.5 -56.5t-23.5 -56.5t-56.5 -23.5h-1120q-33 0 -56.5 23.5t-23.5 56.5q0 28 17 50l1019 1310h-956z" />
    <glyph glyph-name="Eta" unicode="&#x397;" 
d="M80 1520q0 33 23.5 56.5t56.5 23.5t56.5 -23.5t23.5 -56.5v-640h800v640q0 33 23.5 56.5t56.5 23.5t56.5 -23.5t23.5 -56.5v-1440q0 -33 -23.5 -56.5t-56.5 -23.5t-56.5 23.5t-23.5 56.5v640h-800v-640q0 -33 -23.5 -56.5t-56.5 -23.5t-56.5 23.5t-23.5 56.5v1440z" />
    <glyph glyph-name="Theta" unicode="&#x398;" horiz-adv-x="1760" 
d="M880 1440q-265 0 -452.5 -187.5t-187.5 -452.5t187.5 -452.5t452.5 -187.5t452.5 187.5t187.5 452.5t-187.5 452.5t-452.5 187.5zM1680 800q0 -331 -234.5 -565.5t-565.5 -234.5t-565.5 234.5t-234.5 565.5t234.5 565.5t565.5 234.5t565.5 -234.5t234.5 -565.5zM480 721
q-33 0 -56.5 23.5t-23.5 56.5t23.5 56.5t56.5 23.5h800q33 0 56.5 -23.5t23.5 -56.5t-23.5 -56.5t-56.5 -23.5h-800z" />
    <glyph glyph-name="Iota" unicode="&#x399;" horiz-adv-x="480" 
d="M160 1520q0 33 23.5 56.5t56.5 23.5t56.5 -23.5t23.5 -56.5v-1440q0 -33 -23.5 -56.5t-56.5 -23.5t-56.5 23.5t-23.5 56.5v1440z" />
    <glyph glyph-name="Kappa" unicode="&#x39a;" horiz-adv-x="1200" 
d="M80 1520q0 33 23.5 56.5t56.5 23.5t56.5 -23.5t23.5 -56.5v-686l741 741q26 25 59 25t56.5 -23.5t23.5 -56.5t-23 -57l-562 -562l570 -773q15 -21 15 -45q0 -42 -32 -67q-22 -16 -46 -16q-44 0 -68 34l-554 752l-180 -180v-526q0 -33 -23.5 -56.5t-56.5 -23.5t-56.5 23.5
t-23.5 56.5v1440z" />
    <glyph glyph-name="Lambda" unicode="&#x39b;" horiz-adv-x="1440" 
d="M234 49q-6 -14 -17 -25q-24 -24 -57 -24t-56.5 23.5t-23.5 56.5q0 19 7 34l556 1430q6 18 21 33q23 23 56 23t57 -23q14 -15 20 -33l556 -1430q7 -15 7 -34q0 -33 -23.5 -56.5t-56.5 -23.5t-56 24q-12 11 -18 25l-486 1250z" />
    <glyph glyph-name="Mu" unicode="&#x39c;" horiz-adv-x="1760" 
d="M806 49l-566 1132v-1101q0 -33 -23.5 -56.5t-56.5 -23.5t-56.5 23.5t-23.5 56.5v1440q0 33 23.5 56.5t56.5 23.5q48 0 71 -42l649 -1299l649 1299q23 42 71 42q33 0 56.5 -23.5t23.5 -56.5v-1440q0 -33 -23.5 -56.5t-56.5 -23.5t-56.5 23.5t-23.5 56.5v1101l-571 -1142
q-21 -39 -69 -39q-50 0 -74 49z" />
    <glyph glyph-name="Nu" unicode="&#x39d;" horiz-adv-x="1440" 
d="M240 80q0 -33 -23.5 -56.5t-56.5 -23.5t-56.5 23.5t-23.5 56.5v1440q0 33 23.5 56.5t56.5 23.5q36 0 62 -29l978 -1258v1207q0 33 23.5 56.5t56.5 23.5t56.5 -23.5t23.5 -56.5v-1440q0 -33 -23.5 -56.5t-56.5 -23.5q-35 0 -60 26l-980 1260v-1206z" />
    <glyph glyph-name="Xi" unicode="&#x39e;" 
d="M1120 1600q33 0 56.5 -23.5t23.5 -56.5t-23.5 -56.5t-56.5 -23.5h-960q-33 0 -56.5 23.5t-23.5 56.5t23.5 56.5t56.5 23.5h960zM1120 160q33 0 56.5 -23.5t23.5 -56.5t-23.5 -56.5t-56.5 -23.5h-960q-33 0 -56.5 23.5t-23.5 56.5t23.5 56.5t56.5 23.5h960zM1040 880
q33 0 56.5 -23.5t23.5 -56.5t-23.5 -56.5t-56.5 -23.5h-800q-32 1 -54 24q-24 23 -24 56t24 57q22 22 54 23h800z" />
    <glyph glyph-name="Omicron" unicode="&#x39f;" horiz-adv-x="1760" 
d="M880 1440q-265 0 -452.5 -187.5t-187.5 -452.5t187.5 -452.5t452.5 -187.5t452.5 187.5t187.5 452.5t-187.5 452.5t-452.5 187.5zM1680 800q0 -331 -234.5 -565.5t-565.5 -234.5t-565.5 234.5t-234.5 565.5t234.5 565.5t565.5 234.5t565.5 -234.5t234.5 -565.5z" />
    <glyph glyph-name="Pi" unicode="&#x3a0;" horiz-adv-x="1360" 
d="M160 1600h1040q33 0 56.5 -23.5t23.5 -56.5v-1440q0 -33 -23.5 -56.5t-56.5 -23.5t-56.5 23.5t-23.5 56.5v1360h-880v-1360q0 -33 -23.5 -56.5t-56.5 -23.5t-56.5 23.5t-23.5 56.5v1440q0 33 23.5 56.5t56.5 23.5z" />
    <glyph glyph-name="Rho" unicode="&#x3a1;" horiz-adv-x="1080" 
d="M240 1440v-720h240q149 0 254.5 105.5t105.5 254.5t-105.5 254.5t-254.5 105.5h-240zM160 1600h320q215 0 367.5 -152.5t152.5 -367.5t-152.5 -367.5t-367.5 -152.5h-240v-480q0 -33 -23.5 -56.5t-56.5 -23.5t-56.5 23.5t-23.5 56.5v1440q0 33 23.5 56.5t56.5 23.5z" />
    <glyph glyph-name="Sigma" unicode="&#x3a3;" 
d="M1120 1600q33 0 56.5 -23.5t23.5 -56.5t-23.5 -56.5t-56.5 -23.5h-796l461 -593q15 -21 15 -47t-15 -47l-461 -593h796q33 0 56.5 -23.5t23.5 -56.5t-23.5 -56.5t-56.5 -23.5h-960q-33 0 -56.5 23.5t-23.5 56.5q0 25 13 44l525 676l-525 676q-13 19 -13 44
q0 33 23.5 56.5t56.5 23.5h960z" />
    <glyph glyph-name="Tau" unicode="&#x3a4;" horiz-adv-x="1360" 
d="M160 1440q-33 0 -56.5 23.5t-23.5 56.5t23.5 56.5t56.5 23.5h1040q33 0 56.5 -23.5t23.5 -56.5t-23.5 -56.5t-56.5 -23.5h-440v-1360q0 -33 -23.5 -56.5t-56.5 -23.5t-56.5 23.5t-23.5 56.5v1360h-440z" />
    <glyph glyph-name="Upsilon" unicode="&#x3a5;" 
d="M720 80q0 -33 -23.5 -56.5t-56.5 -23.5t-56.5 23.5t-23.5 56.5v696l-467 699q-13 20 -13 45q0 33 23.5 56.5t56.5 23.5q41 0 65 -33l415 -622l415 622q24 33 65 33q33 0 56.5 -23.5t23.5 -56.5q0 -25 -13 -45l-467 -699v-696z" />
    <glyph glyph-name="Phi" unicode="&#x3a6;" horiz-adv-x="1760" 
d="M800 1277q-214 -19 -372 -137q-188 -141 -188 -340t188 -339q158 -119 372 -138v954zM960 1277v-954q214 19 373 138q187 140 187 339t-187 340q-159 118 -373 137zM800 1520q0 33 23.5 56.5t56.5 23.5t56.5 -23.5t23.5 -56.5v-83q280 -20 486 -184q234 -188 234 -453
t-234 -452q-206 -165 -486 -185v-83q0 -33 -23.5 -56.5t-56.5 -23.5t-56.5 23.5t-23.5 56.5v83q-280 20 -485 185q-235 187 -235 452t235 453q205 164 485 184v83z" />
    <glyph glyph-name="Chi" unicode="&#x3a7;" horiz-adv-x="1440" 
d="M720 931l494 635q28 34 66 34q33 0 56.5 -23.5t23.5 -56.5q0 -26 -14 -46l-524 -674l521 -670q17 -22 17 -50q0 -33 -23.5 -56.5t-56.5 -23.5q-38 0 -61 28l-499 641l-499 -641q-23 -28 -61 -28q-33 0 -56.5 23.5t-23.5 56.5q0 28 17 50l521 670l-524 674q-14 20 -14 46
q0 33 23.5 56.5t56.5 23.5q38 0 66 -34z" />
    <glyph glyph-name="Psi" unicode="&#x3a8;" horiz-adv-x="1440" 
d="M80 1520q0 33 23.5 56.5t56.5 23.5t56.5 -23.5t23.5 -56.5v-400q0 -199 141 -339q111 -112 259 -135v874q0 33 23.5 56.5t56.5 23.5t56.5 -23.5t23.5 -56.5v-874q148 23 260 135q140 140 140 339v400q0 33 23.5 56.5t56.5 23.5t56.5 -23.5t23.5 -56.5v-400
q0 -265 -187 -452q-159 -159 -373 -184v-404q0 -33 -23.5 -56.5t-56.5 -23.5t-56.5 23.5t-23.5 56.5v404q-214 25 -372 184q-188 187 -188 452v400z" />
    <glyph glyph-name="uni03A9" unicode="&#x3a9;" horiz-adv-x="1760" 
d="M640 160q33 0 56.5 -23.5t23.5 -56.5t-23.5 -56.5t-56.5 -23.5h-480q-33 0 -56.5 23.5t-23.5 56.5t23.5 56.5t56.5 23.5h143q-30 34 -59 75q-164 234 -164 565t234.5 565.5t565.5 234.5t565.5 -234.5t234.5 -565.5t-164 -565q-29 -41 -59 -75h143q33 0 56.5 -23.5
t23.5 -56.5t-23.5 -56.5t-56.5 -23.5h-480q-33 0 -56.5 23.5t-23.5 56.5t23.5 56.5t56.5 23.5q166 0 283 187.5t117 452.5t-187.5 452.5t-452.5 187.5t-452.5 -187.5t-187.5 -452.5t117 -452.5t283 -187.5z" />
    <glyph glyph-name="Iotadieresis" unicode="&#x3aa;" horiz-adv-x="480" 
d="M160 1520q0 33 23.5 56.5t56.5 23.5t56.5 -23.5t23.5 -56.5v-1440q0 -33 -23.5 -56.5t-56.5 -23.5t-56.5 23.5t-23.5 56.5v1440zM100 1840q0 -41 -29.5 -70.5t-70.5 -29.5t-70.5 29.5t-29.5 70.5t29.5 70.5t70.5 29.5t70.5 -29.5t29.5 -70.5zM580 1840q0 -41 -29.5 -70.5
t-70.5 -29.5t-70.5 29.5t-29.5 70.5t29.5 70.5t70.5 29.5t70.5 -29.5t29.5 -70.5z" />
    <glyph glyph-name="Upsilondieresis" unicode="&#x3ab;" 
d="M500 1840q0 -41 -29.5 -70.5t-70.5 -29.5t-70.5 29.5t-29.5 70.5t29.5 70.5t70.5 29.5t70.5 -29.5t29.5 -70.5zM980 1840q0 -41 -29.5 -70.5t-70.5 -29.5t-70.5 29.5t-29.5 70.5t29.5 70.5t70.5 29.5t70.5 -29.5t29.5 -70.5zM720 80q0 -33 -23.5 -56.5t-56.5 -23.5
t-56.5 23.5t-23.5 56.5v696l-467 699q-13 20 -13 45q0 33 23.5 56.5t56.5 23.5q41 0 65 -33l415 -622l415 622q24 33 65 33q33 0 56.5 -23.5t23.5 -56.5q0 -25 -13 -45l-467 -699v-696z" />
    <glyph glyph-name="alphatonos" unicode="&#x3ac;" horiz-adv-x="1440" 
d="M1028 458l30 102l-30 102q-32 110 -105 181q-117 117 -283 117t-283 -117t-117 -283t117 -283t283 -117t283 117q73 72 105 181zM1135 295q-39 -71 -99 -131q-164 -164 -396 -164t-396 164t-164 396t164 396t396 164t396 -164q60 -60 98 -129l70 239q6 17 20 31
q23 23 56 23t56.5 -23.5t23.5 -56.5q0 -10 -2 -19l-134 -460l134 -462q2 -9 2 -19q0 -33 -23.5 -56.5t-56.5 -23.5t-56 23q-14 14 -20 31zM858 1464l-243 -243q-23 -21 -55 -21q-33 0 -56.5 23.5t-23.5 56.5q0 31 20 54l243 243q24 23 57 23t56.5 -23.5t23.5 -56.5
q0 -32 -22 -56z" />
    <glyph glyph-name="epsilontonos" unicode="&#x3ad;" horiz-adv-x="880" 
d="M400 1120q232 0 396 -164q25 -26 25 -59t-23.5 -56.5t-56.5 -23.5t-64 32q-115 111 -277 111q-66 0 -113 -47t-47 -113t47 -113t113 -47h80q33 0 56.5 -23.5t23.5 -56.5t-23.5 -56.5t-56.5 -23.5h-80q-66 0 -113 -47t-47 -113t47 -113t113 -47q162 0 277 111q31 32 64 32
t56.5 -23.5t23.5 -56.5t-25 -59q-164 -164 -396 -164q-133 0 -226.5 93.5t-93.5 226.5q0 143 108 240q-108 97 -108 240q0 133 93.5 226.5t226.5 93.5zM695 1464l-243 -243q-23 -21 -55 -21q-33 0 -56.5 23.5t-23.5 56.5q0 31 20 54l243 243q24 23 57 23t56.5 -23.5
t23.5 -56.5q0 -32 -22 -56z" />
    <glyph glyph-name="etatonos" unicode="&#x3ae;" horiz-adv-x="1200" 
d="M960 600q0 149 -105.5 254.5t-254.5 105.5t-254.5 -105.5t-105.5 -254.5v-520q0 -33 -23.5 -56.5t-56.5 -23.5t-56.5 23.5t-23.5 56.5v960q0 33 23.5 56.5t56.5 23.5t56.5 -23.5t23.5 -56.5v-65q150 145 360 145q215 0 367.5 -152.5t152.5 -367.5v-1000
q0 -33 -23.5 -56.5t-56.5 -23.5t-56.5 23.5t-23.5 56.5v1000zM845 1464l-243 -243q-23 -21 -55 -21q-33 0 -56.5 23.5t-23.5 56.5q0 31 20 54l243 243q24 23 57 23t56.5 -23.5t23.5 -56.5q0 -32 -22 -56z" />
    <glyph glyph-name="iotatonos" unicode="&#x3af;" horiz-adv-x="480" 
d="M160 1040q0 33 23.5 56.5t56.5 23.5t56.5 -23.5t23.5 -56.5v-960q0 -33 -23.5 -56.5t-56.5 -23.5t-56.5 23.5t-23.5 56.5v960zM458 1464l-243 -243q-23 -21 -55 -21q-33 0 -56.5 23.5t-23.5 56.5q0 31 20 54l243 243q24 23 57 23t56.5 -23.5t23.5 -56.5q0 -32 -22 -56z
" />
    <glyph glyph-name="upsilondieresistonos" unicode="&#x3b0;" horiz-adv-x="1200" 
d="M600 0q-215 0 -367.5 152.5t-152.5 367.5v520q0 33 23.5 56.5t56.5 23.5t56.5 -23.5t23.5 -56.5v-520q0 -149 105.5 -254.5t254.5 -105.5t254.5 105.5t105.5 254.5v520q0 33 23.5 56.5t56.5 23.5t56.5 -23.5t23.5 -56.5v-520q0 -215 -152.5 -367.5t-367.5 -152.5z
M799 1464l-243 -243q-23 -21 -55 -21q-33 0 -56.5 23.5t-23.5 56.5q0 31 20 54l243 243q24 23 57 23t56.5 -23.5t23.5 -56.5q0 -32 -22 -56zM380 1360q0 -41 -29.5 -70.5t-70.5 -29.5t-70.5 29.5t-29.5 70.5t29.5 70.5t70.5 29.5t70.5 -29.5t29.5 -70.5zM1020 1360
q0 -41 -29.5 -70.5t-70.5 -29.5t-70.5 29.5t-29.5 70.5t29.5 70.5t70.5 29.5t70.5 -29.5t29.5 -70.5z" />
    <glyph glyph-name="alpha" unicode="&#x3b1;" horiz-adv-x="1440" 
d="M1028 458l30 102l-30 102q-32 110 -105 181q-117 117 -283 117t-283 -117t-117 -283t117 -283t283 -117t283 117q73 72 105 181zM1135 295q-39 -71 -99 -131q-164 -164 -396 -164t-396 164t-164 396t164 396t396 164t396 -164q60 -60 98 -129l70 239q6 17 20 31
q23 23 56 23t56.5 -23.5t23.5 -56.5q0 -10 -2 -19l-134 -460l134 -462q2 -9 2 -19q0 -33 -23.5 -56.5t-56.5 -23.5t-56 23q-14 14 -20 31z" />
    <glyph glyph-name="beta" unicode="&#x3b2;" horiz-adv-x="1120" 
d="M240 478q1 -132 94 -224q93 -94 226 -94t226.5 93.5t93.5 226.5t-93.5 226.5t-226.5 93.5h-80q-33 0 -56.5 23.5t-23.5 56.5t23.5 56.5t56.5 23.5q99 0 169.5 70.5t70.5 169.5t-70.5 169.5t-169.5 70.5t-169.5 -70.5t-70.5 -169.5v-722zM900 820q140 -141 140 -340
t-140.5 -339.5t-339.5 -140.5q-185 0 -320 122v-522q0 -33 -23.5 -56.5t-56.5 -23.5t-56.5 23.5t-23.5 56.5v1600q0 166 117 283t283 117t283 -117t117 -283t-117 -283q74 -35 137 -97z" />
    <glyph glyph-name="gamma" unicode="&#x3b3;" horiz-adv-x="1200" 
d="M520 64l-434 945q-6 14 -6 31q0 33 23.5 56.5t56.5 23.5t57 -23q8 -8 15 -21l368 -804l368 804q7 13 16 21q23 23 56 23t56.5 -23.5t23.5 -56.5q0 -17 -6 -31l-434 -945v-464q0 -33 -23.5 -56.5t-56.5 -23.5t-56.5 23.5t-23.5 56.5v464z" />
    <glyph glyph-name="delta" unicode="&#x3b4;" 
d="M640 960q-166 0 -283 -117t-117 -283t117 -283t283 -117t283 117t117 283t-117 283t-283 117zM1040 1600q33 0 56.5 -23.5t23.5 -56.5t-23.5 -56.5t-56.5 -23.5h-580l537 -448q203 -180 203 -432q0 -232 -164 -396t-396 -164t-396 164t-164 396t164 396q148 148 352 162
l-414 346v1q-22 23 -22 55q0 33 23.5 56.5t56.5 23.5h800z" />
    <glyph glyph-name="epsilon" unicode="&#x3b5;" horiz-adv-x="880" 
d="M400 1120q232 0 396 -164q25 -26 25 -59t-23.5 -56.5t-56.5 -23.5t-64 32q-115 111 -277 111q-66 0 -113 -47t-47 -113t47 -113t113 -47h80q33 0 56.5 -23.5t23.5 -56.5t-23.5 -56.5t-56.5 -23.5h-80q-66 0 -113 -47t-47 -113t47 -113t113 -47q162 0 277 111q31 32 64 32
t56.5 -23.5t23.5 -56.5t-25 -59q-164 -164 -396 -164q-133 0 -226.5 93.5t-93.5 226.5q0 143 108 240q-108 97 -108 240q0 133 93.5 226.5t226.5 93.5z" />
    <glyph glyph-name="zeta" unicode="&#x3b6;" horiz-adv-x="1120" 
d="M720 -480q-33 0 -56.5 23.5t-23.5 56.5t23.5 56.5t56.5 23.5q66 0 113 47t47 113t-47 113t-113 47q-265 0 -452.5 187.5t-187.5 452.5q0 315 251 509l389 291h-400q-33 0 -56.5 23.5t-23.5 56.5t23.5 56.5t56.5 23.5h640q33 0 56.5 -23.5t23.5 -56.5q0 -40 -42 -71
l-574 -430q-184 -150 -184 -379q0 -199 140.5 -339.5t339.5 -140.5q133 0 226.5 -93.5t93.5 -226.5t-93.5 -226.5t-226.5 -93.5z" />
    <glyph glyph-name="eta" unicode="&#x3b7;" horiz-adv-x="1200" 
d="M960 600q0 149 -105.5 254.5t-254.5 105.5t-254.5 -105.5t-105.5 -254.5v-520q0 -33 -23.5 -56.5t-56.5 -23.5t-56.5 23.5t-23.5 56.5v960q0 33 23.5 56.5t56.5 23.5t56.5 -23.5t23.5 -56.5v-65q150 145 360 145q215 0 367.5 -152.5t152.5 -367.5v-1000
q0 -33 -23.5 -56.5t-56.5 -23.5t-56.5 23.5t-23.5 56.5v1000z" />
    <glyph glyph-name="theta" unicode="&#x3b8;" horiz-adv-x="1120" 
d="M878 880q-13 337 -148 489q-71 71 -170 71t-170 -71q-135 -152 -148 -489h636zM242 720q13 -337 148 -489q71 -71 170 -71t170 71q135 152 148 489h-636zM80 800q0 480 197 683q117 117 283 117t283 -117q197 -203 197 -683t-197 -683q-117 -117 -283 -117t-283 117
q-197 203 -197 683z" />
    <glyph glyph-name="iota" unicode="&#x3b9;" horiz-adv-x="480" 
d="M160 1040q0 33 23.5 56.5t56.5 23.5t56.5 -23.5t23.5 -56.5v-960q0 -33 -23.5 -56.5t-56.5 -23.5t-56.5 23.5t-23.5 56.5v960z" />
    <glyph glyph-name="kappa" unicode="&#x3ba;" horiz-adv-x="1120" 
d="M80 1040q0 33 23.5 56.5t56.5 23.5t56.5 -23.5t23.5 -56.5v-372l677 440q19 12 43 12q33 0 56.5 -23.5t23.5 -56.5q0 -43 -34 -66l-464 -302l476 -536q22 -24 22 -56q0 -33 -23.5 -56.5t-56.5 -23.5t-58 24l-497 560l-165 -107v-397q0 -33 -23.5 -56.5t-56.5 -23.5
t-56.5 23.5t-23.5 56.5v960z" />
    <glyph glyph-name="lambda" unicode="&#x3bb;" horiz-adv-x="1120" 
d="M288 1483q-8 18 -9 37q0 33 23.5 56.5t56.5 23.5t57 -24q13 -13 19 -29l596 -1430q9 -17 9 -37q0 -33 -23.5 -56.5t-56.5 -23.5t-56 23q-14 14 -20 30l-324 777l-324 -777q-6 -16 -19 -30q-24 -23 -57 -23t-56.5 23.5t-23.5 56.5q0 20 9 37l384 922z" />
    <glyph glyph-name="uni03BC" unicode="&#x3bc;" horiz-adv-x="1199" 
d="M240 520q0 -149 105.5 -254.5t254.5 -105.5t254.5 105.5t105.5 254.5v520q0 33 23.5 56.5t56.5 23.5t56.5 -23.5t23.5 -56.5v-960q0 -33 -23.5 -56.5t-56.5 -23.5t-56.5 23.5t-23.5 56.5v65q-150 -145 -360 -145t-360 145v-545q0 -33 -23.5 -56.5t-56.5 -23.5t-56.5 23.5
t-23.5 56.5v1440q0 33 23.5 56.5t56.5 23.5t56.5 -23.5t23.5 -56.5v-520z" />
    <glyph glyph-name="nu" unicode="&#x3bd;" horiz-adv-x="1200" 
d="M657 22q-22 -22 -57 -22t-57 23q-7 6 -13 19l-444 967q-6 14 -6 31q0 33 23.5 56.5t56.5 23.5t57 -23q8 -8 15 -21l368 -804l368 804q7 13 16 21q23 23 56 23t56.5 -23.5t23.5 -56.5q0 -17 -6 -31l-444 -967q-6 -13 -13 -20z" />
    <glyph glyph-name="xi" unicode="&#x3be;" horiz-adv-x="960" 
d="M600 160q133 0 226.5 -93.5t93.5 -226.5t-93.5 -226.5t-226.5 -93.5q-33 0 -56.5 23.5t-23.5 56.5t23.5 56.5t56.5 23.5q66 0 113 47t47 113t-47 113t-113 47q-215 0 -367.5 152.5t-152.5 367.5t153 368q35 35 73 62q-21 16 -40 36q-106 105 -106 254t105.5 254.5
t254.5 105.5h200q33 0 56.5 -23.5t23.5 -56.5t-23.5 -56.5t-56.5 -23.5h-200q-83 0 -141.5 -58.5t-58.5 -141.5t58.5 -141.5t141.5 -58.5h200q33 0 56.5 -23.5t23.5 -56.5t-23.5 -56.5t-56.5 -23.5h-120q-149 0 -254.5 -105.5t-105.5 -254.5t105.5 -254.5t254.5 -105.5z" />
    <glyph glyph-name="omicron" unicode="&#x3bf;" 
d="M1200 560q0 -232 -164 -396t-396 -164t-396 164t-164 396t164 396t396 164t396 -164t164 -396zM640 960q-166 0 -283 -117t-117 -283t117 -283t283 -117t283 117t117 283t-117 283t-283 117z" />
    <glyph glyph-name="pi" unicode="&#x3c0;" 
d="M160 960q-33 0 -56.5 23.5t-23.5 56.5t23.5 56.5t56.5 23.5h960q33 0 56.5 -23.5t23.5 -56.5t-23.5 -56.5t-56.5 -23.5h-80v-880q0 -33 -23.5 -56.5t-56.5 -23.5t-56.5 23.5t-23.5 56.5v880h-480v-880q0 -33 -23.5 -56.5t-56.5 -23.5t-56.5 23.5t-23.5 56.5v880h-80z" />
    <glyph glyph-name="rho" unicode="&#x3c1;" 
d="M240 560q0 -166 117 -283t283 -117t283 117t117 283t-117 283t-283 117t-283 -117t-117 -283zM240 -400q0 -33 -23.5 -56.5t-56.5 -23.5t-56.5 23.5t-23.5 56.5v960q0 232 164 396t396 164t396 -164t164 -396t-164 -396t-396 -164t-396 164l-4 4v-568z" />
    <glyph glyph-name="sigma1" unicode="&#x3c2;" horiz-adv-x="1040" 
d="M640 -320q66 0 113 47t47 113t-47 113t-113 47q-232 0 -396 164t-164 396t164 396t396 164q155 0 280 -73q40 -25 40 -70q0 -33 -23.5 -56.5t-56.5 -23.5q-24 0 -47 15q-86 48 -193 48q-166 0 -283 -117t-117 -283t117 -283t283 -117q133 0 226.5 -93.5t93.5 -226.5
t-93.5 -226.5t-226.5 -93.5q-33 0 -56.5 23.5t-23.5 56.5t23.5 56.5t56.5 23.5z" />
    <glyph glyph-name="sigma" unicode="&#x3c3;" horiz-adv-x="1440" 
d="M1040 560q0 166 -117 283t-283 117t-283 -117t-117 -283t117 -283t283 -117t283 117t117 283zM1032 960l4 -4q164 -164 164 -396t-164 -396t-396 -164t-396 164t-164 396t164 396t396 164h640q33 0 56.5 -23.5t23.5 -56.5t-23.5 -56.5t-56.5 -23.5h-248z" />
    <glyph glyph-name="tau" unicode="&#x3c4;" horiz-adv-x="1120" 
d="M160 960q-33 0 -56.5 23.5t-23.5 56.5t23.5 56.5t56.5 23.5h800q33 0 56.5 -23.5t23.5 -56.5t-23.5 -56.5t-56.5 -23.5h-320v-880q0 -33 -23.5 -56.5t-56.5 -23.5t-56.5 23.5t-23.5 56.5v880h-320z" />
    <glyph glyph-name="upsilon" unicode="&#x3c5;" horiz-adv-x="1200" 
d="M600 0q-215 0 -367.5 152.5t-152.5 367.5v520q0 33 23.5 56.5t56.5 23.5t56.5 -23.5t23.5 -56.5v-520q0 -149 105.5 -254.5t254.5 -105.5t254.5 105.5t105.5 254.5v520q0 33 23.5 56.5t56.5 23.5t56.5 -23.5t23.5 -56.5v-520q0 -215 -152.5 -367.5t-367.5 -152.5z" />
    <glyph glyph-name="phi" unicode="&#x3c6;" 
d="M560 167v713q0 99 70.5 169.5t169.5 70.5q65 0 119 -31q62 -38 117 -93q164 -164 164 -416t-164 -416q-135 -135 -316 -159v-405q0 -33 -23.5 -56.5t-56.5 -23.5t-56.5 23.5t-23.5 56.5v405q-181 24 -316 159q-164 164 -164 416t164 416q54 54 115 90q19 11 41 11
q33 0 56.5 -23.5t23.5 -56.5q0 -49 -39 -69q-45 -26 -84 -65q-117 -117 -117 -303t117 -303q88 -88 203 -110zM839 950q-18 10 -39 10q-33 0 -56.5 -23.5t-23.5 -56.5v-713q115 22 203 110q117 117 117 303t-117 303q-39 39 -84 67z" />
    <glyph glyph-name="chi" unicode="&#x3c7;" horiz-adv-x="1120" 
d="M468 320l-379 682q-9 17 -9 38q0 33 23.5 56.5t56.5 23.5q47 0 68 -37l332 -597l332 597q21 37 68 37q33 0 56.5 -23.5t23.5 -56.5q0 -21 -9 -38l-379 -682l379 -682q9 -17 9 -38q0 -33 -23.5 -56.5t-56.5 -23.5q-46 0 -67 35l-333 599l-333 -599q-21 -35 -67 -35
q-33 0 -56.5 23.5t-23.5 56.5q0 21 9 38z" />
    <glyph glyph-name="psi" unicode="&#x3c8;" horiz-adv-x="1440" 
d="M1200 1040q0 33 23.5 56.5t56.5 23.5t56.5 -23.5t23.5 -56.5v-400q0 -265 -187 -452q-159 -159 -373 -184v-404q0 -33 -23.5 -56.5t-56.5 -23.5t-56.5 23.5t-23.5 56.5v404q-214 25 -372 184q-188 187 -188 452v400q0 33 23.5 56.5t56.5 23.5t56.5 -23.5t23.5 -56.5v-400
q0 -199 141 -339q111 -112 259 -135v874q0 33 23.5 56.5t56.5 23.5t56.5 -23.5t23.5 -56.5v-874q148 23 260 135q140 140 140 339v400z" />
    <glyph glyph-name="omega" unicode="&#x3c9;" horiz-adv-x="1440" 
d="M640 800q0 33 23.5 56.5t56.5 23.5t56.5 -23.5t23.5 -56.5v-440q0 -83 58.5 -141.5t141.5 -58.5t141.5 58.5t58.5 141.5q0 353 -152 644q-8 16 -8 36q0 33 23.5 56.5t56.5 23.5t57 -23q10 -11 18 -29q165 -319 165 -708q0 -149 -105.5 -254.5t-254.5 -105.5
q-169 0 -280 134q-111 -134 -280 -134q-149 0 -254.5 105.5t-105.5 254.5q0 389 165 708q8 18 19 29q23 23 56 23t56.5 -23.5t23.5 -56.5q0 -20 -8 -36q-152 -291 -152 -644q0 -83 58.5 -141.5t141.5 -58.5t141.5 58.5t58.5 141.5v440z" />
    <glyph glyph-name="iotadieresis" unicode="&#x3ca;" horiz-adv-x="600" 
d="M220 1040q0 33 23.5 56.5t56.5 23.5t56.5 -23.5t23.5 -56.5v-960q0 -33 -23.5 -56.5t-56.5 -23.5t-56.5 23.5t-23.5 56.5v960zM160 1360q0 -41 -29.5 -70.5t-70.5 -29.5t-70.5 29.5t-29.5 70.5t29.5 70.5t70.5 29.5t70.5 -29.5t29.5 -70.5zM640 1360q0 -41 -29.5 -70.5
t-70.5 -29.5t-70.5 29.5t-29.5 70.5t29.5 70.5t70.5 29.5t70.5 -29.5t29.5 -70.5z" />
    <glyph glyph-name="upsilondieresis" unicode="&#x3cb;" horiz-adv-x="1200" 
d="M600 0q-215 0 -367.5 152.5t-152.5 367.5v520q0 33 23.5 56.5t56.5 23.5t56.5 -23.5t23.5 -56.5v-520q0 -149 105.5 -254.5t254.5 -105.5t254.5 105.5t105.5 254.5v520q0 33 23.5 56.5t56.5 23.5t56.5 -23.5t23.5 -56.5v-520q0 -215 -152.5 -367.5t-367.5 -152.5z
M460 1360q0 -41 -29.5 -70.5t-70.5 -29.5t-70.5 29.5t-29.5 70.5t29.5 70.5t70.5 29.5t70.5 -29.5t29.5 -70.5zM940 1360q0 -41 -29.5 -70.5t-70.5 -29.5t-70.5 29.5t-29.5 70.5t29.5 70.5t70.5 29.5t70.5 -29.5t29.5 -70.5z" />
    <glyph glyph-name="omicrontonos" unicode="&#x3cc;" 
d="M1200 560q0 -232 -164 -396t-396 -164t-396 164t-164 396t164 396t396 164t396 -164t164 -396zM640 960q-166 0 -283 -117t-117 -283t117 -283t283 -117t283 117t117 283t-117 283t-283 117zM885 1464l-243 -243q-23 -21 -55 -21q-33 0 -56.5 23.5t-23.5 56.5q0 31 20 54
l243 243q24 23 57 23t56.5 -23.5t23.5 -56.5q0 -32 -22 -56z" />
    <glyph glyph-name="upsilontonos" unicode="&#x3cd;" horiz-adv-x="1200" 
d="M600 0q-215 0 -367.5 152.5t-152.5 367.5v520q0 33 23.5 56.5t56.5 23.5t56.5 -23.5t23.5 -56.5v-520q0 -149 105.5 -254.5t254.5 -105.5t254.5 105.5t105.5 254.5v520q0 33 23.5 56.5t56.5 23.5t56.5 -23.5t23.5 -56.5v-520q0 -215 -152.5 -367.5t-367.5 -152.5z
M845 1464l-243 -243q-23 -21 -55 -21q-33 0 -56.5 23.5t-23.5 56.5q0 31 20 54l243 243q24 23 57 23t56.5 -23.5t23.5 -56.5q0 -32 -22 -56z" />
    <glyph glyph-name="omegatonos" unicode="&#x3ce;" horiz-adv-x="1440" 
d="M640 800q0 33 23.5 56.5t56.5 23.5t56.5 -23.5t23.5 -56.5v-440q0 -83 58.5 -141.5t141.5 -58.5t141.5 58.5t58.5 141.5q0 353 -152 644q-8 16 -8 36q0 33 23.5 56.5t56.5 23.5t57 -23q10 -11 18 -29q165 -319 165 -708q0 -149 -105.5 -254.5t-254.5 -105.5
q-169 0 -280 134q-111 -134 -280 -134q-149 0 -254.5 105.5t-105.5 254.5q0 389 165 708q8 18 19 29q23 23 56 23t56.5 -23.5t23.5 -56.5q0 -20 -8 -36q-152 -291 -152 -644q0 -83 58.5 -141.5t141.5 -58.5t141.5 58.5t58.5 141.5v440zM965 1464l-243 -243q-23 -21 -55 -21
q-33 0 -56.5 23.5t-23.5 56.5q0 31 20 54l243 243q24 23 57 23t56.5 -23.5t23.5 -56.5q0 -32 -22 -56z" />
    <glyph glyph-name="afii10023" unicode="&#x401;" 
d="M160 1600h960q33 0 56.5 -23.5t23.5 -56.5t-23.5 -56.5t-56.5 -23.5h-880v-560h640q33 0 56.5 -23.5t23.5 -56.5t-23.5 -56.5t-56.5 -23.5h-640v-560h880q33 0 56.5 -23.5t23.5 -56.5t-23.5 -56.5t-56.5 -23.5h-960q-33 0 -56.5 23.5t-23.5 56.5v1440q0 33 23.5 56.5
t56.5 23.5zM501 1840q0 -41 -29.5 -70.5t-70.5 -29.5t-70.5 29.5t-29.5 70.5t29.5 70.5t70.5 29.5t70.5 -29.5t29.5 -70.5zM981 1840q0 -41 -29.5 -70.5t-70.5 -29.5t-70.5 29.5t-29.5 70.5t29.5 70.5t70.5 29.5t70.5 -29.5t29.5 -70.5z" />
    <glyph glyph-name="afii10051" unicode="&#x402;" horiz-adv-x="1640" 
d="M600 1440h-440q-33 0 -56.5 23.5t-23.5 56.5t23.5 56.5t56.5 23.5h1040q33 0 56.5 -23.5t23.5 -56.5t-23.5 -56.5t-56.5 -23.5h-440v-602q135 122 320 122q199 0 339.5 -140.5t140.5 -339.5t-140.5 -339.5t-339.5 -140.5q-33 0 -56.5 23.5t-23.5 56.5t23.5 56.5
t56.5 23.5q133 0 226.5 93.5t93.5 226.5t-93.5 226.5t-226.5 93.5t-226 -93q-94 -94 -94 -226v-401q0 -33 -23.5 -56.5t-56.5 -23.5t-56.5 23.5t-23.5 56.5v1360z" />
    <glyph glyph-name="afii10052" unicode="&#x403;" horiz-adv-x="1200" 
d="M81 93v1427q0 33 23.5 56.5t56.5 23.5h879q33 0 56.5 -23.5t23.5 -56.5t-23.5 -56.5t-56.5 -23.5h-799v-1361h-1q0 -32 -23 -55q-24 -24 -57 -24t-56.5 23.5t-23.5 56.5q0 7 1 13zM885 1944l-243 -243q-23 -21 -55 -21q-33 0 -56.5 23.5t-23.5 56.5q0 31 20 54l243 243
q24 23 57 23t56.5 -23.5t23.5 -56.5q0 -32 -22 -56z" />
    <glyph glyph-name="afii10053" unicode="&#x404;" horiz-adv-x="1480" 
d="M244 720q25 -214 184 -372q187 -188 452 -188q229 0 400 140q20 14 46 14q33 0 56.5 -23.5t23.5 -56.5t-23 -56q-223 -178 -503 -178q-331 0 -565.5 234.5t-234.5 565.5t234.5 565.5t565.5 234.5q286 0 509 -183q23 -24 23 -57t-23.5 -56.5t-56.5 -23.5t-57 24
q-169 136 -395 136q-265 0 -452 -187q-159 -159 -184 -373h716q33 0 56.5 -23.5t23.5 -56.5t-23.5 -56.5t-56.5 -23.5h-716z" />
    <glyph glyph-name="afii10054" unicode="&#x405;" horiz-adv-x="1060" 
d="M96 219q-16 21 -16 48q0 33 23.5 56.5t56.5 23.5q43 0 68 -37q12 -19 28 -36q85 -102 218 -113q132 -10 233 75.5t112 217.5q11 133 -74.5 233.5t-218.5 111.5q-165 14 -272 140t-94 292q14 165 140 272q113 97 260 97q174 0 304 -143q22 -26 39 -54q12 -19 12 -43
q0 -33 -23.5 -56.5t-56.5 -23.5q-38 0 -56 24t-37 49q-65 76 -163 84q-99 8 -175 -56.5t-84 -162.5q-8 -99 56.5 -175t162.5 -84q199 -17 328 -168q113 -134 113 -304q0 -23 -2 -46q-16 -198 -167 -326q-135 -115 -307 -115q-215 0 -370 170q-21 23 -38 49z" />
    <glyph glyph-name="afii10055" unicode="&#x406;" horiz-adv-x="480" 
d="M160 1520q0 33 23.5 56.5t56.5 23.5t56.5 -23.5t23.5 -56.5v-1440q0 -33 -23.5 -56.5t-56.5 -23.5t-56.5 23.5t-23.5 56.5v1440z" />
    <glyph glyph-name="afii10056" unicode="&#x407;" horiz-adv-x="480" 
d="M160 1520q0 33 23.5 56.5t56.5 23.5t56.5 -23.5t23.5 -56.5v-1440q0 -33 -23.5 -56.5t-56.5 -23.5t-56.5 23.5t-23.5 56.5v1440zM101 1840q0 -41 -29.5 -70.5t-70.5 -29.5t-70.5 29.5t-29.5 70.5t29.5 70.5t70.5 29.5t70.5 -29.5t29.5 -70.5zM581 1840q0 -41 -29.5 -70.5
t-70.5 -29.5t-70.5 29.5t-29.5 70.5t29.5 70.5t70.5 29.5t70.5 -29.5t29.5 -70.5z" />
    <glyph glyph-name="afii10057" unicode="&#x408;" horiz-adv-x="1120" 
d="M80 480q0 33 23.5 56.5t56.5 23.5t56.5 -23.5t23.5 -56.5q0 -133 93.5 -226.5t226.5 -93.5t226.5 93.5t93.5 226.5v1040q0 33 23.5 56.5t56.5 23.5t56.5 -23.5t23.5 -56.5v-1040q0 -199 -140.5 -339.5t-339.5 -140.5t-339.5 140.5t-140.5 339.5z" />
    <glyph glyph-name="afii10058" unicode="&#x409;" horiz-adv-x="2080" 
d="M1117 720l218 -560h225q116 0 198 82t82 198t-82 198t-198 82h-443zM1280 0q-33 0 -57 23q-11 12 -17 26l-486 1250l-486 -1250q-6 -14 -17 -25q-24 -24 -57 -24t-56.5 23.5t-23.5 56.5q0 19 7 34l556 1430q6 18 21 33q23 23 56 23t57 -23q14 -15 20 -33l258 -664h505
q182 0 311 -129t129 -311t-129 -311t-311 -129h-280z" />
    <glyph glyph-name="afii10059" unicode="&#x40a;" horiz-adv-x="1920" 
d="M1400 160q116 0 198 82t82 198t-82 198t-198 82h-360v-560h360zM1400 880q182 0 311 -129t129 -311t-129 -311t-311 -129h-440q-33 0 -56.5 23.5t-23.5 56.5v640h-640v-640q0 -33 -23.5 -56.5t-56.5 -23.5t-56.5 23.5t-23.5 56.5v1440q0 33 23.5 56.5t56.5 23.5
t56.5 -23.5t23.5 -56.5v-640h640v640q0 33 23.5 56.5t56.5 23.5t56.5 -23.5t23.5 -56.5v-640h360z" />
    <glyph glyph-name="afii10060" unicode="&#x40b;" horiz-adv-x="1640" 
d="M1400 480q0 133 -93.5 226.5t-226.5 93.5t-226 -93q-94 -94 -94 -226v-401q0 -33 -23.5 -56.5t-56.5 -23.5t-56.5 23.5t-23.5 56.5v1360h-440q-33 0 -56.5 23.5t-23.5 56.5t23.5 56.5t56.5 23.5h1040q33 0 56.5 -23.5t23.5 -56.5t-23.5 -56.5t-56.5 -23.5h-440v-602
q135 122 320 122q199 0 339.5 -140.5t140.5 -339.5v-400q0 -33 -23.5 -56.5t-56.5 -23.5t-56.5 23.5t-23.5 56.5v400z" />
    <glyph glyph-name="afii10061" unicode="&#x40c;" horiz-adv-x="1200" 
d="M80 1520q0 33 23.5 56.5t56.5 23.5t56.5 -23.5t23.5 -56.5v-686l741 741q26 25 59 25t56.5 -23.5t23.5 -56.5t-23 -57l-562 -562l570 -773q15 -21 15 -45q0 -42 -32 -67q-22 -16 -46 -16q-44 0 -68 34l-554 752l-180 -180v-526q0 -33 -23.5 -56.5t-56.5 -23.5t-56.5 23.5
t-23.5 56.5v1440zM784 1944l-243 -243q-23 -21 -55 -21q-33 0 -56.5 23.5t-23.5 56.5q0 31 20 54l243 243q24 23 57 23t56.5 -23.5t23.5 -56.5q0 -32 -22 -56z" />
    <glyph glyph-name="afii10062" unicode="&#x40e;" horiz-adv-x="1437" 
d="M720 650l492 912q20 38 68 38q33 0 56.5 -23.5t23.5 -56.5q0 -23 -11 -41l-707 -1313q-22 -39 -55 -72q-94 -94 -227 -94q-106 0 -185 58q-38 30 -38 68q0 33 23.5 56.5t56.5 23.5q26 0 46 -15q43 -31 97 -31q66 0 113 47q19 19 30 41l126 233l-538 998q-11 18 -11 41
q0 33 23.5 56.5t56.5 23.5q46 0 68 -38zM406 1960q0 33 23.5 56.5t56.5 23.5t56.5 -23.5t23.5 -56.5t47 -56.5t113 -23.5t113.5 23.5t47.5 56.5t23.5 56.5t56.5 23.5t56.5 -23.5t23.5 -56.5q-5 -105 -94 -169q-94 -71 -227 -71t-226.5 70.5t-93.5 169.5z" />
    <glyph glyph-name="afii10145" unicode="&#x40f;" 
d="M720 -240q0 -33 -23.5 -56.5t-56.5 -23.5t-56.5 23.5t-23.5 56.5v240h-400q-33 0 -56.5 23.5t-23.5 56.5v1440q0 33 23.5 56.5t56.5 23.5t56.5 -23.5t23.5 -56.5v-1360h800v1360q0 33 23.5 56.5t56.5 23.5t56.5 -23.5t23.5 -56.5v-1440q0 -33 -23.5 -56.5t-56.5 -23.5
h-400v-240z" />
    <glyph glyph-name="afii10017" unicode="&#x410;" horiz-adv-x="1440" 
d="M433 560l-199 -511q-6 -14 -17 -26q-24 -23 -57 -23t-56.5 23.5t-23.5 56.5q0 19 7 34l556 1430q6 18 21 33q23 23 56 23t57 -23q14 -15 20 -33l556 -1430q7 -15 7 -34q0 -33 -23.5 -56.5t-56.5 -23.5t-56 23q-12 12 -18 26l-199 511h-574zM945 720l-225 579l-225 -579
h450z" />
    <glyph glyph-name="afii10018" unicode="&#x411;" horiz-adv-x="1120" 
d="M560 160q133 0 226.5 93.5t93.5 226.5t-93.5 226.5t-226.5 93.5h-320v-640h320zM560 960q199 0 339.5 -140.5t140.5 -339.5t-140.5 -339.5t-339.5 -140.5h-400q-33 0 -56.5 23.5t-23.5 56.5v1440q0 33 23.5 56.5t56.5 23.5h640q33 0 56.5 -23.5t23.5 -56.5t-23.5 -56.5
t-56.5 -23.5h-560v-480h320z" />
    <glyph glyph-name="afii10019" unicode="&#x412;" horiz-adv-x="1120" 
d="M240 1440v-480h240q99 0 169.5 70.5t70.5 169.5t-70.5 169.5t-169.5 70.5h-240zM240 800v-640h320q133 0 226.5 93.5t93.5 226.5t-93.5 226.5t-226.5 93.5h-320zM160 1600h320q166 0 283 -117t117 -283t-117 -283q74 -35 137 -97q140 -141 140 -340t-140.5 -339.5
t-339.5 -140.5h-400q-33 0 -56.5 23.5t-23.5 56.5v1440q0 33 23.5 56.5t56.5 23.5z" />
    <glyph glyph-name="afii10020" unicode="&#x413;" horiz-adv-x="1200" 
d="M81 93v1427q0 33 23.5 56.5t56.5 23.5h879q33 0 56.5 -23.5t23.5 -56.5t-23.5 -56.5t-56.5 -23.5h-799v-1361h-1q0 -32 -23 -55q-24 -24 -57 -24t-56.5 23.5t-23.5 56.5q0 7 1 13z" />
    <glyph glyph-name="afii10021" unicode="&#x414;" horiz-adv-x="1600" 
d="M357 160h886l-443 1139zM1440 160q33 0 56.5 -23.5t23.5 -56.5v-320q0 -33 -23.5 -56.5t-56.5 -23.5t-56.5 23.5t-23.5 56.5v240h-1120v-240q0 -33 -23.5 -56.5t-56.5 -23.5t-56.5 23.5t-23.5 56.5v320q0 33 23.5 56.5t56.5 23.5h25l538 1384q6 18 21 33q23 23 56 23
t57 -23q14 -15 20 -33l538 -1384h25z" />
    <glyph glyph-name="afii10022" unicode="&#x415;" 
d="M160 1600h960q33 0 56.5 -23.5t23.5 -56.5t-23.5 -56.5t-56.5 -23.5h-880v-560h640q33 0 56.5 -23.5t23.5 -56.5t-23.5 -56.5t-56.5 -23.5h-640v-560h880q33 0 56.5 -23.5t23.5 -56.5t-23.5 -56.5t-56.5 -23.5h-960q-33 0 -56.5 23.5t-23.5 56.5v1440q0 33 23.5 56.5
t56.5 23.5z" />
    <glyph glyph-name="afii10024" unicode="&#x416;" horiz-adv-x="2080" 
d="M1120 834l741 741q26 25 59 25t56.5 -23.5t23.5 -56.5t-23 -57l-562 -562l570 -773q15 -21 15 -45q0 -7 -1 -15q-5 -33 -31 -52q-22 -16 -46 -16q-6 0 -13 1q-33 4 -55 33l-554 752l-180 -180v-526q0 -33 -23.5 -56.5t-56.5 -23.5t-56.5 23.5t-23.5 56.5v526l-180 180
l-554 -752q-22 -29 -55 -33q-7 -1 -13 -1q-24 0 -45 16q-27 19 -32 52q-1 8 -1 15q0 24 15 45l570 773l-562 562q-23 24 -23 57t23.5 56.5t56.5 23.5t59 -25l741 -741v686q0 33 23.5 56.5t56.5 23.5t56.5 -23.5t23.5 -56.5v-686z" />
    <glyph glyph-name="afii10025" unicode="&#x417;" horiz-adv-x="1080" 
d="M540 760q-33 0 -56.5 23.5t-23.5 56.5t23.5 56.5t56.5 23.5q108 0 184 76t76 184t-76 184t-184 76t-184 -76t-76 -184q0 -33 -23.5 -56.5t-56.5 -23.5t-56.5 23.5t-23.5 56.5q0 174 123 297t297 123t297 -123t123 -297t-123 -297q-21 -21 -43 -38q37 -25 72 -59
q134 -135 134 -326t-134.5 -325.5t-325.5 -134.5t-325.5 134.5t-134.5 325.5q0 33 23.5 56.5t56.5 23.5t56.5 -23.5t23.5 -56.5q0 -124 88 -212t212 -88t212 88t88 212t-88 212t-212 88z" />
    <glyph glyph-name="afii10026" unicode="&#x418;" horiz-adv-x="1440" 
d="M1200.01 80q0 -33 23.499 -56.5q23.498 -23.5 56.4961 -23.5t56.4961 23.5q23.499 23.5 23.499 56.5v1440q0 33 -23.499 56.5q-23.498 23.5 -56.4961 23.5q-35.998 0 -61.9961 -29l-977.94 -1258v1207q0 33 -23.499 56.5q-23.498 23.5 -56.4961 23.5t-56.4961 -23.5
q-23.499 -23.5 -23.499 -56.5v-1440q0 -33 23.499 -56.5q23.498 -23.5 56.4961 -23.5q34.998 0 59.9961 26l979.94 1260v-1206z" />
    <glyph glyph-name="afii10027" unicode="&#x419;" horiz-adv-x="1440" 
d="M1200 1286l-980 -1260q-25 -26 -60 -26q-33 0 -56.5 23.5t-23.5 56.5v1440q0 33 23.5 56.5t56.5 23.5t56.5 -23.5t23.5 -56.5v-1207l978 1258q26 29 62 29q33 0 56.5 -23.5t23.5 -56.5v-1440q0 -33 -23.5 -56.5t-56.5 -23.5t-56.5 23.5t-23.5 56.5v1206zM406 1960
q0 33 23.5 56.5t56.5 23.5t56.5 -23.5t23.5 -56.5t47 -56.5t113 -23.5t113.5 23.5t47.5 56.5t23.5 56.5t56.5 23.5t56.5 -23.5t23.5 -56.5q-5 -105 -94 -169q-94 -71 -227 -71t-226.5 70.5t-93.5 169.5z" />
    <glyph glyph-name="afii10028" unicode="&#x41a;" horiz-adv-x="1200" 
d="M80 1520q0 33 23.5 56.5t56.5 23.5t56.5 -23.5t23.5 -56.5v-686l741 741q26 25 59 25t56.5 -23.5t23.5 -56.5t-23 -57l-562 -562l570 -773q15 -21 15 -45q0 -42 -32 -67q-22 -16 -46 -16q-44 0 -68 34l-554 752l-180 -180v-526q0 -33 -23.5 -56.5t-56.5 -23.5t-56.5 23.5
t-23.5 56.5v1440z" />
    <glyph glyph-name="afii10029" unicode="&#x41b;" horiz-adv-x="1440" 
d="M234 49q-6 -14 -17 -25q-24 -24 -57 -24t-56.5 23.5t-23.5 56.5q0 19 7 34l556 1430q6 18 21 33q23 23 56 23t57 -23q14 -15 20 -33l556 -1430q7 -15 7 -34q0 -33 -23.5 -56.5t-56.5 -23.5t-56 24q-12 11 -18 25l-486 1250z" />
    <glyph glyph-name="afii10030" unicode="&#x41c;" horiz-adv-x="1920" 
d="M904 23.0967q23 -22.999 56 -22.999t57 22.999q13 13.999 19 29.998l324 1167.93l324 -1167.93q6 -15.999 20 -29.998q23 -22.999 56 -22.999t56.5 23.499q23.5 23.498 23.5 56.4961q0 16.999 -6 34.998l-392 1417.91q-8 24.999 -25 42.998q-24 23.998 -57 23.998
t-56 -23.998q-18 -17.999 -25 -41.998l-319 -1151.93l-318 1150.93q-8 24.999 -25 42.998q-24 23.998 -57 23.998t-56 -23.998q-18 -17.999 -25 -41.998l-393 -1418.91q-6 -17.999 -6 -34.998q0 -32.998 23.5 -56.4961q23.5 -23.499 56.5 -23.499t57 22.999
q13 13.999 19 29.998l324 1167.93l324 -1167.93q4 -14.999 20 -29.998z" />
    <glyph glyph-name="afii10031" unicode="&#x41d;" 
d="M80 1520q0 33 23.5 56.5t56.5 23.5t56.5 -23.5t23.5 -56.5v-640h800v640q0 33 23.5 56.5t56.5 23.5t56.5 -23.5t23.5 -56.5v-1440q0 -33 -23.5 -56.5t-56.5 -23.5t-56.5 23.5t-23.5 56.5v640h-800v-640q0 -33 -23.5 -56.5t-56.5 -23.5t-56.5 23.5t-23.5 56.5v1440z" />
    <glyph glyph-name="afii10032" unicode="&#x41e;" horiz-adv-x="1760" 
d="M880 1440q-265 0 -452.5 -187.5t-187.5 -452.5t187.5 -452.5t452.5 -187.5t452.5 187.5t187.5 452.5t-187.5 452.5t-452.5 187.5zM1680 800q0 -331 -234.5 -565.5t-565.5 -234.5t-565.5 234.5t-234.5 565.5t234.5 565.5t565.5 234.5t565.5 -234.5t234.5 -565.5z" />
    <glyph glyph-name="afii10033" unicode="&#x41f;" 
d="M1120 1600q33 0 56.5 -23.5t23.5 -56.5v-1440q0 -33 -23.5 -56.5t-56.5 -23.5t-56.5 23.5t-23.5 56.5v1360h-800v-1360q0 -33 -23.5 -56.5t-56.5 -23.5t-56.5 23.5t-23.5 56.5v1440q0 33 23.5 56.5t56.5 23.5h960z" />
    <glyph glyph-name="afii10034" unicode="&#x420;" horiz-adv-x="1080" 
d="M240 1440v-720h240q149 0 254.5 105.5t105.5 254.5t-105.5 254.5t-254.5 105.5h-240zM160 1600h320q215 0 367.5 -152.5t152.5 -367.5t-152.5 -367.5t-367.5 -152.5h-240v-480q0 -33 -23.5 -56.5t-56.5 -23.5t-56.5 23.5t-23.5 56.5v1440q0 33 23.5 56.5t56.5 23.5z" />
    <glyph glyph-name="afii10035" unicode="&#x421;" horiz-adv-x="1480" 
d="M1326 314q33 0 56.5 -23.5t23.5 -56.5t-23 -56q-223 -178 -503 -178q-331 0 -565.5 234.5t-234.5 565.5t234.5 565.5t565.5 234.5q286 0 509 -183q23 -24 23 -57t-23.5 -56.5t-56.5 -23.5t-57 24q-169 136 -395 136q-265 0 -452.5 -187.5t-187.5 -452.5t187.5 -452.5
t452.5 -187.5q229 0 400 140q20 14 46 14z" />
    <glyph glyph-name="afii10036" unicode="&#x422;" horiz-adv-x="1360" 
d="M160 1440q-33 0 -56.5 23.5t-23.5 56.5t23.5 56.5t56.5 23.5h1040q33 0 56.5 -23.5t23.5 -56.5t-23.5 -56.5t-56.5 -23.5h-440v-1360q0 -33 -23.5 -56.5t-56.5 -23.5t-56.5 23.5t-23.5 56.5v1360h-440z" />
    <glyph glyph-name="afii10037" unicode="&#x423;" horiz-adv-x="1437" 
d="M720 650l492 912q20 38 68 38q33 0 56.5 -23.5t23.5 -56.5q0 -23 -11 -41l-707 -1313q-22 -39 -55 -72q-94 -94 -227 -94q-106 0 -185 58q-38 30 -38 68q0 33 23.5 56.5t56.5 23.5q26 0 46 -15q43 -31 97 -31q66 0 113 47q19 19 30 41l126 233l-538 998q-11 18 -11 41
q0 33 23.5 56.5t56.5 23.5q46 0 68 -38z" />
    <glyph glyph-name="afii10038" unicode="&#x424;" horiz-adv-x="1760" 
d="M800 1277q-214 -19 -372 -137q-188 -141 -188 -340t188 -339q158 -119 372 -138v954zM960 1277v-954q214 19 373 138q187 140 187 339t-187 340q-159 118 -373 137zM800 1520q0 33 23.5 56.5t56.5 23.5t56.5 -23.5t23.5 -56.5v-83q280 -20 486 -184q234 -188 234 -453
t-234 -452q-206 -165 -486 -185v-83q0 -33 -23.5 -56.5t-56.5 -23.5t-56.5 23.5t-23.5 56.5v83q-280 20 -485 185q-235 187 -235 452t235 453q205 164 485 184v83z" />
    <glyph glyph-name="afii10039" unicode="&#x425;" horiz-adv-x="1440" 
d="M720 931l494 635q28 34 66 34q33 0 56.5 -23.5t23.5 -56.5q0 -26 -14 -46l-524 -674l521 -670q17 -22 17 -50q0 -33 -23.5 -56.5t-56.5 -23.5q-38 0 -61 28l-499 641l-499 -641q-23 -28 -61 -28q-33 0 -56.5 23.5t-23.5 56.5q0 28 17 50l521 670l-524 674q-14 20 -14 46
q0 33 23.5 56.5t56.5 23.5q38 0 66 -34z" />
    <glyph glyph-name="afii10040" unicode="&#x426;" horiz-adv-x="1440" 
d="M160 0q-33 0 -56.5 23.5t-23.5 56.5v1440q0 33 23.5 56.5t56.5 23.5t56.5 -23.5t23.5 -56.5v-1360h800v1360q0 33 23.5 56.5t56.5 23.5t56.5 -23.5t23.5 -56.5v-1360h80q33 0 56.5 -23.5t23.5 -56.5q0 -189 -76 -346q-6 -17 -19 -30q-24 -24 -57 -24t-56.5 23.5
t-23.5 56.5q0 21 9 38q39 72 54 202h-1031z" />
    <glyph glyph-name="afii10041" unicode="&#x427;" 
d="M1200 80q0 -33 -23.5 -56.5t-56.5 -23.5t-56.5 23.5t-23.5 56.5v648l-4 -4q-164 -164 -396 -164t-396 164t-164 396v400q0 33 23.5 56.5t56.5 23.5t56.5 -23.5t23.5 -56.5v-400q0 -166 117 -283t283 -117t283 117t117 283v400q0 33 23.5 56.5t56.5 23.5t56.5 -23.5
t23.5 -56.5v-1440z" />
    <glyph glyph-name="afii10042" unicode="&#x428;" horiz-adv-x="1600" 
d="M80 1520q0 33 23.5 56.5t56.5 23.5t56.5 -23.5t23.5 -56.5v-1360h480v1360q0 33 23.5 56.5t56.5 23.5t56.5 -23.5t23.5 -56.5v-1360h480v1360q0 33 23.5 56.5t56.5 23.5t56.5 -23.5t23.5 -56.5v-1440q0 -33 -23.5 -56.5t-56.5 -23.5h-1280q-33 0 -56.5 23.5t-23.5 56.5
v1440z" />
    <glyph glyph-name="afii10043" unicode="&#x429;" horiz-adv-x="1760" 
d="M160 0q-33 0 -56.5 23.5t-23.5 56.5v1440q0 33 23.5 56.5t56.5 23.5t56.5 -23.5t23.5 -56.5v-1360h480v1360q0 33 23.5 56.5t56.5 23.5t56.5 -23.5t23.5 -56.5v-1360h480v1360q0 33 23.5 56.5t56.5 23.5t56.5 -23.5t23.5 -56.5v-1360h80q33 0 56.5 -23.5t23.5 -56.5
q0 -189 -76 -346q-6 -17 -19 -30q-24 -24 -57 -24t-56.5 23.5t-23.5 56.5q0 21 9 38q39 72 54 202h-1351z" />
    <glyph glyph-name="afii10044" unicode="&#x42a;" horiz-adv-x="1360" 
d="M840 160q116 0 198 82t82 198t-82 198t-198 82h-360v-560h360zM400 1600q33 0 56.5 -23.5t23.5 -56.5v-640h360q182 0 311 -129t129 -311t-129 -311t-311 -129h-440q-33 0 -56.5 23.5t-23.5 56.5v1360h-240q-33 0 -56.5 23.5t-23.5 56.5t23.5 56.5t56.5 23.5h320z" />
    <glyph glyph-name="afii10045" unicode="&#x42b;" horiz-adv-x="1440" 
d="M600 160q116 0 198 82t82 198t-82 198t-198 82h-360v-560h360zM240 1520v-640h360q182 0 311 -129t129 -311t-129 -311t-311 -129h-440q-33 0 -56.5 23.5t-23.5 56.5v1440q0 33 23.5 56.5t56.5 23.5t56.5 -23.5t23.5 -56.5zM1200 1520q0 33 23.5 56.5t56.5 23.5
t56.5 -23.5t23.5 -56.5v-1440q0 -33 -23.5 -56.5t-56.5 -23.5t-56.5 23.5t-23.5 56.5v1440z" />
    <glyph glyph-name="afii10046" unicode="&#x42c;" horiz-adv-x="1120" 
d="M600 160q116 0 198 82t82 198t-82 198t-198 82h-360v-560h360zM240 1520v-640h360q182 0 311 -129t129 -311t-129 -311t-311 -129h-440q-33 0 -56.5 23.5t-23.5 56.5v1440q0 33 23.5 56.5t56.5 23.5t56.5 -23.5t23.5 -56.5z" />
    <glyph glyph-name="afii10047" unicode="&#x42d;" horiz-adv-x="1480" 
d="M1248.01 720q-24.998 -214 -183.988 -372q-186.989 -188 -451.973 -188q-228.986 0 -399.976 140q-19.999 14 -45.9971 14q-32.998 0 -56.4971 -23.5q-23.498 -23.5 -23.498 -56.5t22.998 -56q222.986 -178 502.97 -178q330.979 0 565.466 234.5
q234.485 234.5 234.485 565.5t-234.485 565.5q-234.486 234.5 -565.466 234.5q-285.982 0 -508.969 -183q-22.999 -24 -22.999 -57t23.499 -56.5q23.498 -23.5 56.4961 -23.5t56.9971 24q168.989 136 394.976 136q264.983 0 451.973 -187q158.99 -159 183.988 -373h-715.956
q-32.998 0 -56.4961 -23.5q-23.499 -23.5 -23.499 -56.5t23.499 -56.5q23.498 -23.5 56.4961 -23.5h715.956z" />
    <glyph glyph-name="afii10048" unicode="&#x42e;" horiz-adv-x="2080" 
d="M1200 1440q-265 0 -452.5 -187.5t-187.5 -452.5t187.5 -452.5t452.5 -187.5t452.5 187.5t187.5 452.5t-187.5 452.5t-452.5 187.5zM404 880q25 280 231 486q234 234 565 234t565.5 -234.5t234.5 -565.5t-234.5 -565.5t-565.5 -234.5t-565 235q-206 205 -231 485h-164
v-640q0 -33 -23.5 -56.5t-56.5 -23.5t-56.5 23.5t-23.5 56.5v1440q0 33 23.5 56.5t56.5 23.5t56.5 -23.5t23.5 -56.5v-640h164z" />
    <glyph glyph-name="afii10049" unicode="&#x42f;" horiz-adv-x="1200" 
d="M960.015 1440v-640h-319.98q-132.992 0 -226.486 93.5t-93.4941 226.5t93.4941 226.5t226.486 93.5h319.98zM1040.01 1600h-399.976q-198.988 0 -339.479 -140.5t-140.491 -339.5t139.991 -339q64.9961 -65 140.991 -99l-347.979 -558q-12.999 -19 -12.999 -44
q0 -33 23.499 -56.5q23.498 -23.5 56.4961 -23.5q42.9971 0 69.9961 41l374.977 600q16.999 -1 34.998 -1h319.98v-560q0 -33 23.499 -56.5q23.498 -23.5 56.4961 -23.5t56.4961 23.5q23.499 23.5 23.499 56.5v1440q0 33 -23.499 56.5q-23.498 23.5 -56.4961 23.5z" />
    <glyph glyph-name="afii10065" unicode="&#x430;" 
d="M640 960q-166 0 -283 -117t-117 -283t117 -283t283 -117t283 117t117 283t-117 283t-283 117zM1040 168q-168 -168 -400 -168t-396 164t-164 396t164 396t396 164t396 -164t164 -396v-480q0 -33 -23.5 -56.5t-56.5 -23.5t-56.5 23.5t-23.5 56.5v88z" />
    <glyph glyph-name="afii10066" unicode="&#x431;" 
d="M1040 560q0 166 -117 283t-283 117t-283 -117t-117 -283t117 -283t283 -117t283 117t117 283zM240 952l4 4q164 164 396 164t396 -164t164 -396t-164 -396t-396 -164t-396 164t-164 396v400q0 232 164 396t396 164h46q174 0 318 72q16 8 36 8q33 0 56.5 -23.5t23.5 -56.5
t-23 -56q-10 -10 -21 -16q-176 -88 -390 -88h-46q-166 0 -283 -117t-117 -283v-8z" />
    <glyph glyph-name="afii10067" unicode="&#x432;" horiz-adv-x="1040" 
d="M560 640q66 0 113 47t47 113t-47 113t-113 47h-320v-320h320zM640 160q66 0 113 47t47 113t-47 113t-113 47h-400v-320h400zM160 1120h400q133 0 226.5 -93.5t93.5 -226.5q0 -118 -74 -205q32 -20 61 -48q93 -94 93 -227t-93.5 -226.5t-226.5 -93.5h-480
q-33 0 -56.5 23.5t-23.5 56.5v960q0 33 23.5 56.5t56.5 23.5z" />
    <glyph glyph-name="afii10068" unicode="&#x433;" horiz-adv-x="880" 
d="M240 80q0 -33 -23.5 -56.5t-56.5 -23.5t-56.5 23.5t-23.5 56.5v720q0 133 93.5 226.5t226.5 93.5h320q33 0 56.5 -23.5t23.5 -56.5t-23.5 -56.5t-56.5 -23.5h-320q-66 0 -113 -47t-47 -113v-720z" />
    <glyph glyph-name="afii10069" unicode="&#x434;" 
d="M640 960q-166 0 -283 -117t-117 -283t117 -283t283 -117t283 117t117 283t-117 283t-283 117zM1040 168l-4 -4q-164 -164 -396 -164t-396 164t-164 396t164 396t396 164t396 -164t164 -396v-560q0 -175 -126 -304q-176 -176 -425 -176t-424 176q-65 64 -106 139
q-12 18 -12 42q0 33 23.5 56.5t56.5 23.5t57 -23q10 -11 17 -24q30 -54 77 -101q129 -129 311 -129t311 129q80 96 80 191v168z" />
    <glyph glyph-name="afii10070" unicode="&#x435;" 
d="M1033 640q-22 115 -110 203q-117 117 -283 117t-283 -117q-88 -88 -110 -203h786zM948 272q33 0 56.5 -23.5t23.5 -56.5t-23 -57q-155 -135 -365 -135q-232 0 -396 164t-164 396t164 396t396 164t396 -164t164 -396q0 -33 -23.5 -56.5t-56.5 -23.5h-873q22 -115 110 -203
q117 -117 283 -117q150 0 258 95q22 17 50 17z" />
    <glyph glyph-name="afii10072" unicode="&#x436;" horiz-adv-x="1760" 
d="M800 603v437q0 33 23.5 56.5t56.5 23.5t56.5 -23.5t23.5 -56.5v-437l587 497q22 20 53 20q33 0 56.5 -23.5t23.5 -56.5t-23 -56l-497 -421l497 -426q23 -24 23 -57t-23.5 -56.5t-56.5 -23.5q-30 0 -52 19l-512 439l-76 -65v-313q0 -33 -23.5 -56.5t-56.5 -23.5
t-56.5 23.5t-23.5 56.5v313l-76 65l-512 -439q-22 -19 -52 -19q-33 0 -56.5 23.5t-23.5 56.5t23 57l497 426l-497 421q-23 23 -23 56t23.5 56.5t56.5 23.5q31 0 53 -20z" />
    <glyph glyph-name="afii10073" unicode="&#x437;" horiz-adv-x="960" 
d="M256 262q33 -41 55 -55q70 -47 169 -47t169.5 52t70.5 118q0 76 -70.5 133t-169.5 57q-33 0 -56.5 23.5t-23.5 56.5t23.5 56.5t56.5 23.5q99 0 169.5 37t70.5 93q0 66 -70.5 108t-169.5 42t-169 -47q-33 -24 -53 -53q-5 -8 -12 -15q-24 -24 -57 -24t-56.5 23.5
t-23.5 56.5q0 24 12 43q28 44 76 83q117 93 283 93t283 -88.5t117 -221.5t-135 -210q135 -117 135 -270q0 -133 -117 -231.5t-283 -98.5t-283 94q-43 34 -70 73q-16 21 -16 48q0 33 23.5 56.5t56.5 23.5q41 0 65 -33z" />
    <glyph glyph-name="afii10074" unicode="&#x438;" horiz-adv-x="1200" 
d="M1120 80q0 -33 -23.5 -56.5t-56.5 -23.5t-56.5 23.5t-23.5 56.5v65q-150 -145 -360 -145q-215 0 -367.5 152.5t-152.5 367.5v520q0 33 23.5 56.5t56.5 23.5t56.5 -23.5t23.5 -56.5v-520q0 -149 105.5 -254.5t254.5 -105.5t254.5 105.5t105.5 254.5v520q0 33 23.5 56.5
t56.5 23.5t56.5 -23.5t23.5 -56.5v-960z" />
    <glyph glyph-name="afii10075" unicode="&#x439;" horiz-adv-x="1200" 
d="M1120 80q0 -33 -23.5 -56.5t-56.5 -23.5t-56.5 23.5t-23.5 56.5v65q-150 -145 -360 -145q-215 0 -367.5 152.5t-152.5 367.5v520q0 33 23.5 56.5t56.5 23.5t56.5 -23.5t23.5 -56.5v-520q0 -149 105.5 -254.5t254.5 -105.5t254.5 105.5t105.5 254.5v520q0 33 23.5 56.5
t56.5 23.5t56.5 -23.5t23.5 -56.5v-960zM286 1480q0 33 23.5 56.5t56.5 23.5t56.5 -23.5t23.5 -56.5t47 -56.5t113 -23.5t113.5 23.5t47.5 56.5t23.5 56.5t56.5 23.5t56.5 -23.5t23.5 -56.5q-5 -105 -94 -169q-94 -71 -227 -71t-226.5 70.5t-93.5 169.5z" />
    <glyph glyph-name="afii10076" unicode="&#x43a;" horiz-adv-x="1040" 
d="M80 1040q0 33 23.5 56.5t56.5 23.5t56.5 -23.5t23.5 -56.5v-437l587 497q22 20 53 20q33 0 56.5 -23.5t23.5 -56.5t-23 -56l-497 -421l497 -426q23 -24 23 -57t-23.5 -56.5t-56.5 -23.5q-30 0 -52 19l-512 439l-76 -65v-313q0 -33 -23.5 -56.5t-56.5 -23.5t-56.5 23.5
t-23.5 56.5v960z" />
    <glyph glyph-name="afii10077" unicode="&#x43b;" horiz-adv-x="1200" 
d="M657 1096q-22 21.999 -57 21.999t-57 -22.999q-7 -5.99902 -13 -18.998l-444 -966.941q-6 -13.999 -6 -30.998q0 -32.998 23.5 -56.4961q23.5 -23.499 56.5 -23.499t57 22.999q8 7.99902 15 20.998l368 803.951l368 -803.951q7 -12.999 16 -20.998q23 -22.999 56 -22.999
t56.5 23.499q23.5 23.498 23.5 56.4961q0 16.999 -6 30.998l-444 966.941q-6 12.999 -13 19.998z" />
    <glyph glyph-name="afii10078" unicode="&#x43c;" horiz-adv-x="1600" 
d="M744 22.0674q23 -22.999 56 -22.999t57 22.999q15 15.999 21 36.9971l242 726.956l247 -740.955q6 -11.999 17 -22.998q23 -22.999 56 -22.999t56.5 23.499q23.5 23.498 23.5 56.4961q0 15.999 -6 30.998l-319 957.941q-6 14.999 -18 28.998q-24 21.999 -57 21.999
t-56 -21.999q-13 -13.999 -19 -28.998l-245 -735.955l-245 735.955q-6 14.999 -18 28.998q-24 21.999 -57 21.999t-56 -21.999q-13 -13.999 -19 -28.998l-319 -957.941q-6 -14.999 -6 -30.998q0 -32.998 23.5 -56.4961q23.5 -23.499 56.5 -23.499t57 22.999
q10 10.999 16 22.998l247 740.955l242 -726.956q7 -20.998 22 -36.9971z" />
    <glyph glyph-name="afii10079" unicode="&#x43d;" horiz-adv-x="1080" 
d="M240 480v-400q0 -33 -23.5 -56.5t-56.5 -23.5t-56.5 23.5t-23.5 56.5v960q0 33 23.5 56.5t56.5 23.5t56.5 -23.5t23.5 -56.5v-400h600v400q0 33 23.5 56.5t56.5 23.5t56.5 -23.5t23.5 -56.5v-960q0 -33 -23.5 -56.5t-56.5 -23.5t-56.5 23.5t-23.5 56.5v400h-600z" />
    </font>
</defs>
</svg>
